<svg version="1.2" xmlns="http://www.w3.org/2000/svg" viewBox="0 0 116 293" width="116" height="293">
	<title>bimbimka_feather-ai</title>
	<style>
		.s0 { fill: #090909 } 
	</style>
	<g id="Layer 2">
		<g id="&lt;Group&gt;">
			<path id="&lt;Compound Path&gt;" fill-rule="evenodd" class="s0" d="m71.1 81.2c-0.7 0.2-1.3 0.3-1.7-0.5-0.3-0.7 0-1.4 0.6-1.8 1.3-1 2.7-1.8 4.3-2.3 0.7-0.2 1.4-0.3 1.8 0.3 0.5 0.7 0 1.3-0.3 1.8-1.1 1.6-3 1.8-4.7 2.5zm-0.2-1.3c1.5-0.4 3.2-0.5 4.2-2.4-1.7 0.7-3.3 0.8-4.2 2.4z"/>
			<path id="&lt;Path&gt;" class="s0" d="m32.7 225.4c0.1 1-0.3 1.6-1.2 1.7-0.8 0.1-1.5-0.4-1.7-1.3-0.2-1 0.7-1.5 1.3-1.7 0.9-0.2 1.2 0.7 1.6 1.3z"/>
			<path id="&lt;Path&gt;" class="s0" d="m39.8 95c0.2 0.8-0.2 1.6-1 1.8-0.7 0.1-1.4-0.4-1.6-1.2-0.2-0.8 0.3-1.6 1-1.7 0.7-0.2 1.5 0.3 1.6 1.1z"/>
			<path id="&lt;Path&gt;" class="s0" d="m45.1 100.1c0.1 0.7-0.3 1.5-1 1.6-0.8 0.2-1.5-0.3-1.7-1-0.1-0.8 0.3-1.6 1-1.7 0.8-0.2 1.5 0.3 1.7 1.1z"/>
			<path id="&lt;Path&gt;" class="s0" d="m34.6 112.9q0 0 0 0.1 0.1-0.1 0.2-0.1 0 0 0-0.1-0.1 0.1-0.2 0.1z"/>
			<path id="&lt;Path&gt;" class="s0" d="m26.6 240.7q0 0 0 0.1-0.1 0.1-0.1 0.2 0 0 0.1 0 0-0.1 0-0.3z"/>
			<path id="&lt;Compound Path&gt;" fill-rule="evenodd" class="s0" d="m116.1 6c-0.2 3.3-0.2 6.6-0.9 9.9-0.9 4.2-1.9 8.3-3.5 12.4-1.9 5-5.2 9-7.2 13.9-0.9 2.5-2.2 4.9-2.9 7.5-0.2 0.8-0.8 1.1-1.2 1.7-3.1 5.1-6.2 10.3-9.4 15.4-1 1.6-2.4 3-4.6 3.3-0.6 0.1-1.3 0.5-2.1 0.9 2.2 1 3.3 2.9 4.8 4.5 1.1 1.3 0.8 3 0.2 4.5-0.2 0.4-0.4 0.7-0.9 0.6-0.6-0.2-0.5-0.7-0.3-1.1 0.8-2 0-3.4-1.4-4.8-0.6-0.6-1-0.7-1.6 0.1-1.4 2-2 4.5-3.1 6.6-2 3.7-2.9 7.7-4.3 11.6-2.3 6.2-4.1 12.6-5.1 19.1-0.1 1.1-0.5 1.5-1.7 1.7-3.5 0.4-6.5 2.5-9.1 4.7-2.6 2.1-5 4.5-7.2 7.2-1.2 1.4-2.5 2.9-3.5 4.5-0.3 0.5-0.7 1-1 1.6-0.2 0.4-0.5 1.6-0.8 1.8 1.1-0.8 1.6-1.9 2.4-3 2.8-3.3 6.5-5.9 9.9-8.5 3.9-2.9 7.9-5.6 12.3-7.9 2.9-1.5 5.5-3.8 8.2-5.7 2.9-2.1 5.9-4 8.7-6.2 5.3-4.2 8.7-9.3 7.9-16.4-0.3-2.6-0.8-5.3-0.3-8 0.4-2.1 3-3.8 4.9-3 0.8 0.2 1.3 0.7 1.4 1.5 0.1 1 0.1 2-0.7 2.8-0.5 0.4-0.9 0.1-1.2-0.2-0.4-0.3-0.6-0.8-0.2-1 0.7-0.6 1-1.1 0.1-1.7-1-0.6-1.7-0.1-2.3 0.7-0.6 0.9-0.9 1.9-0.7 3.1 0.6 2.7 1.2 5.5 1.2 8.3 0 3.2-1 6.1-3.1 8.5-2.2 2.6-4.2 5.3-6.8 7.4-3.2 2.7-6.6 5.1-10.3 7.1-0.9 0.5-1.7 1-2.5 1.6-0.7 0.4-1.4 0.6-1.8 1.3-0.8 1.2-1.3 2.5-2 3.7-0.7 1.2-1.5 2.4-2 3.7-0.7 1.7-0.9 3.5-1.1 5.2-0.4 6.1-1 12.2-1.1 18.3-0.1 6.3-0.1 12.6-0.3 18.9-0.1 2.6-0.2 5.1 0.2 7.6 0.5 2.6 0.1 4.9-0.6 7.2-0.4 1.2-1 2.4-1.5 3.6-0.1 0.2-0.3 0.5 0.1 0.7 0.3 0.2 0.5-0.1 0.6-0.4 2.3-4.9 5.4-9.4 6.9-14.7 1.2-3.8 2.4-7.7 3-11.7 0.4-2.9 0.1-5.9 0.6-8.8 0.2-1.6 0.5-3.2 1-4.7 0.7-1.8 1.2-3.8 1.8-5.6 0.6-1.7 1.8-3.1 2.8-4.5 0.7-0.9 3.3-0.6 4.1 0.3 0.5 0.5 0.7 1.1 0.3 1.7-0.4 0.6-0.9 1.2-1.6 1.2-0.5 0-0.9-0.3-0.7-0.9 0.1-0.3 0.8-0.5 0.2-0.8-0.4-0.3-1.1-0.4-1.5 0-0.9 1-1.9 1.9-2.3 3.2-0.7 1.7-0.9 3.5-1.7 5.2-1.4 3.4-1.3 6.9-1.4 10.4-0.1 4-0.2 8-1.5 11.7-1.7 4.8-2.9 9.8-5.9 14.1-1.3 1.9-2.4 4-3.2 6.2 0.8 0 3.7-2.4 4.6-3.9 1.1-1.8 1.7-3.9 3.1-5.6-0.3 1.8-0.4 3.8-1.4 5.4-2.7 4.3-3.7 9-3.5 14.1 0.3 7.4 1.2 14.8 1.3 22.3 0 5.3-2.2 9.5-5.5 13.4-2.6 3.2-5.2 6.3-7.7 9.6-2.1 2.6-4.6 4.9-6.2 7.8-1.4 2.6-2.8 5.1-4 7.7-0.3 1-0.2 1.7 0.1 2.7 0.8-0.7 1.2-1.6 1.7-2.3 3.1-5 6.9-9.3 11.5-13 2.5-2.1 4.8-4.6 7.4-6.7 1.6-1.3 3-2.8 4.5-4.3 2.4-2.3 3.6-5.1 3.9-8.4 0.1-0.5-0.1-1.2 0.7-1.2 0.8 0 0.7 0.8 0.7 1.3 0.1 4.8-1.9 8.8-4.6 12.6-3.2 4.5-7.8 7.5-12 11-4.3 3.4-8.8 6.8-10.9 12.4-0.5 1.3-1 2.7-1.6 4.1-0.4 1.3 0.3 1.9 1.3 2.1 1.5 0.4 3 0.2 4.1-1 1.2-1.2 2.2-2.7 1.8-4.6-0.3-1.4-1.4-1.1-2.5-0.7 0.4 0.3 1.3-0.2 1.2 0.7 0 0.7-0.5 0.8-1.1 1-0.7 0.2-1.4 0.2-1.7-0.6-0.4-0.7-0.3-1.5 0.2-2.2 0.5-0.8 1.1-1.3 2.2-1.3 3.9 0.2 5.8 4.2 3.6 7.2-1.4 2.1-3.1 3.2-5.6 3.1-1.3 0-3.1-0.5-3.8 0.3-0.6 0.6 0 2.4 0 3.7 0.1 2.3 0.3 4.6 0.7 6.9 0.2 1.7 0 3.3-0.6 4.9-1.1 2.9-2.1 5.8-3.9 8.4-0.2 0.3-0.4 0.8-0.9 0.6-0.3-0.1-0.2-0.6-0.1-0.9 0.8-3.8 1.1-7.7 0.9-11.6-0.3-3.8-0.2-7.7-0.6-11.4-0.2-1.6-1.2-2.9-2.2-4-3.8-4.1-8.2-6.6-14-5.5-1.9 0.3-2.5 1.1-2.2 3.1q0.3 0 0.7 0c0.4-0.1 0.8-0.1 0.9 0.4 0.1 0.5-0.2 0.7-0.6 0.9-1.1 0.3-2 0.5-2.8-0.6-1-1.2-1.3-3.1-0.5-4.1 2-2.4 4.7-3.1 7.7-3 1 0.1 2 0.2 2.9 0.3 0.2 0.1 0.4 0.1 0.4 0.1 0.1-0.3 0-0.4-0.2-0.4-1.1-1.6-2.6-2.7-4.1-3.9-3.4-2.6-5.9-6.2-9-9.1q-4.6-4.4-7.4-10c-0.9-1.9-1.4-4.2-1.8-6.4-1.2-6.6-2.1-13.3-2.7-20-0.5-5-1-9.9-1.3-15-0.2-4.1-0.6-8.2-2.9-11.8-0.2-0.4-0.5-0.9 0-1.2 0.5-0.3 0.9 0 1.2 0.3 2.5 2.3 4.8 4.8 6.8 7.5q1.6 2.1 3.5 3.9c3.8 3.5 7.6 7.1 10.9 11.1 0.4 0.5 0.9 1 1.4 1.5 0.1-1.2-0.6-1.8-1.1-2.6-3.1-4.6-7.5-8.1-10.7-12.6-2.6-3.7-5.9-6.8-7.9-10.9-1-2-1.6-4.2-1.8-6.5-0.1-3.2-0.7-6.3-0.6-9.4 0-1.2 0.3-2.4 0.5-3.5 0.5-4.9 1-9.7 0.5-14.6-0.1-0.2 0-0.5-0.1-0.7-0.8-1.8-4.8-4-6.9-3.8-1.6 0.2-2 0.6-1.8 2.3 0 0.5 0 1 0.5 1.4 0.5-0.1 0.3-1.1 1-0.7 0.4 0.2 0.5 0.7 0.5 1.1 0 0.6-0.4 0.9-1 1-0.3 0-0.7-0.1-1-0.2-1-0.5-1.5-2.1-1.2-4 0.2-1.2 0.8-1.8 2.1-2 3.4-0.5 5.9 1.2 8.3 3.5 2.9 2.7 4.4 6.2 6.6 9.3 2.8 3.9 5.3 8 8.7 11.4 0.2 0.1 0.3 0.5 0.5 0.2 0.2-0.2 0-0.4-0.1-0.6-1.1-2-1.9-4.1-3.2-6-2-3-3.6-6.3-5.3-9.5-1.7-3.2-2.7-6.6-3.2-10.3-0.8-6.7 0.2-13.2 0-19.8-0.1-5.1 0-10.2 0.5-15.3 0.3-2.7 0.5-5.4 1.3-8 2.6-9.3 5.6-18.5 11.1-26.7 2.8-4 5.8-7.6 10.3-9.6 1.6-0.8 3.4-1.1 5.1-1.3 1-0.2 1.4 0.4 1.5 1.2 0.1 0.9-0.1 1.6-1 1.9-0.5 0.2-1-0.1-0.9-0.6 0.5-1.5-0.5-1.1-1.2-1-4 0.7-7.1 2.7-9.6 5.8-4.8 5.8-8 12.4-10.8 19.4-2.4 6.4-3.1 13-4 19.6-0.6 4.2-1 8.4-1 12.6 0 2.2 0.8 4.2 1.5 6.2 1.6 4.5 3.4 9 5.9 13.1 2.7 4.5 4.9 9.2 7.3 13.9 0.9 1.9 2 3.7 3.1 5.6 1-1.9 1-2.1-0.1-3.6-1.5-1.9-2.5-4-3.6-6.1-1.5-2.5-2.7-5.2-4.2-7.8-2.3-3.8-3.8-8-5.6-12-1.3-2.8-1.2-5.9-1.5-8.8-0.2-1.5 0.9-3 1.5-4.4 3.3-7.7 7.5-14.9 11.5-22.2 1.6-3.1 4-5.6 5.4-8.8 0.9-2.3 2.4-4.3 3.6-6.5 0.1-0.3 0.1-0.6 0.4-0.7 2.8-0.9 3.8-3.6 5.6-5.5q1.2-1.3 2.2-2.6c1-1.2 1.8-2.4 2.3-3.9 1.5-5 4.5-9.2 7.8-13.2 3.8-4.6 8.2-8.6 12.6-12.7 3.2-2.9 6.1-6.2 8.3-9.9 2.1-3.7 4.4-7.3 4.8-11.7 0.1-1.4-0.3-2.7-0.3-4.1 0-0.7-0.8-0.8-1.4-0.8-0.5 0-0.7 0.3-0.8 0.7 0 0.6 0.3 0.8 0.9 0.9 0.6 0.2 0.7 0.7 0.1 1.1-0.8 0.6-2.4 0-2.6-0.9-0.4-1.4 0.7-3.3 2.1-3.7 1.3-0.4 2.5 0.5 3.1 2 1.7 4 0.7 7.9-0.9 11.5-1.3 2.7-2.7 5.4-4.6 7.8-3.3 4.1-7.1 7.8-11 11.5-3.3 3-6.9 5.8-9.5 9.5-2.8 3.8-5.8 7.6-7.4 12.2 0 0.2 0 0.4-0.1 0.7 1.1-0.3 1.8-1 2.4-1.7 3.6-4.6 8.2-7.9 12.7-11.4 1.7-1.3 3.9-2.2 5.5-3.7 3.4-3.1 7.3-5.5 11.2-7.8 1.3-0.8 2.7-1.8 3.4-3.3 0.6-1 1.8-1.1 2.6-1.8 2.1-2.1 4.3-3.9 6.6-5.8 2.4-2 4.6-4.1 7-6 3-2.4 5.7-5.2 7.6-8.6 0.5-1 1.1-1.8 1.8-2.5 1.9-2.1 0-6.2-3.1-6.1-0.4 0-1.1 0.3-1.2-0.5 0-0.8 0.8-0.7 1.2-0.7 3.3-0.2 5.9 2 5.8 5.8zm-59.2 245.7c0.5 0.1 0.8 0 1.1-0.4 4-4 8.8-6.9 13-10.7 2.3-2 4.2-4.3 5.6-7.1q0.1-0.2 0.2-0.4c0.2 0 0.3-0.1 0.1-0.3 0 0-0.2 0.1-0.3 0.2q-0.1 0.1-0.2 0.2c-1.4 1.5-2.9 3-4.5 4.3-2.6 2.1-5 4.6-7.6 6.8-2.7 2.2-5.1 4.6-7.4 7.4zm-1 1.2c0.2 0.2 0.4 0 0.6-0.2 0-0.1-0.1-0.2-0.1-0.3q-0.3 0.3-0.5 0.5 0 0 0 0zm-0.2 0.9q0 0 0 0c-0.1-0.3 0.6-0.6 0.1-0.9-0.1 0.3-0.5 0.5-0.1 0.9zm-0.8 0.2q0.4-0.1 0.8-0.2c-0.3-0.3-0.6 0.1-0.8 0.2zm-0.2 0.3c0.1 0 0.2 0 0.3-0.1 0.1-0.1-0.1-0.1-0.1-0.2 0 0.2-0.1 0.2-0.2 0.3zm-0.9 1.9c0.6-0.6 1-1.1 0.8-1.9-0.1 0.6-1 0.9-0.8 1.9zm51.9-233.2c2.7-3.3 5.1-6.8 6.6-10.9-3.1 3.1-4.8 7.1-6.6 10.9zm-3.9 0.2c-1 2.7-2.5 5.1-3.9 7.6 3.7-3.4 6.1-7.7 8.4-12.1-1.5 1.6-3.7 2.2-4.5 4.5zm-6.8 7c-0.7 1.7-1.4 3.5-2.3 5.1-1.2 2.2-2.3 4.5-2.7 7q-0.1 0.2-0.2 0.3c-0.6 0.9-1.1 1.7-1.4 2.7q-0.3 0.5-0.5 1c0.6 0.1 0.7-0.4 0.8-0.9 0.8-0.7 1.1-1.7 1.4-2.7q0.1-0.1 0.2-0.2c4-5.2 5.8-11.7 9.2-17.3 0.2-0.2 0.5-0.3 0.2-0.5-0.3-0.2-0.4 0.1-0.5 0.3-1.7 1.5-3.3 3-4.2 5.2zm-8.2 12.3c-0.5 2.7-2.4 4.9-2.9 7.6-0.2 0.1-0.3 0.2-0.1 0.4 0 0 0.2-0.1 0.3-0.2 1.3-1.7 2.2-3.7 3.3-5.6 1.7-3 2.2-6.4 4-9.3 1-1.5 1.5-3.2 2.2-5.3-2 1.4-3.5 2.7-4.2 4.7-0.9 2.6-2.1 5.1-2.6 7.7zm18.5-5.6c-2.9 2.1-6 3.4-8.7 5.4-1.8 1.2-3.9 2-5 4.2 2.3-0.5 4.6-0.6 5.5-3.4 0.3-0.8 1.3-1.8 2.5-1.1 1.1 0.6 0.9 1.7 0.6 2.7-0.2 0.6-0.7 0.7-1.3 0.8-0.6 0.2-1.3 0.1-2 0.5-1.9 1.1-4.1 1.8-6.3 2.3-0.4 0.1-0.9 0.1-1.2 0.5-0.8 1.2-1.9 2.2-2.8 3.3 2.6-0.8 5.2-1.5 7.8-2.5 5.9-2.2 9.2-6.5 10.9-12.7zm-17.4-2.3c-3.2 5.6-5 11.8-7.1 17.8 3.7-5.4 5.2-11.7 7.1-17.8zm12.5 12.7c-4.5 4.4-11 4.3-15.7 7.8 1.5-0.3 2.9-0.6 4.4-0.5 1.1 0.1 1.9-0.1 2.3-1.3 0.5-1.1 1.5-1.2 2.4-0.6 1.1 0.7 1 1.7 0.4 2.7-0.8 1.2-1.9 1.6-2.8 0.9-0.4-0.3-0.7-0.4-1.2-0.5-2.5-0.1-4.9 0.6-7.3 1.2-2 0.5-3.5 1.8-4.7 3.9 3.9-1.2 7.7-1.5 11.4-2.2 3.7-0.6 6.8-2.3 8.2-6.1 0.4-1.1 1-2.1 1.8-2.9 0.5-0.5 0.8-1.3 0.8-2.4zm-21.9 1.2c-2 3.9-3.1 8.2-4.2 12.9 1.4-1.3 2.2-2.5 2.7-4 1.4-3.6 3.2-7 4.4-10.6 1.2-3.2 2.4-6.4 3.6-9.7q-0.2-0.1-0.5-0.2c-3.4 3-4.1 7.7-6 11.6zm-4.1 2.6c-1.3 4.7-3.1 9.3-4 14.2 0.2-0.1 0.5-0.1 0.5-0.2 1-2.1 2.4-4 3-6.3 1.3-5.8 3.6-11.2 6.1-16.6 0.4-0.8 0.7-1.7 1.2-2.8-0.9 0.3-1.3 0.7-1.6 1.1-2.4 3.2-4.1 6.8-5.2 10.6zm9.3-0.4c-0.2-0.1-0.3 0.1-0.4 0.3q-0.1 0.2-0.2 0.3c-0.2 0.3-0.5 0.5-0.5 0.8 0.6 0.1 0.7-0.2 0.8-0.6q0.1-0.2 0.2-0.4c0.1-0.1 0.3-0.2 0.1-0.4zm-2.9 1.9c-0.2-0.2-0.3 0-0.4 0.2-0.6 1-1.2 1.9-1.4 3.1 0.8-0.8 1.3-1.8 1.7-2.9 0.1-0.1 0.3-0.2 0.1-0.4zm-11 3.7c-1.1 4.1-1.6 8.4-2.4 12.6q-0.2 0.2-0.4 0.3c0.2 0.2 0.4 0.1 0.6 0 1.1-1.3 1.4-2.9 1.8-4.5 2-7.3 3.7-14.8 7.2-21.6 0.1-0.2 0.4-0.4 0.1-0.5-0.2-0.2-0.4 0.1-0.5 0.4-3.5 3.8-5.1 8.5-6.4 13.3zm-2.9 18.7q1.8-1.4 3.6-2.8c-1.9 0.4-2.3 0.7-3.6 2.8zm-0.4-9.8c0.1 0 0.3 0 0.4-0.1 1.2-5.9 2.1-12 4.7-17.5-3.3 2.8-4.5 11.1-5.1 17.6zm-5 11c2.8-2.2 3.3-5.5 3.6-8.6q0.5-6.2 1.7-12.3c0.4-2.2 1.1-4.4 1.8-6.6-5.7 8.3-5.4 18.2-7.1 27.5zm1.4-21.8c-1.4 5.1-3 10.2-3.1 15.7-0.1 2.8-0.3 5.7-0.4 8.5 2.4-9.3 2-19.2 6.4-28-1.7 0.8-2.4 2.2-2.9 3.8zm0.5 23.9c0.8-0.6 1.7-1.2 2.3-2.2-1.3 0.3-1.7 1.3-2.3 2.2zm-3.3-22c-2 4-2.8 8.2-2.8 12.6-0.1 3.4 0 6.7 0 10.1 0 1.2-0.2 2.3-0.3 3.6 1-0.7 1-1.6 1.1-2.4 0.2-2.2 0.3-4.5 0.4-6.7 0.1-4.6 0.5-9 1.8-13.4 0.6-2 0.8-4.2 1.6-6.3-1.6 0.4-1.4 1.7-1.8 2.5zm-4.6 27.6c0.1-0.5 0.3-1 0.4-1.5 0.5-3.4 0.2-6.9 0.2-10.4-0.1-4.3 0.1-8.6 1.6-12.7 0.1-0.4 0.4-0.9 0-1.2-0.5-0.2-0.8 0.3-1.1 0.6-0.2 0.2-0.4 0.6-0.5 0.9-0.9 2.3-1.5 4.7-1.8 7.1-0.5 5.8 1 11.4 1.2 17.2zm-1.4-2.1q0.1-0.9 0-1.8c-0.3-3.5-0.9-7-1.1-10.4 0-1.6 0.5-3.2 0.2-4.7 0.3-0.2 0.4-0.5 0.1-0.6-0.3-0.2-0.3 0.2-0.4 0.4-1 5.8-0.9 11.5 1.2 17.1zm-5.1-11.1c0.5 0.3 0.8 0.4 0.8-0.4q-0.2-2.4-0.4-4.8c-2.3 1.5-2.5 3.9-0.4 5.2zm29.5 14.6q-0.1-0.2-0.2-0.4c-4.7 2.7-9.9 4.5-14.5 7.5-5.2 3.5-10.1 7.1-14 12.1-2.2 2.9-4.1 6-5.1 9.6 0.9-0.3 0.9-0.3 1.5-1.3 2.4-3.7 5.1-7 8.2-10.1 3.2-3.4 7-6.3 10.8-9.1 1.4-1 2.8-2 4.3-2.8 3-1.5 5.8-3.3 8.7-5.1 0.1-0.1 0.2-0.3 0.3-0.4zm-26.9-6.7c-1.7 2.3-1.4 3.7 0.8 4.8 0.1-1.7-0.5-3.1-0.8-4.8zm-9.7-3.7c0.2 1.1 1.1 1.3 1.9 1.6 2.4 1 3.1 2.3 2.3 4.7-0.4 1.2 0 1.7 1.1 2.1 2.1 0.6 2.6 1.4 2.1 3.4-0.3 0.9 0 1.3 0.8 1.5 0.4 0.1 0.8 0.3 1.4 0.5-0.6-1.9-0.7-1.9 0-3.6 0.2-0.7-0.2-0.8-0.5-1-1.6-1.3-2-2.8-1.3-4.7 0.2-0.5 0.4-0.8-0.2-1.3-2.1-1.6-2.4-3-1.1-5.4 0.2-0.3 0.7-0.5 0.1-0.9-1.2-0.8-2-1.9-2.3-3.5-1.4 1.6-2.7 3.1-4 4.6-0.6 0.6-0.5 1.3-0.3 2zm9.4 2.3c-0.2-0.8-0.3-1.5-0.5-2.2q-0.3-1.1-0.5-2.3c-1.3 1-1.7 2.1-1.3 3.2 0.4 1 1.1 1.4 2.3 1.3zm-13.3 5.9c1-0.4 2.1-0.3 3.2-0.5 0.9-0.1 1.1 0.5 0.9 1.1-0.4 1.2-0.2 2.3 0 3.5 0.3 2.2 0.3 2.2 2.6 2.1q0.7 0 1.3 0c2.4 0.2 2.8 0.5 2.6 2.9q0 0.9-0.2 1.8c-0.2 0.6 0.1 0.8 0.6 1 1.3 0.5 1.4-0.6 1.7-1.2 1-1.9 0.7-3.4-0.9-3.8-1.8-0.5-2.2-1.7-2-3.3 0.1-1-0.1-1.8-1.1-2.2-2.3-1.1-2.7-2-2-4.5 0.4-1.2 0-1.8-1.3-1.8-1.5 0.1-2.4-0.8-3.2-2.2-1.1 2-2.2 3.7-3.2 5.5-0.1 0.2-0.1 0.6-0.1 0.9 0 0.9 0.3 1.1 1.1 0.7zm39.5 4.3c-3.2 2.4-6.6 3.8-9.7 5.9-4.5 3-8.7 6.2-12.5 10.1-4.8 4.9-9.2 10.2-11.5 16.9-0.5 1.6-1.4 3.1-1.8 4.8 0.9-0.2 1-0.8 1.2-1.3 0.9-2.1 2-4.2 3-6.3 2-3.9 4.9-7 7.4-10.4 2.4-3.1 5.5-5.5 8.7-7.8 4.7-3.3 9.5-6.6 14.2-9.8 0.7-0.5 1-1 1-2.1zm-2.2 6.9c-2.7 2.4-5.5 4.1-8.2 6.2-3.3 2.6-6.3 5.5-9.6 8-5.8 4.5-10 10.2-13 16.8 0.5 0.1 0.7-0.1 0.8-0.3 1.6-2.4 3.2-4.7 5.1-6.8 2.1-2.3 3.9-5 6.4-7.1 5.9-4.8 11.7-9.6 17.6-14.4 0.8-0.7 0.9-1.3 0.9-2.4zm-36.6-4.4c0.4 0 0.8-0.1 1.5-0.2 0.8 0.2 1-0.4 0.8-1.4-0.2-1.2-0.3-2.5-0.4-3.8 0-0.4 0-0.8-0.7-0.8-1.9 0.2-2.9 1.3-2.8 3.2 0 0.5 0.1 1 0 1.4-0.2 1.4 0.6 1.6 1.6 1.6zm-7.3 4.2c0.4 1.4 1.1 2.3 2.7 2.2 0.9 0 1.5 0.5 2.1 1.2 1.1 1.2 0.7 2.3 0.2 3.5-0.6 1.6-0.2 2.1 1.4 2q0.9-0.1 1.7-0.1c1.3-0.1 2.1 0.4 2.2 1.9 0 0.7-0.1 1.4-0.1 2.1-0.1 1.2 1 1 1.7 1.2 0.8 0.4 0.9-0.2 1.1-0.7 1.1-2.6 2.1-5.3 2.4-8.3 0.3-3.6 0.4-3.6-3.3-3.3-0.9 0.1-1.6-0.2-1.7-1.3-0.1-0.8-0.2-1.7-0.3-2.5 0-0.9-0.5-1.1-1.3-1-4.3 0.1-4.1 0.9-4.4-3.9-0.2-1.8-0.1-1.8-1.6-0.9-0.9 0.5-0.8 1.2-0.4 1.8 0.3 1.4-0.2 2.3-1.2 2.1-1.1-0.3-1.3 0.4-1.4 1.1 0 1-0.1 1.9 0.2 2.9zm-1.8-0.1q0 0.1 0.1 0.1 0 0 0.1-0.1-0.1 0-0.2 0zm-1.8 6.3c0.8 0.2 1-0.7 1.4-1 0.3-0.3 0.6-0.6 1-0.4 0.5 0.2 0.4 0.7 0.2 1.1-0.3 1-0.7 2-1.2 3 0.4-0.1 0.7-0.1 0.9-0.2 0.5-0.4 1.1-0.7 1.6-0.2 0.6 0.5 0.1 1.1-0.2 1.6-0.5 1.1-1.1 2.3-1.7 3.6 1.3-0.3 1.9-1.3 2.7-1.8 0.4-0.3 0.8-0.6 1.2-0.3 0.6 0.4 0.4 0.9 0.2 1.4q-0.7 1.5-1.4 2.9c0.6-0.2 0.9-0.6 1.3-0.9 0.4-0.3 0.7-0.8 1.3-0.5 0.5 0.3 0.2 0.8 0.3 1.2 0 1.1-0.7 2-0.8 3.1-0.4 0.2-0.5 0.5-0.5 0.9 0.5-0.1 0.7-0.4 0.7-0.9 0.5-0.1 0.6-0.5 0.8-0.7 0.4-0.3 0.7-0.8 1.3-0.5 0.6 0.3 0.4 0.8 0.3 1.3q-0.3 1.1-0.6 2.3c0.6 0.1 0.8-0.4 1.2-0.6 0.4-0.1 1-0.1 1 0.3-0.2 1.3 0.4 1.5 1.4 1.2 0.2-0.1 0.4 0.3 0.6 0.5q1-2.8 2-5.5c0.3-0.7 0.7-1.5-0.7-1.4-0.6 0-1-0.5-1.4-1.1-0.5-0.8-0.4-1.7-0.4-2.7 0.1-1.8 0-1.9-1.7-1.5-1.3 0.2-2.5 0.3-3.4-1.1-0.7-1.2-0.3-2.3 0.1-3.4 0.4-1.1 0-1.5-1-1.6q-0.6 0-1.3-0.1c-1.4 0-2.4-0.6-2.7-2-0.2-0.7-0.5-1.5-0.8-2.3-0.4 0.8-1.3 1.9-1.1 2.3 0.8 1.6-0.5 2.6-0.6 4zm-3.8 4.8c1 3.4 2.2 6.7 4 9.8 1.7 3.2 3.7 6.3 5.6 9.4 1.4 2.2 2.6 4.6 4.4 6.7 1-3.5 1.1-6.9 1.2-10.6-0.9 0.8-1 1.7-1.5 2.5-0.3 0.6-0.4 1.9-1.4 1.5-0.9-0.3-0.2-1.3-0.1-2 0.3-1.3 0.9-2.6 1.1-4.4-0.9 1.1-1.6 1.9-2.2 2.7-0.2 0.3-0.5 0.7-1 0.4-0.5-0.2-0.4-0.6-0.3-1.1 0.3-0.7 0.5-1.5 0.7-2.3 0.2-1 0.8-1.9 0.9-3.2-0.8 0.9-1.3 1.5-1.9 2.2-0.4 0.4-0.8 0.8-1.4 0.4-0.6-0.3-0.3-0.8-0.2-1.3 0.2-0.6 0.5-1.2 0.7-1.8 0.1-0.6 1-1.3 0.4-1.7-0.7-0.4-1 0.7-1.5 1.1-0.3 0.3-0.5 0.9-1 0.6-0.6-0.3-0.3-0.9-0.1-1.3q0.5-1.6 1-3.1c0.1-0.2 0.2-0.5-0.1-0.6-0.1 0-0.4 0.1-0.5 0.2q-0.9 1-1.7 2c-0.3 0.3-0.6 0.8-1.1 0.5-0.5-0.3-0.4-0.7-0.3-1.2q0.5-1.5 1.1-3c0.1-0.3 0.2-0.5-0.1-0.7-0.2-0.1-0.4 0-0.5 0.2-0.3 0.5-0.7 1.2-1.4 0.7-0.6-0.4-0.2-1.2 0-1.8 0.2-0.8 1-1.5 0.9-2.6-0.7 0.3-1.1 1.5-1.9 0.9-0.9-0.6 0.3-1.6-0.1-2.8-0.7 1.4-2.1 2.5-1.7 3.7zm13.5 59.9c1.1 2.1 2.2 4.2 3 6.5 1.3 3.8 3 7.5 4.9 11.1 0.3 0.6 0.5 1.3 1.2 1.8 0.3-0.9-0.1-1.7-0.2-2.4-0.7-7.7-1-15.4-1.1-23.1 0-2.2-0.9-4.1-1.2-6.3-1 0.7-1.2 1.4-0.9 2.3 0.2 0.4 0.2 0.9 0.2 1.3 0.4 5.5-0.1 11 0.7 16.5 0.1 0.5 0.2 1.2-0.5 1.3-0.6 0.1-0.7-0.5-0.9-1q-1.7-4.4-4-8.5c-0.3-0.5-0.5-1.4-1.1-1.2-0.8 0.3-0.4 1.1-0.1 1.7zm-2.2-23.6c0.1 0.3 0.2 0.7 0.7 0.8 0.3-1.9 0.9-3.6 0-5.5-1.8-3.7-3.9-7.2-5.8-10.8-2.8-5.2-6-10.2-8.1-15.8-0.7 1-0.6 1-0.3 2.1 1.3 5.2 3.8 10 5.9 14.8 2.2 5 5.5 9.4 7.6 14.4zm6.4 14.6c-1.2 1.5-0.3 3.2-0.6 4.9-0.2 0.6 0 1.4-0.7 1.7-0.8 0.3-0.9-0.7-1.4-1-0.1 0-0.2 0-0.6-0.1 1.4 2.6 2.7 5.1 3.9 7.5 0-4.5 0.4-8.9-0.1-13.6-0.3 0.4-0.4 0.5-0.5 0.6zm7.9 17.7c-0.2-1.2-0.8-1.7-1.8-2.2-0.8-0.3-1.1-0.3-1 0.6 0.3 4.1 0.6 8.2 0.9 12.2 0 0.4-0.1 0.9 0.6 1 2 0.2 4 0.6 6 1 0.8 0.2 1.1 0 1.2-0.9 0.3-2.7 0.8-5.4 1.2-8.1 0.1-0.5 0.3-1-0.1-1.5-1.5-2.2-3.1-4.5-4.3-7.3-0.4 1.3-0.5 2.4-1.1 3.1-0.9 1.1-0.5 2-0.1 3.1 0.2 0.6 0.4 1.3 0.6 2 0.1 0.5 0.3 0.9 0.9 1.1 1.2 0.4 1.7 1.3 1.3 2.6-0.3 0.9-0.8 1.7-1.9 1.4-1.1-0.2-1.6-1.3-1.5-2.4 0.3-2-0.6-3.8-0.9-5.7zm-8.5 11.7c0.1 0.2 0.1 0.5 0.2 0.7 0.1 0.6 0.3 0.8 0.9 0.9 0.9 0.3 1.6 0.8 1.4 2-0.3 1.1-1.3 1.4-2.2 1.3-1.2-0.1-1.5-1.2-1.3-2 0.5-1.4-0.4-2.5-0.7-3.8-0.2-0.9-0.8-1.7-0.9-2.6-0.1-0.9-0.7-1.3-1.4-1.8-0.3 4.3 0.5 8.2 1.4 12.2 0.1 0.4 0.2 0.8 0.7 1 1.5 0.5 3 1 4.5 1.5 0.6 0.2 0.9 0.2 1.1-0.5 0.4-1.4 0.7-2.8 1.3-4.1 1-2.1 0.9-4-0.8-5.8-1.7-1.9-2.3-4.6-3.6-6.7-1.7 2.5-2.4 5-0.6 7.7zm-10.8-37.1c-1.2 2.9-1.1 6-2.5 8.9 1.8-0.2 3.4-0.6 5.1-0.9 0.8-0.2 0.8-0.9 0.8-1.4 0-0.7-0.7-0.5-1.1-0.5-1.9 0.1-2.1-0.1-1.8-2.1 0.2-1.3 0.7-2.6-0.5-4zm-6-11.1c-1 3.5-1.8 6.8-2.2 10.5 1.9-0.9 3.7-1.4 5.5-2 0.5-0.1 1.4 0.1 1.2-0.7-0.2-0.6-0.6-1.1-1.6-0.9-3.3 0.7-3.4 0.6-2.4-2.7 0.5-1.4 0.9-2.8-0.5-4.2zm-8-12.3c0.1 0.9 1 0.2 1.6 0.4 0.6 0.1 0.4-0.3 0.4-0.4-0.3-1.1-0.8-2-1.7-1.8-0.9 0.2-0.4 1.3-0.3 1.8zm0.1 9c-0.1 0 0.1 0.1 0.2 0.2 0.6-0.2 0.5-0.8 0.6-1.3 0.3-1.6 0.6-3.3 0.9-4.9 0-0.5 0.4-1-0.1-1.4-0.4-0.3-0.8-0.1-1.3 0-0.7 0.2-0.5 0.7-0.5 1.2 0 2.1 0.6 4.1 0.2 6.2zm1 4.5c0.3 0.2 0.5-0.1 0.8-0.2 1.5-0.7 2.8-1.8 4.4-2.2 0.4-0.1 1-0.2 0.7-0.9-0.2-0.5-0.5-1-1.2-0.8q-0.4 0.2-0.9 0.2c-2 0.4-2.1 0.2-1.8-1.8 0.2-1.4 1.3-3-0.2-4.5-0.5 3.2-1.1 6.2-1.9 9.2-0.1 0.4-0.2 0.8 0.1 1zm3.5 9.2c0.5-3.6 1.2-6.9 2.1-10.4-2 0.5-3.4 1.7-5.2 2.2-0.7 0.3-0.7 1-0.4 1.8 0.4 0.6 0.7 1 1.5 0.6 0.3-0.2 0.6-0.3 0.9-0.4 0.3-0.2 0.7-0.2 1 0 0.4 0.3 0.2 0.6 0.1 0.9-0.5 0.9-0.3 2-0.8 2.8-0.4 1-0.1 1.6 0.8 2.5zm5.3 9.9c1.8-3.4 1.9-7.1 3.1-10.7-2.9 0.1-5.2 1.8-7.9 2.1 0.6 1.6 0.6 1.6 2.2 1.3 1.8-0.5 1.8-0.5 1.9 1.4 0 0.8 0.1 1.6-0.2 2.3-0.5 1.5 0 2.6 0.9 3.6zm-1.2 8.9c-2 0.4-3.3 2.2-2.8 3.9 0.4 1.8 1.8 2.6 3.6 2.2 1.9-0.4 3.1-1.9 2.7-3.2-0.5-2-2-3.2-3.5-2.9zm-4.8-3.6c0.2 1.1 1.1 1.3 2 1.2 0.8-0.2 1.3-0.8 1.2-1.6 0-0.8-1.4-1.6-2.2-1.4-0.8 0.3-1.1 0.9-1 1.8zm-7.5-10.7c0.2 0.9 0.7 1.7 1.7 1.3 0.7-0.2 1.7-0.6 1.5-1.8-0.2-0.9-1.4-1.6-2.4-1.4-0.9 0.4-1 1-0.8 1.9zm0 8.6c0.5 2.3 1.9 3.4 3.8 3 1.8-0.4 2.3-1.3 1.9-3-0.6-2.3-2.1-3.5-3.7-3.1-1.5 0.4-2.4 1.7-2 3.1zm4.5 5.5c-1.5 0.3-2.3 1.5-2 2.9 0.4 1.6 1.3 2.2 2.8 1.9q2.6-0.6 2.2-2.8c-0.3-1.4-1.6-2.2-3-2zm0.9 9.1c-0.2-1-1.6-1.8-2.6-1.5q-1.8 0.4-1.3 2.2c0.2 1.1 0.9 1.8 2.1 1.6 1.1-0.1 2-1.4 1.8-2.3zm5.6 6.7c1.5-0.4 2.9-2.5 2.5-4-0.4-1.8-2.3-3.3-3.8-2.9-1.7 0.4-3 2.5-2.6 4.2 0.5 1.8 2.3 3.1 3.9 2.7zm1.6 15.8c3.1 4.3 6.4 8.5 10.2 12.3-2.7-4.7-6.6-8.4-10.2-12.3zm7.3-4.5c-0.2-0.9-0.8-1.1-1.6-1-1 0.3-1 0.9-0.9 1.8 0.2 0.9 0.8 1.2 1.6 1.1 1-0.2 1.1-1 0.9-1.9zm2.1 12.6c-0.2 0.2-0.1 0.3 0 0.5 0 0 0.1 0 0.1 0q0-0.2-0.1-0.5zm-2.5-2.3c1 0.6 1.1 2 2.5 2.3q-1.1-1.3-2.1-2.6-0.2 0.1-0.4 0.3zm-7.9 30.7c-0.1 0.4 0 0.9-0.1 1.3-0.5 1.6 0.9 2 1.9 2.6 0.5 0.3 0.8 0.1 0.8-0.7 0-2.1 0.3-4.3 0.7-6.4 0.2-0.7 0-0.9-0.7-1.1-2.1-0.8-4.3-0.3-6.7-0.2-1-0.2-0.7 0.6-0.4 1.3 0.7 2.1 0.9 2.4 3.3 2 1.2-0.2 1.4 0.2 1.2 1.2zm4.7 4.9c0.6 0.1 1.2 0.6 1.7-0.4 0.8-1.9 1.2-1.9 2.5-0.3 0.2 0.2 0.3 0.4 0.5 0.5 0.4 0.3 0.8 0.1 1.1 0 0.4-0.2 0.3-0.5 0.1-0.8-1.5-2.3-2.1-5-3.6-7.6-0.9 2.6-1.7 5.1-2.6 7.5-0.1 0.4-0.7 0.9 0.3 1.1zm12.8 19.4c-6.4-7.5-13.6-14.1-20.7-20.8 6 7.8 13.5 14 20.7 20.8zm-2.2-11.2c-1-2.2-2-4.4-3-6.6-0.2-0.3-2.3 0.1-2.5 0.5-0.1 0.2-0.1 0.3 0.1 0.5 2 1.6 3.5 3.7 5.4 5.6zm-3.8-21.9c-0.5-2.3-3.4-4.5-5.4-4.1-2.4 0.6-4.2 2.9-3.5 4.9 0.6 1.8 2.6 3.7 5.3 3.1 2.3-0.5 3.9-2.3 3.6-3.9zm-1-11.5c0.1-0.4 0.4-0.8-0.2-0.9-0.4-0.1-0.9-0.6-1.3 0q-0.3 0.5-0.6 0.9c-1 1.2-1.4 1.2-2.2-0.1-0.7-1.2-1.5-1.6-2.8-0.8 1.2 1.8 1.9 3.8 3.2 5.5 0.5 0.5 0.7 0.5 1.1 0q2-2 2.8-4.6zm-1.8-4.8c-1-0.8-1.6-2-2.8-2.7 1.1 2.8 1.3 3.1 2.8 2.7zm-12.7-14.2c1 2.1 2 4.1 3.1 6 1.3 2.2 2.6 4.4 3.6 6.7 0.9 2 0.9 2 3.2 1.4-2.8-5.1-5.5-10.2-9.9-14.1zm2.3 0.3q0 0.1 0 0.1 0 0 0.1 0-0.1-0.1-0.1-0.2 0 0.1 0 0.1zm-0.5-0.6h0.1v-0.1zm-0.7-0.6q0.1 0.1 0.2 0.2c0 0 0.1-0.1 0.2-0.2q-0.2-0.1-0.4-0.2c0 0.1 0 0.1 0 0.2zm-0.7-0.7q0.1 0.1 0.2 0.1 0-0.1 0-0.2-0.1 0.1-0.2 0.1zm3.9 4.2c0.2 0.1 0.3 0 0.4 0 0-0.1 0-0.2-0.1-0.2-0.1-0.1-0.3-0.1-0.3 0-0.2 0.1-0.1 0.2 0 0.2zm-4.8-0.2q1.6 6.4 4.1 12.5c0.4 1.2 1.3 0.2 2 0.1 0.7 0 0.5-0.4 0.3-1-0.9-2.3-2.1-4.5-3.5-6.6-1-1.6-1.6-3.6-2.9-5zm2 14.7c0.7-0.8 1.5-0.8 1.2-1.8q-1.1-2.5-2.1-5c0.2 2.2 0.9 4.2 0.9 6.8zm-0.6 4.4c-0.4 0.5 0.1 0.7 0.4 0.9 1.8 1.6 4 2.3 6.2 3.2-0.5-2.3-1-4.4-1.4-6.5-0.1-0.3-0.1-0.8-0.6-0.7-0.4 0.2-0.9 0.2-1 0.8 0 0.8 0.9 1.9 0.1 2.4-0.7 0.4-1.6-0.6-2.4-0.8q-0.1 0-0.2-0.1c-0.6-0.1-0.8 0.4-1.1 0.8zm-3.1-16.6c0.2 1.8 0.5 4.4 0.7 6.9q0.2 3.8-0.1 7.7c2-0.6 2.3-2 1.9-3.6-0.9-3.9-1.7-7.8-2.5-11zm-2.7-7.3c1.8 8.4 0.6 16.9 1.1 25.4 0.4-0.7 1.1-1.3 1.1-2.1-0.1-2.4 0.3-4.9 0.1-7.3-0.2-4-0.7-7.9-1.1-11.8-0.2-1.4-0.5-2.9-1.2-4.2zm-0.6 6.9c-0.3 3.3-0.6 6.5 0.1 9.7 0.3-3.2 0.5-6.4-0.1-9.7zm-1.9 5.9c0.6-4.7 1.1-9.3-0.6-13.8 0.3 2.3-0.1 4.7-0.1 7 0.1 2.3 0.5 4.5 0.7 6.8zm0.7 5.5c-0.2 1.4 0.1 2.5 0.5 3.6 0.1-1.2 0-2.3-0.5-3.6zm6.2 25.3v0.1h0.1zm0.5 0.9q0-0.1 0-0.3-0.1 0-0.2 0.1 0.1 0.1 0.2 0.2zm0.3 0.1q-0.1 0-0.2 0 0.1 0.1 0.2 0.1 0 0 0-0.1zm-0.9-9c1.9-0.5 3.5-1.5 5.2-2.1 0.6-0.2 0.5-0.5 0.2-1q-2.3-3.2-4.6-6.4c-0.3-0.4-0.6-0.7-1 0-0.3 0.9-0.9 1.7-1 2.6 0 0.6 1 0.8 1.5 1.4 0.1 0.2 0.4 0.4 0.6 0.6 0.9 0.6 0.7 1.2-0.1 1.7-0.5 0.2-0.9 0.4-1.4 0.5-1.6 0.4-0.6 1.4-0.5 2.2 0 1 0.7 0.6 1.1 0.5zm20.6 31.6v0.1q0 0 0 0zm-0.2-0.5c-3-2.4-6.5-2.5-10.1-1.6 3.6-0.2 7.2-0.2 10.3 2.1 0-0.2 0-0.4-0.2-0.5zm2.3-2.8c-3.9-5.1-7.6-10.3-13.2-13.8-0.9-0.6-1.5-1.8-2.7-2q0 0 0 0 0 0 0 0-0.1 0-0.1 0 0 0.1-0.1 0.2 0 0 0.1 0c-0.1 0.3 0.2 0.5 0.5 0.7q6.3 5.9 12.2 12.1c1.1 1.2 2.1 2.3 3.2 3.5q0.2-0.5 0.1-0.7zm-12.4-14.7c3.8 2.2 6.6 5.4 9.3 9 0.2-0.8 0.1-1-0.2-1.3-1.6-2.4-3.4-4.5-5.3-6.7-1.1-1.2-2.3-1.3-3.8-1zm11 4.4c-0.8-1.5-0.9-3.1-1.4-4.7q-0.2-0.8-0.5-1.5c-0.2-0.6-0.6-0.3-1-0.2-0.2 0-0.6 0.1-0.4 0.5 0.8 2.3 1.8 4.5 3 6.6 0.4-0.3 0.4-0.5 0.3-0.7zm1.9 0.4c-0.7-2.5-1-5-1.9-7.4-0.2-0.3 0-0.8-0.6-0.6-0.5 0.2-0.5 0.6-0.3 1 0.8 2.5 1.8 5 2.4 7.6 0.3-0.2 0.4-0.3 0.4-0.6zm-1.9-15.2c0.2-1.5-0.9-1.7-2-1.6-1 0.1-1.9 0.1-2.8-0.1-0.8-0.2-0.9 0.2-0.8 0.8q0.6 3.4 1.2 6.9c0 0.3 0.1 0.6 0.5 0.5 1.1-0.1 2.2-1.5 2.1-2.6-0.1-0.5-0.2-1.1-0.2-1.6 0-0.7 0.4-1.1 1-0.9 1.8 0.8 1.3-0.4 1-1.4zm-1.9-9.2c-0.7 0.7-1.4 1.3-2 2-0.6 0.6-0.5 1.3 0.3 1.8 0.8 0.4 1.8 0.8 2.9 1.2-0.4-1.7-0.8-3.3-1.2-5zm-0.9-4.9c-0.3-0.3-0.5-0.6-0.4-1 0.5-1.2 0-1.9-1.2-2.3-0.7 2.2-0.7 4.6-1 6.9 0.7 0 1.2-0.3 1.7-0.5 1.6-0.7 1.9-1.6 0.9-3.1zm-6.6-31.2c-0.4-2-2.5-3.5-4.1-3.2-1.7 0.5-2.9 2.4-2.5 4.1 0.5 2.2 2.1 3.3 4.1 2.9 1.9-0.3 2.9-1.8 2.5-3.8zm19.2 76.8c0.1-1.7 1.3-2.8 1.6-4.5-1.5 1.3-2.1 3-1.6 4.5zm-18.5-86c-0.2-1.3-1.4-2.2-2.6-1.9-0.9 0.2-1.5 0.7-1.3 1.8 0.3 1.5 1.2 2.3 2.3 2.2 1.2-0.2 1.8-0.8 1.6-2.1zm-2.9-15.2c2.2-0.1 2.5 0.1 1.8 2.2-0.7 2.5 0.2 4.4 1.5 6.3-0.1-4-0.1-8.1 0.4-12.1 0.1-0.4 0-0.9-0.5-0.7-1.8 0.6-3.7 0.4-5.4 1.1-0.2 0-0.5 0-0.5 0.4-0.1 0.7 1.9 2.9 2.7 2.8zm30.9 40.1c-0.5 1.9-1.4 3.6-0.3 5.4 0.2 0.4 0.3 0.8 0.5 1.2 0 0.2-0.1 0.6 0.3 0.6 0.2-0.1 0.4-0.3 0.5-0.5 0.2-0.3 0.4-0.7 0.3-1.2-0.5-1.8-0.9-3.6-1.3-5.5zm-0.1 10.6c-0.1 0.4-0.2 0.9 0.6 0.8 3.8-0.8 3.9-1 2-4.4-1.2 1.1-2.3 2.1-2.6 3.6zm1.7-6c-0.1 0.5 0.5 1.1 0.9 1 0.5-0.1 1.4-0.2 1.1-1.2-0.4-1.5-0.5-3-0.7-4.6-0.4-0.3 0.3-1.4-1.1-1.1-1.2 0.2-1.1 0.7-1 1.6 0.3 1.5 1.1 2.8 0.8 4.3zm6.1-37.4c-0.5 2-1.1 3.9-1.6 5.8-0.3 1.3-0.8 2.1-2.4 1.9-1.6-0.1-3.3-0.3-4.9-0.5-0.8-0.2-1.2-0.1-1.3 0.9-0.4 3.1-0.9 6.1-1.3 9.1-0.1 1.1-0.6 1.5-1.7 1.3-1.8-0.3-3.7-0.3-5.4-0.9-0.7-0.2-1.1-0.2-1.4 0.7-0.6 2.4-1.5 4.8-2.2 7.2-0.6 1.8-0.8 1.9-2.7 1.4-1.4-0.5-2.7-1-4.3-1.6 0.3 1-0.2 2.3 0.7 2.5 2.1 0.6 4 1.8 6.1 2.4 0.7 0.2 1 0.2 1.1-0.6 0.4-2.3 1.6-4.4 1.8-6.7 0.2-1.5 1-2.1 2.5-2q2.7 0.2 5.5 0.4c1.2 0 1.4-0.4 1.5-1.4 0.5-2.5 1-5.1 1.3-7.7 0.3-1.5 1-2 2.5-1.8 1.4 0.1 2.8 0.1 4.2 0.2 0.5 0 0.8 0 1.1-0.5 1.4-3 2.1-6 1.5-9.3 0-0.3 0-0.7-0.6-0.8zm-4.9 11.7q-0.1 0-0.2-0.1 0 0.1 0.1 0.2 0 0 0.1-0.1zm2 2.6c1.2-2.2 1.2-2.2-1.1-2.5q-0.4 0-0.8 0c0.3 1 1.4 1.5 1.9 2.5zm0.9 22.6c-0.4-2.9-1-5.9-1.4-8.8-0.1-1.1-0.6-1.3-1.8-1 0.7 0.8 0.8 1.5 0.7 2.3-0.2 2.7 0.6 5.2 1.3 7.8 0.2 0.5 0.5 0.5 0.9 0.5 0.6-0.1 0.4-0.5 0.3-0.8zm0.8 4.7c-0.1 0.4-0.4 0.7-0.1 1.2 1.3 0 2.4-0.9 3.7-1 0.6 0 0.4-0.5 0.1-0.7-0.8-0.7-1.4-1.9-2.5-1.7-0.7 0.2-0.9 1.4-1.2 2.2zm-0.1-17c-0.1 1.1-1.4 1.6-1.5 2.5-0.1 1 0.4 2.1 0.6 3.2 0 0.3 0 0.6 0.1 0.9 0.4 2 0.8 4 1.2 6 0.2 0.8 0.8 1 1.3 0.9 0.6 0 0.4-0.6 0.4-1q-1-6.3-2.1-12.5zm-6.1 1q-0.2 0.1-0.3 0.2c0.1 0.1 0.2 0.2 0.2 0.2 0.1-0.1 0.2-0.2 0.3-0.2-0.1-0.1-0.2-0.2-0.2-0.2zm-0.9-8.4c0.2 2.1-2 4.2 0.3 6.3 0.4-0.9 0.7-1.6 1.1-2.4 1.1-1.9 0.9-2.5-1.4-3.9zm5.5 26.5c-1.7 0.6-3 1.1-4.3 1.6-0.9 0.4-0.5 1.1-0.2 1.5 0.4 0.6 0.7 1.5 1.7 1.5 0 0 0.1-0.1 0.2-0.2 0.8-1.4 1.8-2.6 2.6-4.4zm-1 3.9c-0.2 0.3-0.8 0.8-0.4 1.1 0.7 0.5 1.6 0.4 2.4 0.3 0.5-0.1 0.4-0.7 0.4-1.2q-0.3-1.3-0.6-2.7c-0.7 0.9-1.2 1.7-1.8 2.5zm-14 16.5c-0.8-0.3-1.2-0.5-1.8-0.6-0.3-0.1-0.8-0.6-1.1-0.1-0.3 0.5-0.4 1.1-0.1 1.6 0.4 0.5 0.8-0.1 1.1-0.3 0.6-0.2 1.1-0.3 1.9-0.6zm-0.5 5c0.1-1.4-0.1-2.6 0.2-3.9-2.6 1.2-2.7 2.1-0.2 3.9zm-4.9-12.4c0.4 2.1 0.9 4.1 1.4 6.3 0-2.3-0.7-4.3-0.6-6.3 0-0.4-0.2-0.8-0.6-0.7-0.5 0.1-0.3 0.5-0.2 0.7zm-0.2-7q-0.5-0.3-1-0.1c-0.3 0.2-0.2 0.5-0.2 0.8 0.2 1.1 0.5 2.2 0.8 3.6 0.5-0.7 0.8-1.1 1-1.4 0.7-0.9 0.4-2.4-0.6-2.9zm1.8 6.4c-0.3 0-0.3 0.2-0.3 0.4 0.2 1.3 0.4 2.6 0.6 4.2 0.7-1.2 0.7-3.9 0.2-4.5q-0.2-0.2-0.5-0.1zm3.8 7.1c0.1-0.8-0.3-1.3-0.5-2-0.2-0.4-0.3-1.1-0.8-1.2-0.6 0-0.7 0.7-1 1.2-0.3 0.5-0.3 0.9 0.5 1.1 0.6 0.2 1.2 0.6 1.8 0.9zm-2-4.8c0.1 0.1 0.3 0.2 0.4 0.2 0.2-0.1 0.3-0.4 0.3-0.6q-0.4-1.5-0.7-3c-0.9 1.2-0.1 2.3 0 3.4zm-1.6-13.3c0.6 0.6 1.2 1.3 1.7 2.2 0.2-1.1 1.6-1.5 1.2-2.7-0.6-2.2-4.2-3.7-6.3-2.7-0.8 0.4-1.1 0.8-0.8 1.7 0.3 0.9 0.7 1 1.5 0.7 1-0.3 1.9 0.1 2.7 0.8zm6.5 11.7c-0.5-2.2-1-4.4-1.5-6.7-0.2 0.5-0.8 0.8-0.6 1.6 0.5 1.7 0.8 3.5 1.2 5.2 0.1 0.4 0.2 0.9 0.7 0.7 0.6-0.1 0.2-0.5 0.2-0.8zm-2.9-4.2c-0.1-0.4 0.1-1-0.6-0.6-0.3 0.1-1.2-0.1-0.9 0.8 0.4 1.4 0.4 2.9 1 4.3 0.2 0.4 0.3 0.7 0.9 0.6 0.7-0.2 0.5-0.7 0.4-1.1q-0.2-1-0.4-2 0 0 0 0-0.2-1-0.4-2zm-0.1 7.1c0.3 0.9 0.5 1.9 1.2 2.9 0.4-1.1 0.8-2 1.1-2.9 0.1-0.3 0.3-0.7-0.1-0.9-0.6-0.3-1.2-0.1-1.8 0.1-0.4 0.2-0.6 0.3-0.4 0.8zm1.9 4.9c0.3 1.5 1.1 2.5 1.6 3.6q0.2 0.4 0.6 0.2c0.5-0.2 1.1-0.5 1.2-1.1 0-0.5-0.1-1.1-0.7-1.4-0.8-0.4-1.6-0.8-2.7-1.3zm0.6-1.6c0.8-0.3 1.6-0.6 2.3-0.9 0.5-0.2 1.1-0.4 0.7-1.1-0.4-0.7-0.9-1.4-1.7-1.7-0.1 0-0.3 0.2-0.3 0.3-0.2 1.2-1.1 2.1-1 3.4zm0.8-15.9c-0.1-0.4-0.7-0.1-1.1-0.1-0.5 0.1-0.4 0.4-0.3 0.6 0.9 1.6 0.9 3.4 1.6 5.3 1.2-2.2-0.1-3.9-0.2-5.8zm1.5 8.8c0.8-0.4 1.6-0.9 2.6-1.5-1-0.5-1.8-0.8-2.6-1.1-0.5 1.5-0.5 1.5 0 2.6zm3.6-2.1c-0.3-1.5-0.6-2.7-0.9-4.1-0.4 0.3-0.8 0.5-1.2 0.6-1 0.3-1.4 1.7-0.7 2 0.9 0.6 1.8 1 2.8 1.5zm-3.9-8.8c-0.7 1.7 0.1 3.1 0.3 4.8 0.8-0.4 1.2-0.8 1.1-1.5-0.4-2.1-0.7-4.2-1.1-6.3-0.1-0.7-0.5-0.7-1.5-0.6 1.2 1.1 1.7 2.5 1.2 3.6zm2.2 2.3c0.2 0.4-0.1 1.2 0.8 1 0.7-0.1 1-0.7 0.8-1.4q-0.3-1.5-0.6-2.9 0 0 0 0-0.2-1.2-0.4-2.5c0-0.3-0.1-1-0.5-0.7-0.4 0.3-1.5 0.3-1.1 1.2 0.7 1.7 0.5 3.5 1 5.3zm2.4 12.2c0.6-0.1 1.3-0.2 1.9-0.3 0.3-0.1 0.7-0.3 0.3-0.9-0.7-1-1.5-1.9-2.6-3 0 1.4 0 2.6-0.1 3.7 0 0.3 0.2 0.5 0.5 0.5zm0.2-6.2c1.2-0.9 1.9-2.2 3.1-2.9-0.4-0.8-1.2-1.1-1.9-1.3-1.4-0.4-1.9 0-1.6 1.4 0.1 0.9 0.3 1.8 0.4 2.8zm-0.5-15.6c-0.1-1.2-0.7-1.5-1.8-1.2 0.5 2.3 1 4.6 1.8 6.9 0.1-0.2 0.2-0.3 0.3-0.4 0.9-1.8-0.1-3.5-0.3-5.3zm1.5 16.2c1 0.3 2 0.2 2.9 0.1 0.3 0 0.9 0.1 0.8-0.3-0.1-0.7-0.3-1.4-0.7-2-0.3-0.4-0.8-0.1-1 0.2-0.7 0.6-1.3 1.3-2 2zm-3.3-25.1c-0.4-2.5-4.1-5.1-6.7-5.1-0.4 0-0.9-0.1-0.9 0.5 0 1-0.9 1.9-0.4 2.9 0 0.1 0.2 0.2 0.4 0.2 3 0.1 5 1.7 6.3 4.5 0.6-1.1 1.5-1.9 1.3-3zm-16.3 4.6c-1.3 0.7-0.4 1.5-0.3 2.3 0.2 1 0.9 0.4 1.4 0.2 3.6-1.2 7.9 0.1 10 3.4 0.3-1.3 1.7-2 0.8-3.3-2.1-3.4-8.4-4.7-11.9-2.6zm6.3 34.8c0.1 4.1 1.4 8.1 2.4 12.1-0.6-4.1-0.9-8.2-2.4-12.1zm1.5 1.7c0 1.1 0.6 1.8 0.6 2.8 0.2 1.8 0.6 3.6 0.9 5.4 0.1 0.5 0.1 0.9 0.9 0.7 0.6-0.1 0.6-0.4 0.5-0.9-0.2-1.2-0.3-2.4-0.5-3.6-0.4-1.6-0.4-3.4-2.4-4.4zm3 0.9c-0.4 0-0.6 0.1-0.4 0.6 0.4 1.2 0.8 2.4 1.2 3.7 0.2-0.2 0.4-0.4 0.4-0.5 0.4-1.2-0.3-2.4-0.2-3.6 0-0.7-0.6-0.2-1-0.2zm0.6-2.6c-0.2-0.8-0.7-1.6-1.2-2.5-0.7 1.1-0.2 2-0.1 2.9 0 0.4 0.5 1 1 0.8 0.6-0.1 0.5-0.8 0.3-1.2zm2.4 2c0-0.4-0.2-0.5-0.7-0.3-1.5 0.5-0.3 1.6-0.5 2.2 0.2 0.6 0.3 1.1 0.4 1.6 0.1 0.3 0.4 0.3 0.7 0.3 0.5 0.1 0.4-0.3 0.4-0.6q-0.1-1.6-0.3-3.2zm1.7-1.8c-0.9 0.5-1.5 1.2-0.6 2.2 1-0.5 1-1.3 0.6-2.2zm0-2.9c0.2-0.9 0.3-1.9-0.2-2.5-0.3-0.4-1.2 0.3-1.8 0.5-0.3 0.1-0.6 0.2-1.2 0.4 1.2 0.6 2.2 1.1 3.2 1.6zm1.4-0.6c-0.4 1.4-1 2.7-0.4 4.1 0.3 0.5 0.6 0.5 1 0.4 0.4 0 0.3-0.4 0.3-0.6-0.2-1.3-0.4-2.6-0.9-3.9zm-1-5.7c0.5 0.3 0.9 0.5 0.9-0.4 0-1 0.1-2.1 0.2-3.5-0.6 0.4-0.9 0.7-1.2 0.9-1.6 1.1-1.6 2 0.1 3zm3.1 2.1c-0.6-1.5-1.6-0.2-2.6-0.8 1.3 1.9 1.5 3.8 2 5.7 1.4-0.9 1.5-2.4 0.6-4.9zm1.3-0.9c-0.7 0.1-0.8 0.6-0.5 1.2q0.6 1.3 0.9 2.7c0 0.3 0.2 0.6 0.6 0.5 0.4-0.1 0.4-0.3 0.3-0.6 0-1-0.1-2-0.1-3 0-0.9-0.6-0.8-1.2-0.8zm3.3-0.6c-0.1-0.2-0.2-0.7-0.5-0.5-0.4 0.3-1 0.4-0.9 1.1 0.1 0.2 0 0.6 0.5 0.4 0.4-0.2 1-0.2 0.9-1zm-0.5-3.3c0.5-1 0.3-1.6-1-1.5-0.9 0-1.7-0.1-2.8-0.1 0.6 0.8 1.1 1.4 1.6 2 0.4 0.4 0.5 1.1 1.2 1 0.7-0.2 0.7-0.9 1-1.4zm2.3 3c-0.2-1.2-0.4-2.4-0.6-3.7-0.6 0.4-0.4 1.1-0.7 1.5-0.8 1 0.1 1.8 0.4 2.6 0.1 0.4 0.5 0.4 0.8 0.3 0.4 0 0.2-0.4 0.1-0.7zm0.8-9.2c-0.1-0.2-1-0.2-1.5-0.1-0.3 0-0.2 0.3-0.1 0.5 0.7 1.9 0.8 3.9 1.4 6 0.5-0.6 1.2-0.9 1.1-1.7-0.1-1.6-0.2-3.2-0.9-4.7zm-1.5-8.5c0.3-0.7 0.4-1.3 0.7-1.7 0.9-1.3 0-1.3-0.9-1.3-1.3 0.1-1.4 0.3-0.7 1.5 0.3 0.4 0.5 0.9 0.9 1.5zm1 2.7c0.8 1.4 0.8 2.8 1.3 4.1 0.8-0.3 1.3-1 2-1.4q0.6-0.4-0.1-0.9c-0.9-0.7-1.8-1.4-3.2-1.8zm2.3 4.9c-0.5 0.2-1 0.3-0.7 1 0.5 1 0.6 2.1 0.7 3 0.1 0.3 0.1 0.4 0.1 0.6 0.1 0.4 0.2 1 0.8 0.9 0.6-0.1 0.3-0.7 0.2-1-0.1-1.3-0.2-2.6-0.4-3.9-0.1-0.4-0.1-0.9-0.7-0.6zm2.7-2.1c-0.7 0.6-1.7 0.8-1.4 1.6 0.5 1.4 0.7 2.8 1 4.2 0.7-1.8 0.6-3.6 0.4-5.8zm-1.3-4.3c-0.7 0.2-1.4 0.4-2.5 0.7 0.8 0.5 1.4 0.8 1.9 1.2 0.5 0.2 1 1 1.5 0.7 0.6-0.3 0.1-1.2 0.2-1.8 0.1-0.7-0.4-0.9-1.1-0.8zm-2.3-20.1c-0.7 0.1-0.7 0.4-0.6 0.9 1.3 4.8 2 9.7 2.6 14.6 0.1 0.7 0.4 1.1 1.4 1.5-0.8-6-0.1-12-1.7-17.9-0.5 0.5-1.1 0.9-1.7 0.9zm-7 2.1c-0.2 0.1-0.4 0.2-0.1 0.4 0 0 0.2-0.1 0.3-0.1 1.8-2.3 3.2-4.9 4.6-7.4 0.3-0.3 0.5-0.5 0.7-0.7 0.4-0.6 1.3-1.5 0.9-1.8-0.7-0.5-0.9 0.8-1.4 1.2-0.2 0.2-0.2 0.4-0.3 0.6-1.8 2.5-3.3 5.1-4.7 7.8zm6.6-44c0.3 1.5 0.6 2.9 1 4.6 0.6-3 0.3-4.1-1-4.6zm1.7-21c-0.1 2.6-0.4 5.2-0.9 7.7 0 0.4-0.1 0.8-0.4 0.9-0.5 0.1-0.7-0.4-0.8-0.7-0.5-1.6-1-3.1-1.7-4.6-0.1-0.3 0.1-0.9-0.5-0.8-0.5 0.2-0.8 0.5-0.6 1.2 0.3 1.5 0.7 3.1 0.8 4.7 0.1 0.6 0.4 1.3 0.9 1.7 0.9 0.8 1.7 1.7 2.6 2.7 0-4.6 0.9-9.2 1.2-13.9-0.7 0.2-0.6 0.7-0.6 1.1zm2.1-20.5c-2 1.6-4.2 2.9-6.1 4.6-9.9 6.4-16.2 15.7-18.1 18.7-2.2 3.2-4.4 7.6-5.4 10 1.2-1 2.2-1.6 2.6-2.7 0.5-1.7 1.5-3.1 2.3-4.6 0.7-1.2 1.5-2.3 2.2-3.5 1.1-1.3 2.7-3.5 5.4-6.8 5.9-7.6 13.2-11.3 15.5-12.4q0.4-0.1 0.7-0.3 0 0 0 0c0.9-0.5 1.1-1.5 0.9-3zm-13.9 40.9c2.1 2.9 4.4 5.7 5.7 9 1.2 2.7 3.3 4.6 4.9 7.3 0.2-0.8 0.5-1.3 0.4-1.7-1.1-10.5-3.2-20.7-5.4-31-0.6 0.3-1.1 0.5-0.8 1.4 0.8 2.8 1.2 5.7 1.6 8.5 0.6 4 0.5 8 1.3 11.9 0.2 0.6 0.1 1.2-0.5 1.5-0.6 0.3-0.9-0.4-1.2-0.8-2.2-3.8-4.4-7.5-5.8-11.7-0.6-1.6-1.1-3.2-1.1-5-1.6 0.7-2.2 1.6-1.6 3.2 0.4 1 0.6 2.1 0.6 3.2 0.1 1.6 0.9 2.9 1.9 4.2zm0-10.1c0.9 3.5 2.1 7 4 10.2 0.7 1.3 1.2 2.6 2.2 3.9-0.7-6.4-0.6-12.8-2.8-18.8-0.4 0.6-0.1 1-0.1 1.5 0.4 1.7 0.7 3.5 0.6 5.3 0 0.4-0.1 1-0.7 1.1-0.6 0.1-0.7-0.5-0.8-0.9-0.4-1.3-0.8-2.6-1.3-3.9-0.1-0.3-0.1-0.9-0.6-0.7-0.4 0.2-0.8 0.4-0.8 1 0 0.4 0.1 0.8 0.3 1.3zm-1.1 21.6c0.6 4.6 1.1 9 1.6 13.3 0.1 0.5 0.3 0.7 0.7 0.7 1.8 0.2 3.6 0.3 5.3 0.6 0.9 0.2 1.2-0.3 1.4-1 0.6-2.2 1.1-4.6 2-6.8 0.2-0.5 0-0.9-0.2-1.3-1.6-2.4-3.5-4.3-5-7-0.3 1-0.3 1.8-0.6 2.5-0.5 1.1 0.7 4.2 1.7 4.8 1 0.5 1.6 2 1 2.9-0.4 0.6-1 1.4-2 1-1-0.4-1.5-2.1-1.1-3.1 0.4-1-0.5-4.2-1.5-4.7-1-0.5-2.1-1-3.3-1.9zm-3.1-4.7c0.1 2.4 0.2 4.8 0.5 7.2 0.1 0.4 0.1 1-0.5 1.1-0.4 0.1-0.6-0.2-0.7-0.5-1.5-4-4.3-7.4-5.3-11.5-0.2-1-0.6-1.8-1-2.9-1.6 1.7-0.9 3.5-0.3 4.9 2.6 5.8 5.9 11.2 8.9 16.7 0.5 0.8 0.8 1.7 1.8 2.3-0.1-0.9-0.1-1.6-0.2-2.3-0.9-6.5-1.9-13.1-1.5-19.8 0.2-3.4-0.6-6.6-1.8-9.9-0.4 0.6-1.2 0.7-0.9 1.7 0.6 2.6 1 5.2 0.9 7.9-0.1 1.7 0.1 3.4 0.1 5.1zm-6-6c0.3 0.5 0.4 1 0.6 1.5 1.1 2.7 2.5 5.2 4 8.1 0.7-2.9 0.1-13.5-0.9-15.7-0.6 0.4-0.6 1-0.5 1.7 0.2 1.6 0.5 3.3 0.2 5 0 0.4-0.1 0.7-0.5 0.7-0.3 0.1-0.5-0.2-0.7-0.4q-0.9-1.7-1.4-3.6c-1.3 0.7-1.6 1.5-0.8 2.7zm25.3-47c-1.8 1.9-3.9 3.3-5.9 4.8-5.9 4.7-11.8 9.5-16.8 15.2-3.3 3.8-6.2 8-8 12.8-0.7 1.7-1.2 3.4-1.8 5.2 0.7 0.1 0.8-0.4 1-0.7 0.8-1.7 1.6-3.4 2.5-5 1.5-2.9 3.6-5.4 5.5-8 1.9-2.4 3.6-4.8 5.8-7 3-3 6.4-5.7 9.7-8.3 1.4-1.1 2.7-2.3 4.3-3.1 2.3-1.3 3.9-2.9 3.7-5.9zm-4.5 26.3c-2.6 1.3-2.6 1.8-0.5 4.6 0.3-1.5 0.5-3 0.5-4.6zm5.9-31.7c-8.3 8.2-18.5 14.2-25.1 24.1 0.9 0.1 1.4-0.6 1.8-1.1 2.5-3.3 5.7-5.7 8.8-8.3 4-3.4 8.2-6.6 12.3-9.9 1.6-1.3 2.2-2.6 2.2-4.8zm2.7-7.5c-2.8 2.1-5.3 3.9-7.9 5.7-3.4 2.3-6.8 4.6-10 7.3-3.1 2.7-5.8 6-8.3 9.3-1.1 1.3-2.9 3.2-3.2 4.9 0 0 3.8-4.7 8-8.7 2.3-1.9 4.7-3.8 6.9-5.8 3.7-3.4 8-6.2 12.2-9.1 1.3-0.9 1.9-1.8 2.3-3.6zm-28.9 9q0.1 0.1 0.2 0.1 0.6-1.3 1.2-2.6c0.1-0.3 0.5-0.6 0.1-0.8-0.3-0.1-0.6-0.2-0.9-0.2-0.4 0-0.3 0.4-0.3 0.6q-0.1 1.5-0.3 2.9zm-4.4-4.8c1.3-0.1 2.5-0.2 3.7-0.3 0.1 0 0.1-0.2 0.1-0.3q0.1-1.4 0.3-2.7c0-0.6-0.2-1-0.9-0.9-1.1 0.2-2.3 0.2-3.5 0.3-0.4 0.1-0.6 0.2-0.5 0.7 0.1 0.7 0.1 1.5 0.2 2.2 0.2 0.4 0 1 0.6 1zm9.1-9c-0.7 1.1-0.5 2 0.2 2.7 0.1 0.2 0.4 0.2 0.5 0.2 0.3-0.1 0.3-0.4 0.2-0.5-0.6-0.6-0.5-1.5-0.9-2.4zm24.8-11.1c-1-0.1-2-0.1-2.5 0.1-3.8 1-6.1 3-7.8 5.9-0.4 0.8-0.6 1.7 0.1 2.6 0.7 0.8 1.6 0.8 2.5 0.5 1.5-0.4 2.9-0.9 4.4-1.5 2.2-0.9 4.6-1.8 5.2-4.6 0.4-1.6-0.4-2.9-1.9-3zm8.4-6c-4.1 0.5-7.9 0.7-11.4 2 3.6-0.8 7.7 0.6 11.4-2zm9.1-10.3c-1.7 0.7-3.1 1.4-4.7 1.7-3.5 0.5-7.1 1-10.6 1.9-2.2 0.6-4.1 1.5-5.1 3.9 3.1-0.7 6.2-1.2 9.2-1.7 0.7-0.1 1.3-0.1 1.7-1 0.4-1.1 1.8-1.3 2.8-0.7q1.6 1.1 0.3 2.8c-0.7 0.8-2.1 1.1-2.9 0.3-0.3-0.3-0.5-0.5-1.1-0.4-3.6 0.6-7.1 1.4-10.7 2.3-1.7 0.4-2.7 1.6-3.7 3.3 2-0.8 3.6-1.6 5.4-1.9 3.3-0.5 6.6-1.2 10-1.3 1.7-0.1 3.7-0.4 4.7-1.8 1.7-2.2 3.2-4.6 4.7-7.4zm-7.8-10.3v0.1q0 0 0-0.1zm0.5-1.2q0.4 0.1 0.3-0.2 0 0.2-0.3 0.2zm19.8-13c-2.8-0.4-4.7 1.4-6.8 2.5-2.2 1.2-4.5 2.4-5.1 5.4 4.1-2.6 8.6-4.5 11.9-7.9zm5-11.5c-3.5 4.9-8.8 8.1-12.6 12.7 1.8-0.3 3-1.3 4.4-2.2 0.3-0.2 0.3-0.5 0.2-0.8 0-0.9 0.4-1.5 1.3-1.7 1-0.3 1.6 0.3 2 1.1 0.2 0.2 0 0.8 0.7 0.7 0.5-0.1 0.5-0.4 0.7-0.8 0.8-1.7 1.4-3.5 2.4-5.2 0.7-1.1 1.3-2.4 0.9-3.8zm2.3-10.9c-1.8 6-5.7 10.3-8.4 15.2 3.5-0.7 9.5-10.9 8.4-15.2zm-2.1 10.9q-0.1-0.1-0.1-0.2 0 0.1-0.1 0.2 0.1 0 0.2 0z"/>
			<path id="&lt;Path&gt;" class="s0" d="m70.6 111.5h-0.1q0 0.1 0 0.1 0-0.1 0.1-0.1z"/>
		</g>
	</g>
</svg>