<svg version="1.2" xmlns="http://www.w3.org/2000/svg" viewBox="0 0 209 232" width="209" height="232">
	<title>ORFF021-ai</title>
	<style>
		.s0 { fill: #703A4B } 
	</style>
	<g id="Layer 2">
		<g id="&lt;Group&gt;">
			<path id="&lt;Compound Path&gt;" fill-rule="evenodd" class="s0" d="m130.4 60.5c-0.7-0.2-1.3-0.4-1.2-1.3 0.1-0.8 0.7-1.2 1.4-1.3 1.6-0.2 3.3-0.2 4.9 0.2 0.7 0.2 1.3 0.4 1.4 1.2 0.1 0.8-0.6 1.1-1.2 1.4-1.8 0.9-3.5 0-5.3-0.2zm0.5-1.3c1.5 0.4 3 1.3 4.9 0.1-1.9-0.3-3.4-0.9-4.9-0.1z"/>
			<path id="&lt;Path&gt;" class="s0" d="m22.6 166.6c-0.7-0.4-0.9-1.3-0.5-2.1 0.4-0.7 1.3-0.9 2-0.5 0.7 0.4 0.9 1.3 0.5 2-0.4 0.7-1.3 1-2 0.6z"/>
			<path id="&lt;Path&gt;" class="s0" d="m94.4 57.6c-0.6-0.4-0.8-1.3-0.4-2 0.4-0.7 1.2-0.9 1.9-0.6 0.6 0.4 0.8 1.3 0.4 2-0.4 0.7-1.2 1-1.9 0.6z"/>
			<path id="&lt;Path&gt;" class="s0" d="m96.4 64.5c-0.6-0.3-0.8-1.2-0.4-1.9 0.4-0.6 1.2-0.9 1.8-0.5 0.7 0.4 0.9 1.2 0.5 1.9-0.4 0.7-1.2 0.9-1.9 0.5z"/>
			<path id="&lt;Path&gt;" class="s0" d="m82.9 69.6q0 0 0 0 0.1 0.1 0.2 0.1 0-0.1 0.1-0.1-0.2 0-0.3 0z"/>
			<path id="&lt;Path&gt;" class="s0" d="m11.7 176q0 0 0 0-0.1 0.1-0.1 0.2 0 0 0 0 0.1-0.1 0.1-0.2z"/>
			<path id="&lt;Compound Path&gt;" fill-rule="evenodd" class="s0" d="m207.1 18.1c-1.8 2.8-3.5 5.7-5.8 8.1-2.8 3.2-5.8 6.3-9.2 9-4.1 3.3-9.1 5.2-13.2 8.4-2.1 1.7-4.4 3.1-6.3 5-0.5 0.6-1.2 0.5-1.8 0.9-5.3 2.9-10.6 5.8-15.9 8.6-1.8 0.9-3.7 1.4-5.7 0.6-0.6-0.3-1.4-0.3-2.3-0.4 1.4 2 1.5 4.2 1.9 6.3 0.4 1.7-0.8 3-2.1 4-0.3 0.2-0.7 0.5-1 0.1-0.4-0.5-0.1-0.9 0.3-1.1 1.6-1.4 1.7-3 1.1-4.9-0.2-0.8-0.4-1.1-1.3-0.6-2.3 0.9-4 2.8-6.1 4-3.5 2.3-6.4 5.3-9.5 7.9-5.2 4.2-9.9 8.8-14 14-0.7 0.9-1.2 1.1-2.3 0.6-3.3-1.5-6.9-1.1-10.3-0.6-3.3 0.6-6.6 1.5-9.8 2.6-1.8 0.7-3.6 1.3-5.3 2.2-0.6 0.3-1.1 0.6-1.6 0.9-0.4 0.2-1.3 1.1-1.7 1.1 1.4 0 2.4-0.8 3.6-1.3 4.1-1.5 8.6-1.9 12.9-2.4 4.8-0.6 9.6-0.9 14.5-0.7 3.3 0.2 6.6-0.5 10-0.8 3.5-0.3 7.1-0.4 10.7-1 6.6-0.9 12.1-3.6 15-10.2 1.1-2.4 2-4.9 3.8-7 1.4-1.6 4.5-1.7 5.7-0.2 0.6 0.6 0.8 1.3 0.4 2-0.4 0.9-0.9 1.8-2 2.1-0.6 0.1-0.7-0.4-0.9-0.8-0.2-0.4-0.1-0.9 0.4-1 0.9-0.1 1.4-0.4 0.9-1.3-0.6-1-1.4-1-2.3-0.6-1 0.5-1.8 1.2-2.2 2.3-0.9 2.7-1.7 5.4-3.1 7.8-1.7 2.8-3.9 4.8-7 5.8-3.2 1.1-6.3 2.5-9.6 3-4.1 0.7-8.3 1.1-12.5 0.9-1 0-2 0.1-2.9 0.1-0.8 0-1.6-0.1-2.3 0.3-1.2 0.6-2.4 1.5-3.6 2.2-1.2 0.7-2.5 1.3-3.5 2.1-1.4 1.2-2.6 2.6-3.6 4.1-3.5 5-7 10-10.2 15.2-3.2 5.3-6.4 10.8-9.7 16.1-1.4 2.2-2.8 4.4-3.6 6.8-0.9 2.4-2.4 4.2-4.2 5.9-0.9 0.8-2 1.5-3.1 2.3-0.2 0.2-0.5 0.3-0.3 0.7 0.2 0.3 0.5 0.1 0.8-0.1 4.4-3 9.3-5.4 13.3-9.2 3-2.7 6-5.4 8.5-8.6 1.8-2.3 3-5 4.9-7.3 1-1.3 2-2.5 3.3-3.6 1.5-1.2 2.9-2.7 4.4-4 1.3-1.1 3-1.7 4.6-2.4 1.1-0.4 3.2 1.1 3.4 2.3 0.2 0.7 0 1.3-0.6 1.7-0.6 0.3-1.3 0.5-2 0.1-0.4-0.2-0.6-0.6-0.1-1.1 0.2-0.2 0.9 0 0.6-0.5-0.3-0.5-0.8-1-1.3-0.8-1.3 0.4-2.6 0.7-3.7 1.6-1.4 1.1-2.5 2.6-4 3.7-2.9 2.1-4.6 5.3-6.5 8.3-2.1 3.3-4.1 6.8-7.1 9.3-3.9 3.3-7.5 7-12.3 9.2-2 1-4 2.2-5.8 3.7 0.7 0.4 4.3-0.1 5.9-1 1.9-1 3.4-2.5 5.5-3.3-1.2 1.4-2.2 3.1-3.9 4-4.5 2.4-7.8 5.9-10.1 10.4-3.5 6.6-6.4 13.5-10.1 19.9-2.7 4.6-6.7 7.1-11.5 8.9-3.8 1.4-7.7 2.8-11.5 4.3-3.1 1.2-6.4 2-9.3 3.7-2.5 1.5-5 3-7.3 4.7-0.8 0.6-1.1 1.3-1.3 2.3 1.1-0.1 1.8-0.7 2.6-1.1 5.2-2.8 10.7-4.5 16.5-5.5 3.3-0.5 6.5-1.5 9.8-2 2.1-0.4 4-1 6.1-1.4 3.2-0.8 5.6-2.7 7.5-5.3 0.4-0.5 0.6-1.2 1.3-0.8 0.7 0.4 0.1 1-0.1 1.5-2.3 4.2-6 6.7-10.3 8.6-5.1 2.3-10.5 2.6-15.9 3.4-5.5 0.9-11.1 1.5-15.6 5.3-1.2 0.9-2.3 1.8-3.5 2.8-1.1 0.9-0.7 1.7 0 2.4 1.1 1.1 2.5 1.7 4.1 1.3 1.7-0.5 3.3-1.3 3.9-3.1 0.4-1.4-0.7-1.8-1.9-1.9 0.2 0.5 1.3 0.4 0.8 1.2-0.4 0.6-0.9 0.4-1.5 0.3-0.7-0.1-1.3-0.5-1.2-1.4 0.1-0.8 0.5-1.4 1.3-1.8 0.9-0.4 1.7-0.6 2.5 0 3.3 2.2 2.9 6.6-0.4 8.1-2.3 1-4.4 1.2-6.5-0.2-1.1-0.7-2.4-2-3.4-1.6-0.8 0.2-1.2 2-1.8 3.2-1.1 2-2.1 4.1-2.9 6.2-0.7 1.7-1.7 2.9-3 4-2.4 1.9-4.8 3.9-7.6 5.3-0.3 0.2-0.7 0.5-1 0.1-0.2-0.3 0.1-0.6 0.3-0.9 2.6-2.9 4.9-6.1 6.6-9.6 1.7-3.4 3.7-6.7 5.2-10.1 0.7-1.5 0.5-3.1 0.2-4.6-1.2-5.4-3.9-9.8-9.4-11.8-1.8-0.7-2.7-0.2-3.5 1.6q0.3 0.2 0.7 0.3c0.4 0.2 0.7 0.4 0.5 0.9-0.1 0.4-0.5 0.5-1 0.4-1-0.2-2-0.6-2.1-1.9-0.2-1.5 0.5-3.2 1.7-3.7 2.9-1.2 5.6-0.3 8.1 1.3 0.8 0.5 1.6 1.1 2.4 1.7 0.1 0.1 0.3 0.2 0.3 0.2 0.2-0.1 0.1-0.3 0-0.5-0.2-1.9-0.9-3.6-1.6-5.3-1.6-4-2-8.4-3.2-12.5q-1.8-6-1.3-12.3c0.1-2.2 0.8-4.4 1.6-6.5 2.3-6.3 4.8-12.5 7.7-18.6 2.1-4.5 4.1-9.1 6.4-13.6 1.9-3.6 3.6-7.4 3.5-11.7-0.1-0.4 0-1 0.6-1 0.6-0.1 0.7 0.4 0.8 0.9 1 3.2 1.9 6.5 2.2 9.9q0.3 2.5 1 5c1.5 5 3.1 10 3.9 15.2 0.1 0.6 0.2 1.2 0.4 2 0.7-1 0.4-2 0.4-2.9-0.3-5.5-2.5-10.7-3-16.2-0.4-4.5-1.5-8.9-1.2-13.4 0.1-2.3 0.6-4.5 1.7-6.5 1.4-2.8 2.5-5.8 4.1-8.5 0.6-1.1 1.5-1.8 2.2-2.8 3-3.9 5.8-7.8 7.8-12.3 0.1-0.2 0.2-0.5 0.3-0.7 0.1-1.9-2.2-5.8-4.1-6.7-1.5-0.7-2-0.5-2.7 1.1-0.2 0.4-0.5 0.8-0.3 1.4 0.5 0.2 0.8-0.8 1.3-0.1 0.2 0.4 0.1 0.9-0.2 1.2-0.3 0.5-0.8 0.6-1.3 0.4-0.3-0.2-0.6-0.4-0.8-0.7-0.6-1-0.2-2.5 1-4 0.7-1 1.6-1.2 2.7-0.7 3.3 1.3 4.6 4 5.5 7.2 1.2 3.8 0.7 7.6 1 11.4 0.5 4.7 0.6 9.5 1.9 14.2 0 0.2-0.1 0.5 0.3 0.4 0.2-0.1 0.2-0.4 0.1-0.6 0.1-2.3 0.5-4.5 0.3-6.8-0.2-3.6 0-7.2 0.2-10.8 0.2-3.7 1-7.1 2.5-10.6 2.6-6.1 6.8-11.3 9.9-17.1 2.5-4.4 5.1-8.8 8.1-12.9 1.6-2.2 3.2-4.4 5.1-6.3 7-6.8 14.2-13.2 23.1-17.5 4.4-2.1 8.8-3.7 13.7-3.2 1.8 0.2 3.5 0.8 5.1 1.5 0.9 0.3 0.9 1.1 0.7 1.8-0.4 0.8-1 1.3-1.9 1.2-0.5-0.1-0.8-0.7-0.4-1 1.2-1.1 0.1-1.3-0.6-1.5-3.7-1.4-7.5-1.2-11.1 0.2-7.1 2.6-13.3 6.7-19.1 11.3-5.4 4.3-9.3 9.7-13.4 14.9-2.6 3.4-5.1 6.8-7.2 10.5-1.1 1.8-1.4 4-1.8 6-0.9 4.8-1.5 9.5-1.5 14.4 0.1 5.2-0.4 10.4-0.7 15.6-0.1 2.1-0.1 4.3-0.1 6.5 1.8-1.2 2-1.4 1.7-3.2-0.4-2.4-0.1-4.8-0.1-7.1 0-3 0.4-5.9 0.3-8.8 0-4.5 0.8-8.9 1.2-13.3 0.3-3.1 2-5.6 3.2-8.3 0.6-1.4 2.3-2.2 3.5-3.1 6.7-4.9 14-9 21.1-13.4 2.9-1.8 6.3-2.8 9-4.8 2.1-1.6 4.3-2.6 6.5-3.9 0.2-0.1 0.4-0.5 0.7-0.4 2.9 0.6 5.1-1.2 7.6-1.9q1.6-0.5 3.2-1.1c1.4-0.6 2.8-1.2 3.9-2.3 3.8-3.6 8.5-5.7 13.4-7.4 5.6-2.1 11.4-3.4 17.2-4.7 4.3-0.9 8.5-2.3 12.2-4.4 3.7-2.1 7.5-4.1 10-7.7 0.9-1.2 1.2-2.5 1.8-3.7 0.4-0.6-0.2-1.1-0.7-1.4-0.4-0.2-0.8-0.1-1.1 0.3-0.3 0.5-0.2 0.8 0.3 1.2 0.5 0.4 0.3 0.9-0.4 0.9-1 0.1-2.1-1.1-1.8-2 0.3-1.4 2.3-2.5 3.6-2.2 1.3 0.4 2 1.8 1.8 3.3-0.6 4.3-3.4 7.2-6.6 9.5-2.5 1.7-5 3.3-7.9 4.4-5 1.9-10.1 3.2-15.3 4.4-4.4 1-8.9 1.6-13 3.4-4.4 1.9-8.9 3.7-12.5 7-0.2 0.1-0.3 0.2-0.5 0.5 1.1 0.2 2.1 0 2.9-0.3 5.4-2.2 11.1-2.7 16.8-3.5 2.1-0.3 4.4 0.1 6.6-0.4 4.5-0.9 9.1-1 13.6-1.1 1.6 0 3.2-0.3 4.6-1.1 1-0.6 2.1-0.1 3.1-0.4 2.9-0.7 5.8-1.1 8.7-1.6 3-0.5 6-1.3 9.1-1.7 3.8-0.5 7.5-1.6 10.8-3.6 0.9-0.6 1.9-0.9 2.9-1.3 2.7-0.8 3-5.3 0.3-6.8-0.4-0.2-1.1-0.3-0.8-1 0.4-0.7 1-0.2 1.4 0 3 1.5 4.2 4.7 2.1 7.9zm-174.7 182.6c0.4 0.4 0.8 0.4 1.2 0.3 5.4-1.5 11.1-1.6 16.6-2.7 3-0.7 5.8-1.7 8.4-3.4q0.2-0.1 0.4-0.2c0.1 0 0.3 0 0.2-0.2 0 0-0.2 0-0.3 0q-0.2 0-0.4 0.1c-1.9 0.5-3.9 1-6 1.4-3.3 0.5-6.6 1.5-9.9 2.1-3.5 0.5-6.8 1.4-10.2 2.6zm-1.5 0.5c0.2 0.4 0.4 0.3 0.7 0.2 0 0 0-0.2 0-0.3q-0.3 0.1-0.7 0.1 0 0 0 0zm-0.6 0.7q0 0 0.1 0c0-0.3 0.7-0.2 0.5-0.7-0.2 0.2-0.7 0.2-0.6 0.7zm-0.8-0.2q0.4 0.1 0.8 0.2c-0.1-0.4-0.5-0.1-0.8-0.2zm-0.3 0.2c0.1 0 0.2 0.1 0.3 0.1 0.2-0.1 0-0.2 0-0.3 0 0.2-0.2 0.2-0.3 0.2zm-1.7 1.2c0.8-0.3 1.4-0.5 1.6-1.2-0.4 0.4-1.3 0.2-1.6 1.2zm162-175.5c4-1.5 7.9-3.3 11.3-6.1-4.3 1.1-7.7 3.7-11.3 6.1zm-3.4-1.8c-2.2 1.8-4.8 3.1-7.2 4.7 4.9-1.2 9.2-3.6 13.3-6.4-2 0.7-4.2 0.1-6.1 1.7zm-9.4 2.6c-1.5 1.2-2.9 2.3-4.5 3.3-2.2 1.3-4.3 2.7-5.9 4.6q-0.2 0.2-0.4 0.3c-0.9 0.4-1.7 0.9-2.5 1.5q-0.5 0.4-1 0.7c0.6 0.4 0.9-0.1 1.2-0.4 1.1-0.2 1.8-0.9 2.6-1.6q0.1 0 0.2-0.1c6.2-2.5 11-7.2 16.7-10.3 0.2-0.1 0.6-0.1 0.5-0.4-0.2-0.2-0.5-0.1-0.7 0.1-2.2 0.3-4.4 0.9-6.2 2.3zm-13.3 6.6c-1.8 2-4.5 3-6.3 5-0.2 0-0.4 0.1-0.3 0.3 0.1 0.1 0.3 0 0.4 0 2-0.8 3.8-2 5.6-3.1 3-1.8 5.1-4.5 8.2-6.1 1.6-0.8 2.9-2 4.6-3.4-2.5 0.1-4.4 0.5-6.1 1.9-2 1.8-4.3 3.3-6.1 5.4zm18.9 4.4c-3.6 0.4-7 0-10.3 0.3-2.1 0.2-4.4-0.3-6.4 1.1 2.2 0.7 4.3 1.8 6.4-0.1 0.7-0.6 2.1-0.9 2.8 0.3 0.6 1-0.1 1.9-0.9 2.5-0.4 0.5-0.9 0.4-1.5 0.2-0.6-0.3-1.2-0.7-1.9-0.7-2.3 0-4.5-0.5-6.7-1.1-0.4-0.2-0.8-0.4-1.3-0.2-1.3 0.7-2.7 0.9-4.1 1.5 2.7 0.6 5.3 1.3 8 1.7 6.2 1.1 11.3-1 15.9-5.5zm-14-10.7c-5.5 3.2-10.2 7.6-15 11.8 5.9-2.8 10.3-7.5 15-11.8zm4.5 17.3c-6.2 1.5-11.7-1.8-17.5-1.2 1.4 0.5 2.8 1 4 1.8 0.9 0.6 1.7 0.8 2.7 0 1-0.7 1.8-0.3 2.4 0.7 0.6 1.2-0.1 1.9-1.1 2.5-1.2 0.7-2.4 0.4-2.9-0.7-0.1-0.4-0.3-0.7-0.7-0.9-2.2-1.4-4.5-2-6.9-2.7-2-0.5-4-0.2-6.1 1 4 1 7.5 2.6 11 3.9 3.5 1.3 7.1 1.4 10.2-1.2 0.9-0.7 1.9-1.3 3-1.6 0.7-0.2 1.3-0.7 1.9-1.6zm-19.6-10.1c-3.6 2.4-6.8 5.6-10 9.1 1.8-0.5 3.1-1.1 4.3-2.1 3-2.4 6.2-4.5 9.1-6.9 2.6-2.3 5.3-4.4 8-6.6q-0.1-0.2-0.3-0.4c-4.5 0.9-7.4 4.5-11.1 6.9zm-4.8 0.2c-3.5 3.4-7.3 6.5-10.6 10.3 0.2 0 0.4 0.1 0.6 0.1 1.8-1.4 4-2.3 5.7-4 4-4.3 8.7-7.9 13.6-11.2 0.8-0.6 1.5-1.1 2.4-1.9-0.9-0.2-1.4 0-1.9 0.2-3.7 1.6-7 3.8-9.8 6.5zm8.2 4.4c-0.1-0.2-0.3-0.1-0.4 0q-0.2 0.1-0.4 0.3c-0.3 0-0.6 0.1-0.8 0.4 0.4 0.3 0.7 0.1 1-0.2q0.1-0.1 0.3-0.2c0.2-0.1 0.4 0 0.3-0.3zm-3.4 0.1c-0.1-0.2-0.3-0.1-0.5 0-1 0.6-2 1.1-2.8 2 1.2-0.3 2.1-0.9 3-1.7 0.1 0 0.4 0 0.3-0.3zm-11.4-2.3c-3 3-5.6 6.4-8.4 9.7q-0.3 0-0.5 0.1c0.1 0.2 0.3 0.3 0.6 0.3 1.6-0.6 2.6-1.9 3.7-3 5.4-5.4 10.6-10.9 17.1-15.1 0.2-0.1 0.6-0.1 0.4-0.4-0.2-0.2-0.5-0.1-0.7 0.1-4.9 1.5-8.6 4.9-12.2 8.3zm-11.9 14.7q2.3-0.3 4.6-0.6c-1.9-0.6-2.4-0.5-4.6 0.6zm4.5-8.6c0.2 0 0.4 0.1 0.4 0.1 4.1-4.5 7.9-9.3 13-12.8-4.4 0.8-9.5 7.4-13.4 12.7zm-9.8 6.9c3.6-0.4 5.7-3 7.5-5.6q3.5-5.1 7.6-9.7c1.5-1.8 3.2-3.4 4.9-4.9-9.1 4.4-13.8 13.1-20 20.2zm12.2-18.1c-3.8 3.7-7.7 7.4-10.6 12-1.5 2.4-3.1 4.8-4.6 7.2 6.8-6.8 11.4-15.6 19.6-21-1.8-0.2-3.2 0.6-4.4 1.8zm-11.6 20.9c1-0.1 2-0.2 3.1-0.7-1.3-0.4-2.2 0.2-3.1 0.7zm8.2-20.6c-3.7 2.4-6.5 5.6-8.7 9.4-1.8 2.9-3.4 5.9-5.1 8.8-0.6 1-1.3 1.9-2.1 3 1.2-0.2 1.7-0.9 2.1-1.6 1.3-1.8 2.6-3.7 3.8-5.6 2.4-3.9 4.9-7.6 8.3-10.7 1.5-1.4 2.8-3.2 4.5-4.6-1.5-0.4-2 0.7-2.8 1.3zm-17.8 21.5c0.3-0.4 0.7-0.7 1-1.1 2.2-2.7 3.7-5.9 5.5-8.9 2.1-3.7 4.4-7.3 7.7-10.1 0.3-0.3 0.9-0.6 0.6-1.1-0.3-0.5-0.8-0.2-1.2 0-0.3 0.1-0.6 0.2-0.9 0.5-1.9 1.5-3.7 3.2-5.1 5.3-3.4 4.7-4.9 10.3-7.6 15.4zm-0.2-2.5q0.5-0.8 0.9-1.6c1.5-3.2 2.7-6.5 4.4-9.5 0.7-1.4 1.9-2.5 2.4-4 0.4 0 0.6-0.2 0.4-0.5-0.1-0.2-0.3 0.1-0.5 0.2-3.8 4.5-6.6 9.5-7.6 15.4zm1.2-12.2c0.3 0.5 0.5 0.8 0.9 0.1q1-2.2 2-4.4c-2.7 0.1-4.1 2.2-2.9 4.3zm18.1 27.4q0.1-0.2 0.1-0.4c-5.5 0-10.8-1.1-16.3-0.7-6.3 0.4-12.4 1-18.2 3.4-3.4 1.3-6.6 3-9.2 5.7 0.9 0.1 0.9 0.1 1.9-0.4 3.9-2 8-3.5 12.1-4.6 4.6-1.3 9.3-1.9 14-2.4 1.7-0.2 3.4-0.4 5.1-0.3 3.4 0.2 6.7 0 10.1 0 0.1 0 0.3-0.2 0.4-0.3zm-19.8-19.2c-2.6 1.1-3.1 2.4-1.8 4.5 1-1.4 1.2-3 1.8-4.5zm-6.6-8.1c-0.3 1 0.3 1.6 0.9 2.3 1.6 2.1 1.5 3.5-0.4 5.2-1 0.8-0.9 1.5-0.1 2.4 1.5 1.5 1.5 2.5 0.1 4-0.7 0.7-0.7 1.1-0.1 1.7 0.4 0.3 0.6 0.7 1 1.2 0.4-2 0.4-2 1.8-3.2 0.5-0.4 0.3-0.7 0.1-1.1-0.7-2-0.3-3.4 1.3-4.7 0.4-0.4 0.7-0.6 0.4-1.2-1-2.5-0.5-3.8 1.8-5.3 0.3-0.1 0.8-0.1 0.5-0.6-0.7-1.4-0.7-2.7-0.2-4.3-2.1 0.7-3.9 1.4-5.8 2-0.8 0.3-1.1 0.9-1.3 1.6zm7 6.7c0.2-0.8 0.5-1.5 0.7-2.2q0.3-1.1 0.7-2.2c-1.7 0.2-2.5 0.9-2.7 2.1-0.2 1.1 0.2 1.8 1.3 2.3zm-14.4-1.6c1 0.2 2 0.8 3 1.2 0.8 0.3 0.7 1 0.2 1.4-1 0.8-1.3 1.9-1.8 3-0.9 2.1-0.8 2.1 1.2 3.1q0.6 0.3 1.2 0.7c2 1.4 2.1 1.8 0.7 3.8q-0.5 0.8-1.1 1.4c-0.4 0.5-0.3 0.8 0.1 1.3 0.8 1.1 1.5 0.1 2.1-0.3 1.8-1.2 2.3-2.5 1.1-3.7-1.3-1.4-1.1-2.6-0.1-3.9 0.6-0.8 0.8-1.5 0.2-2.4-1.5-2.1-1.4-3.1 0.5-4.9 0.9-0.9 0.9-1.6-0.2-2.2-1.4-0.7-1.7-1.9-1.7-3.5-1.9 1.1-3.7 2.1-5.5 3.1-0.2 0.2-0.4 0.5-0.5 0.7-0.5 0.8-0.4 1.1 0.6 1.2zm31.9 23.6c-3.9 0.4-7.6 0-11.3 0.2-5.4 0.3-10.7 1-15.9 2.4-6.6 1.9-13.1 4.3-18.5 8.9-1.2 1.1-2.7 1.9-3.9 3.3 0.8 0.2 1.2-0.3 1.6-0.6 1.9-1.4 3.9-2.7 5.9-4 3.6-2.3 7.7-3.6 11.6-5.2 3.6-1.5 7.5-2 11.5-2.4 5.7-0.5 11.4-0.9 17.1-1.3 0.9 0 1.4-0.4 1.9-1.3zm-5.3 4.8c-3.6 0.7-6.9 0.8-10.2 1.3-4.2 0.6-8.3 1.6-12.4 2.1-7.3 0.9-13.7 3.7-19.7 8 0.4 0.3 0.7 0.2 0.9 0.1 2.6-1.2 5.1-2.5 7.8-3.3 3-1 5.9-2.4 9.1-2.9 7.5-1.2 15-2.5 22.5-3.6 1-0.2 1.4-0.7 2-1.7zm-29.5-22.1c0.4 0.2 0.8 0.3 1.4 0.6 0.7 0.5 1.1 0.1 1.4-0.9 0.5-1.2 1.1-2.3 1.6-3.5 0.2-0.4 0.4-0.7-0.3-1-1.7-0.8-3.1-0.4-4 1.3-0.2 0.4-0.4 0.9-0.7 1.3-0.8 1-0.2 1.7 0.6 2.2zm-8.4-0.1c-0.3 1.4-0.2 2.5 1.2 3.3 0.8 0.4 1.1 1.2 1.3 2.1 0.3 1.5-0.6 2.3-1.7 3.1-1.3 1.1-1.2 1.7 0.3 2.4q0.8 0.3 1.5 0.7c1.2 0.6 1.6 1.5 0.9 2.8-0.3 0.6-0.7 1.2-1.1 1.7-0.7 1.1 0.3 1.4 0.8 2 0.6 0.7 0.9 0.3 1.3 0 2.3-1.8 4.6-3.6 6.3-6 2.1-3 2.2-3-1.1-4.6-0.9-0.4-1.4-0.9-0.9-1.9 0.4-0.8 0.6-1.6 1-2.3 0.4-0.8 0.1-1.2-0.6-1.6-3.8-2-4-1.3-1.9-5.6 0.8-1.6 0.8-1.6-0.9-1.6-1.1 0-1.3 0.7-1.3 1.5-0.4 1.3-1.3 1.9-2 1.1-0.8-0.8-1.4-0.2-1.8 0.3-0.5 0.8-1 1.6-1.3 2.6zm-1.5-1q0 0.1 0 0.2 0.1-0.1 0.1-0.1-0.1 0-0.1-0.1zm-4.7 4.5c0.6 0.6 1.1 0 1.7-0.2 0.4 0 0.9-0.1 1.1 0.2 0.3 0.5 0 0.9-0.4 1.1-0.8 0.7-1.6 1.3-2.6 2 0.4 0.1 0.7 0.2 0.9 0.2 0.6 0 1.3 0 1.5 0.7 0.2 0.7-0.5 1-1 1.3-1 0.7-2 1.4-3.3 2.3 1.3 0.3 2.3-0.3 3.3-0.3 0.5 0 1-0.1 1.2 0.4 0.3 0.6-0.2 0.9-0.6 1.2q-1.3 1-2.7 1.9c0.7 0.1 1.2 0 1.7-0.1 0.4-0.1 0.9-0.4 1.3 0.2 0.3 0.5-0.2 0.8-0.4 1.2-0.5 0.9-1.5 1.4-2.2 2.3-0.4-0.1-0.6 0.1-0.9 0.4 0.5 0.3 0.8 0.1 1.1-0.3 0.5 0.1 0.7-0.2 1-0.3 0.5-0.1 1-0.3 1.4 0.3 0.4 0.5-0.1 0.9-0.4 1.2q-0.8 0.9-1.7 1.7c0.5 0.5 0.9 0.1 1.3 0.1 0.5 0.1 1 0.5 0.8 0.7-0.9 1.1-0.4 1.5 0.7 1.8 0.1 0.1 0.1 0.5 0.2 0.8q2.3-1.9 4.5-3.7c0.6-0.6 1.3-1 0.1-1.7-0.6-0.3-0.7-0.9-0.7-1.5 0-1.1 0.5-1.8 1-2.6 1-1.5 1-1.6-0.7-2.2-1.3-0.5-2.3-1-2.3-2.7-0.1-1.4 0.9-2.1 1.7-2.9 0.9-0.7 0.8-1.2 0-1.8q-0.6-0.4-1.1-0.7c-1.2-0.8-1.8-1.7-1.4-3.2 0.2-0.7 0.4-1.5 0.5-2.3-0.7 0.5-2.1 0.9-2.1 1.4-0.1 1.8-1.8 2-2.5 3.1zm-5.7 2.3c-0.8 3.4-1.5 6.9-1.5 10.5-0.1 3.6 0 7.2 0.2 10.9 0.1 2.6-0.1 5.3 0.4 8 2.5-2.5 4.4-5.5 6.3-8.5-1.1 0.1-1.7 1-2.5 1.4-0.6 0.4-1.3 1.4-2 0.6-0.6-0.8 0.4-1.3 0.9-1.8 1-1 2.1-1.8 3.2-3.4-1.4 0.6-2.3 1-3.2 1.3-0.4 0.2-0.8 0.4-1.1 0-0.4-0.5-0.1-0.9 0.3-1.2 0.5-0.5 1.1-1 1.7-1.6 0.7-0.8 1.7-1.2 2.5-2.4-1.2 0.4-2 0.7-2.8 1-0.6 0.2-1.1 0.3-1.5-0.3-0.3-0.6 0.2-1 0.5-1.3 0.5-0.4 1-0.8 1.5-1.2 0.4-0.4 1.5-0.6 1.2-1.2-0.3-0.7-1.2 0-1.8 0.1-0.4 0.1-0.9 0.5-1.2 0-0.3-0.5 0.2-0.9 0.6-1.2q1.2-1 2.5-2.1c0.1-0.1 0.4-0.3 0.1-0.6-0.1-0.1-0.3-0.1-0.5-0.1q-1.3 0.5-2.5 0.9c-0.4 0.1-0.9 0.4-1.2-0.1-0.3-0.5 0-0.9 0.4-1.2q1.2-1 2.4-2.1c0.2-0.1 0.5-0.3 0.3-0.6-0.1-0.2-0.4-0.1-0.5-0.1-0.6 0.3-1.2 0.7-1.6 0-0.3-0.7 0.4-1.1 0.9-1.6 0.6-0.6 1.6-0.8 2.1-1.8-0.8-0.1-1.8 0.7-2.1-0.2-0.4-1 1.1-1.2 1.3-2.4-1.3 0.8-3 1-3.3 2.3zm-18.4 58.5c-0.2 2.4-0.3 4.8-0.7 7.2-0.8 4-1.2 8-1.4 12 0 0.7-0.2 1.4 0.2 2.2 0.6-0.7 0.7-1.5 1-2.2 3.2-7 6.9-13.8 10.7-20.5 1-1.9 1.3-4 2.1-6-1.2 0-1.7 0.5-1.9 1.5-0.1 0.4-0.3 0.8-0.5 1.2-2.4 5-5.7 9.5-7.7 14.6-0.2 0.4-0.4 1.2-1.1 0.9-0.6-0.2-0.4-0.8-0.3-1.3q0.7-4.7 0.8-9.4c0.1-0.6 0.3-1.4-0.3-1.5-0.9-0.2-0.9 0.7-0.9 1.3zm9.9-21.5c-0.1 0.4-0.2 0.8 0.2 1.1 1.2-1.5 2.6-2.6 2.8-4.8 0.3-4.1 0.2-8.1 0.4-12.2 0.2-5.9 0-11.9 0.9-17.8-1 0.6-1 0.6-1.3 1.7-1.5 5.2-1.7 10.5-2.3 15.8-0.6 5.4 0 10.8-0.7 16.2zm-1.8 15.8c-1.8 0.8-1.9 2.7-3 3.9-0.4 0.5-0.7 1.3-1.4 1.2-0.9-0.1-0.5-1-0.7-1.5-0.1-0.1-0.2-0.1-0.5-0.4-0.1 3-0.3 5.7-0.4 8.5 2.2-3.9 4.8-7.6 6.7-11.9-0.5 0.2-0.6 0.2-0.7 0.2zm-2.1 19.4c0.4-1.2 0.2-1.9-0.4-2.8-0.5-0.7-0.8-0.9-1.2 0-1.8 3.7-3.6 7.3-5.4 11-0.1 0.3-0.5 0.7 0.1 1.1 1.6 1.3 3.1 2.6 4.6 3.9 0.6 0.6 1 0.6 1.5-0.1 1.7-2.2 3.5-4.3 5.2-6.5 0.3-0.4 0.7-0.7 0.6-1.3-0.2-2.7-0.4-5.4-0.1-8.5-0.9 0.9-1.6 1.8-2.4 2.2-1.4 0.4-1.5 1.4-1.7 2.5-0.1 0.7-0.3 1.4-0.5 2-0.2 0.6-0.1 1 0.3 1.5 0.8 1 0.8 2-0.2 2.9-0.8 0.6-1.6 1.1-2.4 0.3-0.8-0.8-0.7-2-0.1-2.8 1.3-1.6 1.4-3.6 2.1-5.4zm-13.3 5.8c0.1 0.2 0 0.5-0.1 0.7-0.2 0.5-0.1 0.8 0.3 1.3 0.7 0.6 1 1.5 0.2 2.3-0.8 0.9-1.7 0.6-2.5 0.1-1-0.7-0.7-1.8-0.1-2.3 1.1-1.1 0.9-2.5 1.3-3.7 0.2-0.9 0.1-1.9 0.5-2.7 0.4-0.9 0.1-1.5-0.3-2.3-2.4 3.5-3.7 7.4-4.9 11.3-0.1 0.4-0.3 0.8 0.1 1.2 1.1 1.1 2.1 2.4 3.1 3.6 0.4 0.4 0.7 0.5 1.2 0 1-1 2-2 3.2-2.8 1.9-1.4 2.7-3 2.2-5.5-0.5-2.5 0.4-5.1 0.3-7.6-2.7 1.3-4.6 3.2-4.5 6.4zm9.4-37.5c-2.5 1.9-4 4.6-6.6 6.4 1.6 0.7 3.2 1.2 4.8 1.8 0.8 0.3 1.2-0.3 1.4-0.8 0.4-0.6-0.3-0.8-0.7-1-1.7-0.9-1.7-1.1-0.5-2.7 0.9-1 1.9-1.9 1.6-3.7zm0.4-12.6c-2.6 2.5-5 5-7.2 8 2.1 0.1 3.9 0.6 5.8 1 0.5 0.1 1.1 0.8 1.3 0 0.2-0.6 0.1-1.3-0.8-1.6-3.3-1-3.3-1.2-0.7-3.6 1.1-0.9 2.1-1.9 1.6-3.8zm-0.8-14.7c-0.3 0.8 0.8 0.7 1.2 1.2 0.5 0.4 0.6-0.1 0.6-0.1 0.3-1.2 0.3-2.2-0.6-2.5-0.8-0.3-1 0.9-1.2 1.4zm-4.4 7.8c0 0.1 0 0.2 0.1 0.3 0.6 0.2 0.9-0.4 1.2-0.8 1.1-1.2 2.1-2.5 3.2-3.8 0.3-0.4 0.9-0.6 0.6-1.2-0.2-0.5-0.7-0.5-1.1-0.7-0.6-0.2-0.8 0.4-1 0.8-1.1 1.8-1.6 3.8-3 5.4zm-1.4 4.4c0.1 0.4 0.5 0.2 0.8 0.3 1.7 0.1 3.3-0.1 5 0.3 0.3 0.1 0.9 0.3 1-0.4 0-0.6 0.1-1.1-0.7-1.3q-0.4-0.1-0.8-0.3c-1.9-0.7-1.9-0.9-0.7-2.5 1-1.1 2.7-1.9 2.1-4-2 2.6-4.1 4.9-6.3 7.1-0.2 0.2-0.5 0.5-0.4 0.8zm-1.6 9.7c2.3-2.8 4.5-5.3 7.1-7.8-2-0.6-3.8-0.3-5.6-0.7-0.8-0.2-1.1 0.4-1.2 1.3-0.1 0.7 0 1.2 0.9 1.2 0.3 0 0.7 0.1 1 0.1 0.4 0.1 0.7 0.2 0.9 0.5 0.1 0.4-0.2 0.7-0.4 0.9-0.9 0.5-1.3 1.5-2.1 2-0.9 0.6-0.9 1.3-0.6 2.5zm-0.3 11.3c3.2-2 5.2-5.2 8-7.7-2.6-1.4-5.4-1.1-7.9-2.2-0.3 1.8-0.3 1.8 1.3 2.2 1.8 0.5 1.8 0.5 0.9 2.2-0.4 0.7-0.8 1.5-1.3 2-1.2 1-1.3 2.2-1 3.5zm-5.5 7.1c-2-0.6-4 0.2-4.5 1.9-0.5 1.7 0.3 3.2 2.1 3.8 1.8 0.5 3.5-0.1 3.9-1.5 0.6-1.9-0.1-3.8-1.5-4.2zm-2.4-5.6c-0.4 1.1 0.3 1.7 1.2 2.1 0.7 0.3 1.4-0.1 1.8-0.8 0.3-0.7-0.4-2.1-1.2-2.3-0.9-0.1-1.5 0.2-1.8 1zm-1.1-13c-0.3 0.9-0.3 1.8 0.7 2 0.8 0.2 1.9 0.3 2.3-0.8 0.2-0.8-0.4-2.1-1.4-2.4-0.9-0.1-1.4 0.3-1.6 1.2zm-4.4 7.4c-0.7 2.3 0 4 1.9 4.6 1.7 0.5 2.6 0 3.1-1.7 0.6-2.2 0-4.1-1.7-4.5-1.4-0.5-2.8 0.2-3.3 1.6zm1.2 7.1c-1.5-0.5-2.8 0.2-3.2 1.5-0.5 1.6 0 2.6 1.5 3q2.5 0.8 3.2-1.3c0.5-1.3-0.2-2.7-1.5-3.2zm-3.8 8.3c0.3-1-0.5-2.4-1.5-2.7q-1.8-0.4-2.2 1.3c-0.4 1.1-0.2 2 0.9 2.5 1 0.4 2.5-0.2 2.8-1.1zm1.5 8.6c1.5 0.4 3.7-0.7 4.1-2.1 0.6-1.8-0.3-4.1-1.8-4.5-1.7-0.5-3.8 0.6-4.3 2.4-0.6 1.7 0.4 3.7 2 4.2zm-6.6 14.4c0.6 5.3 1.2 10.6 2.7 15.8 0-5.4-1.6-10.6-2.7-15.8zm8.6-0.1c0.3-0.9-0.1-1.4-0.9-1.7-1-0.3-1.4 0.3-1.7 1.1-0.3 0.8 0.1 1.4 0.9 1.7 0.9 0.4 1.4-0.3 1.7-1.1zm-4.6 11.9c-0.2 0.1-0.2 0.2-0.2 0.4 0 0.1 0.1 0.1 0.1 0.1q0.1-0.2 0.1-0.5zm-0.9-3.3c0.5 1.1-0.1 2.4 0.9 3.3q-0.2-1.7-0.5-3.4-0.2 0.1-0.4 0.1zm-22.3 22.6c-0.3 0.3-0.4 0.8-0.8 1.1-1.2 1.2-0.2 2.1 0.4 3.1 0.3 0.6 0.7 0.6 1-0.1 1.1-1.9 2.4-3.6 3.9-5.2 0.4-0.5 0.4-0.8-0.1-1.3-1.4-1.7-3.5-2.4-5.7-3.5-0.8-0.7-0.9 0.1-1 0.8-0.5 2.2-0.4 2.6 1.9 3.5 1 0.4 1 0.8 0.4 1.6zm1.6 6.6c0.4 0.4 0.7 1.2 1.6 0.5 1.7-1.2 2-1 2.4 1 0.1 0.3 0 0.5 0.1 0.7 0.2 0.5 0.6 0.5 1 0.5 0.4 0.1 0.5-0.3 0.5-0.6-0.2-2.7 0.7-5.4 0.7-8.3-2.1 1.8-4 3.4-6 5.1-0.3 0.3-1.1 0.5-0.3 1.1zm1.3 23.2c-1.8-9.7-4.7-19-7.4-28.4 1.2 9.7 4.6 19 7.4 28.4zm3.8-10.8c0.2-2.4 0.4-4.8 0.6-7.2 0-0.4-2-1.1-2.4-0.9-0.2 0.2-0.2 0.3-0.1 0.6 0.9 2.4 1.1 5 1.9 7.5zm7.6-20.8c0.8-2.3-0.6-5.6-2.6-6.3-2.3-0.7-5 0.4-5.5 2.5-0.4 1.9 0.5 4.5 3.1 5.4 2.3 0.7 4.5 0 5-1.6zm5-10.5c0.2-0.2 0.7-0.4 0.2-0.8-0.3-0.3-0.4-1-1.1-0.7q-0.5 0.3-0.9 0.4c-1.5 0.6-1.9 0.4-1.9-1.1 0-1.4-0.5-2.1-2.1-2.1 0.2 2.1-0.1 4.2 0.1 6.4 0.1 0.7 0.3 0.8 0.9 0.6q2.7-0.8 4.8-2.7zm0.8-5c-0.4-1.2-0.4-2.5-1.1-3.7-0.5 2.9-0.4 3.3 1.1 3.7zm-3.8-18.6c-0.2 2.2-0.4 4.5-0.4 6.7 0 2.5 0.1 5.1-0.2 7.6-0.2 2.2-0.2 2.2 2.1 2.8 0.1-5.8 0.3-11.6-1.5-17.1zm1.8 1.3q0 0.1 0 0.2 0-0.1 0-0.1 0 0 0.1-0.1-0.1 0-0.1 0zm-0.1-0.7l0.1 0.1v-0.2zm-0.3-0.9q0 0.2 0.1 0.3c0 0 0.1 0 0.2 0q-0.1-0.2-0.2-0.4c0 0-0.1 0.1-0.1 0.1zm-0.2-0.9q0.1 0.1 0.1 0.2 0-0.1 0.1-0.1-0.1-0.1-0.2-0.1zm1.3 5.7c0 0 0.1 0.1 0.3 0.1 0-0.1 0.1-0.2 0-0.2-0.1-0.1-0.2-0.2-0.3-0.2-0.2 0-0.2 0.1 0 0.3zm-4.1-2.7q-1.8 6.4-2.8 12.9c-0.2 1.2 1.1 0.8 1.7 1.1 0.6 0.3 0.7-0.1 0.8-0.7 0.4-2.5 0.4-5 0.3-7.5-0.1-1.9 0.4-3.9 0-5.8zm-5.6 13.7c0.9-0.3 1.7 0.1 1.8-0.9q0.4-2.7 0.7-5.4c-0.9 2-1.3 4.1-2.5 6.3zm-2.8 3.6c-0.6 0.2-0.2 0.6-0.1 0.9 0.7 2.3 2.3 4 3.8 5.9 0.7-2.3 1.3-4.3 2-6.4 0.1-0.3 0.3-0.7-0.2-0.8-0.4-0.1-0.9-0.3-1.2 0.2-0.4 0.7-0.2 2-1.2 2-0.8 0-1-1.3-1.7-1.8q0-0.1 0-0.1c-0.5-0.5-1-0.1-1.4 0.1zm5.7-15.9c-0.8 1.6-1.8 4-2.9 6.2q-1.8 3.5-3.9 6.6c2 0.5 2.9-0.5 3.4-2.1 1.2-3.8 2.4-7.6 3.4-10.7zm1.3-7.8c-2.6 8.2-8 14.9-11.8 22.5 0.7-0.3 1.6-0.5 2-1.2 1.1-2.1 2.7-4.1 3.8-6.3 1.8-3.5 3.3-7.1 4.9-10.7 0.6-1.3 1-2.7 1.1-4.3zm-4 5.8c-1.9 2.6-3.8 5.2-4.8 8.3 1.9-2.6 3.7-5.3 4.8-8.3zm-4.6 4.1c2.8-3.8 5.6-7.6 6.5-12.3-1 2.2-2.5 4-3.7 6-1.1 2-1.8 4.2-2.8 6.3zm-2.1 5.1c-0.9 1.1-1.2 2.2-1.4 3.3 0.6-0.9 1.1-1.9 1.4-3.3zm-7.4 25h-0.1l0.1 0.1zm0 1q0-0.1 0.1-0.2-0.1 0-0.1-0.1 0 0.2 0 0.3zm0.2 0.2q-0.1 0-0.2 0 0.1 0.1 0.1 0.2 0.1-0.1 0.1-0.2zm3.7-8.2c1.9 0.6 3.8 0.5 5.6 0.8 0.6 0.1 0.7-0.2 0.6-0.8q-0.3-3.9-0.7-7.8c-0.1-0.5-0.2-0.9-0.8-0.4-0.8 0.5-1.7 1-2.2 1.7-0.4 0.5 0.5 1.2 0.6 1.9 0 0.3 0.1 0.6 0.2 0.8 0.4 1 0 1.4-1 1.4-0.5 0-1 0-1.4-0.2-1.6-0.4-1.2 0.9-1.6 1.6-0.5 0.9 0.3 0.9 0.7 1zm1.9 37.7q0 0 0 0.1zm0.1-0.5c-1.4-3.7-4.4-5.5-8-6.6 3.3 1.7 6.3 3.6 7.9 7.1 0.1-0.2 0.2-0.3 0.1-0.5zm3.3-1.3c-0.7-6.4-1.3-12.7-4.3-18.6-0.6-1-0.5-2.3-1.4-3.1q0 0 0 0 0 0 0 0 0 0-0.1 0-0.1 0-0.2 0.1 0 0 0.1 0.1c-0.2 0.2 0 0.5 0 0.8q2.5 8.3 4.5 16.7c0.4 1.5 0.7 3 1 4.5q0.5-0.3 0.4-0.5zm-3.2-18.9c2.2 3.7 3 7.9 3.5 12.4 0.5-0.6 0.5-0.9 0.5-1.2-0.2-2.9-0.7-5.7-1.3-8.5-0.4-1.5-1.2-2.3-2.7-2.7zm7.3 9.3c0-1.7 0.8-3.2 1.1-4.7q0.2-0.8 0.4-1.6c0.1-0.7-0.5-0.6-0.8-0.7-0.3-0.1-0.6-0.2-0.7 0.2-0.4 2.4-0.6 4.8-0.7 7.3 0.6-0.1 0.7-0.3 0.7-0.5zm1.4 1.2c0.6-2.4 1.7-4.8 2-7.3 0.1-0.3 0.5-0.6-0.2-0.7-0.5-0.2-0.6 0.1-0.7 0.6-0.5 2.6-0.9 5.2-1.8 7.8 0.4 0 0.6-0.1 0.7-0.4zm6-14c0.9-1.2 0.1-1.9-0.9-2.4-0.9-0.4-1.7-0.9-2.4-1.5-0.6-0.5-0.8-0.3-1 0.3q-1.3 3.3-2.6 6.6c-0.1 0.2-0.2 0.5 0.3 0.7 0.9 0.4 2.6-0.2 3-1.3 0.3-0.5 0.5-1 0.7-1.4 0.3-0.6 0.9-0.8 1.3-0.3 1.2 1.6 1.3 0.3 1.6-0.7zm3-8.9c-1 0.2-1.9 0.4-2.7 0.7-0.9 0.2-1.2 0.9-0.7 1.7 0.5 0.8 1.1 1.5 1.8 2.5 0.6-1.7 1.1-3.2 1.6-4.9zm1.6-4.7c0-0.4-0.1-0.8 0.3-1.1 0.9-0.8 0.8-1.6 0-2.6-1.7 1.6-2.8 3.6-4.3 5.5 0.6 0.3 1.2 0.3 1.8 0.4 1.7 0.2 2.3-0.4 2.2-2.2zm10-30.3c0.7-1.9-0.3-4.3-1.9-4.8-1.7-0.5-3.6 0.6-4.2 2.3-0.7 2.1 0.2 3.9 2.1 4.6 1.8 0.6 3.4-0.2 4-2.1zm-22 76c1-1.3 2.6-1.7 3.7-3-1.9 0.3-3.4 1.5-3.7 3zm27.3-83.6c0.5-1.2-0.1-2.6-1.3-3-0.9-0.3-1.7-0.1-2 1-0.5 1.4-0.2 2.6 0.9 3 1.1 0.4 1.9 0.2 2.4-1zm5.1-14.6c2 1 2.1 1.3 0.5 2.9-1.9 1.7-2.1 3.8-1.9 6.1 1.9-3.5 4-7 6.4-10.2 0.3-0.3 0.5-0.8-0.1-0.9-1.8-0.3-3.3-1.5-5.1-1.8-0.3 0-0.5-0.2-0.7 0.1-0.5 0.6 0.2 3.5 0.9 3.8zm6.6 50.2c-1.5 1.4-3 2.4-3 4.5 0 0.4-0.2 0.9-0.2 1.3-0.1 0.2-0.3 0.5 0 0.6 0.1 0.1 0.4 0 0.6-0.1 0.4-0.2 0.7-0.5 0.9-0.9 0.5-1.8 1.1-3.6 1.7-5.4zm-5.4 9.2c-0.3 0.3-0.7 0.7 0.1 0.9 3.6 1.2 3.8 1.1 3.9-2.8-1.6 0.3-3 0.7-4 1.9zm4.4-4.4c-0.4 0.4-0.1 1.2 0.3 1.3 0.5 0.2 1.3 0.5 1.6-0.5 0.3-1.5 1-2.8 1.6-4.3-0.1-0.5 1-1.1-0.3-1.5-1.1-0.4-1.4 0-1.7 0.9-0.5 1.4-0.4 2.9-1.5 4.1zm24.1-29.2c-1.4 1.4-2.9 2.7-4.3 4.2-0.9 0.9-1.8 1.3-3.1 0.4-1.3-1-2.6-1.9-3.9-2.9-0.6-0.6-1-0.7-1.6 0.1-1.8 2.5-3.8 4.8-5.7 7.2-0.7 0.9-1.3 1-2.2 0.3-1.3-1.2-2.9-2.2-4.1-3.5-0.5-0.6-0.8-0.8-1.5-0.1-1.8 1.8-3.7 3.4-5.6 5.1-1.4 1.3-1.7 1.3-3-0.2-1-1.1-1.9-2.2-3-3.5-0.2 1-1.3 1.9-0.6 2.6 1.5 1.5 2.5 3.5 4 5.1 0.5 0.5 0.8 0.6 1.4 0 1.4-1.8 3.5-3 4.9-4.9 0.8-1.2 1.9-1.3 3.1-0.4q2.3 1.5 4.6 3c1 0.7 1.4 0.4 2-0.3 1.6-2.1 3.4-4 5-6.1 0.9-1.2 1.8-1.2 3-0.4 1.2 0.9 2.4 1.6 3.6 2.4 0.4 0.3 0.7 0.4 1.1 0.1 2.7-1.9 4.9-4.1 6.1-7.3 0.1-0.3 0.3-0.6-0.2-0.9zm-10.1 7.6q-0.1-0.1-0.1-0.2 0 0.1-0.1 0.2 0.1 0 0.2 0zm0.4 3.2c2.2-1.3 2.2-1.3 0.3-2.7q-0.3-0.2-0.7-0.4c-0.2 1 0.5 2 0.4 3.1zm-10.6 20.1c1.1-2.8 2.2-5.6 3.3-8.4 0.4-1 0.1-1.4-1.1-1.8 0.2 1-0.1 1.7-0.6 2.4-1.5 2.2-2.1 4.8-2.7 7.4-0.1 0.5 0.1 0.7 0.5 0.8 0.5 0.3 0.5-0.2 0.6-0.4zm-1.6 4.4c-0.3 0.2-0.7 0.4-0.8 1 1.2 0.7 2.6 0.3 3.8 1 0.5 0.2 0.5-0.3 0.4-0.6-0.3-1-0.3-2.3-1.3-2.7-0.7-0.2-1.5 0.7-2.1 1.3zm8.5-14.7c-0.7 0.9-2.1 0.6-2.6 1.4-0.6 0.8-0.8 2-1.1 3-0.1 0.3-0.3 0.5-0.4 0.8-0.7 2-1.3 3.9-2 5.9-0.2 0.7 0.3 1.2 0.7 1.4 0.5 0.3 0.7-0.4 0.8-0.7q2.3-5.9 4.6-11.8zm-5.9-2.3q-0.1 0-0.3 0.1c0 0.1 0 0.2 0.1 0.2 0.1 0 0.2 0 0.3 0 0-0.1 0-0.3-0.1-0.3zm3.5-7.7c-0.9 2-3.8 2.6-2.9 5.6 0.7-0.6 1.4-1.1 2.1-1.5 1.9-1.1 2.1-1.8 0.8-4.1zm-8.6 25.7c-1.8-0.3-3.1-0.6-4.5-0.8-1-0.1-1 0.7-0.9 1.2 0 0.7-0.1 1.6 0.7 2.2 0 0 0.1-0.1 0.2-0.1 1.4-0.8 2.9-1.3 4.5-2.5zm-2.8 2.9c-0.4 0.2-1.1 0.3-0.9 0.7 0.3 0.8 1.2 1.2 1.9 1.4 0.5 0.2 0.8-0.3 0.9-0.8q0.4-1.3 0.9-2.6c-1.1 0.4-1.9 0.9-2.8 1.3zm-20.4 7.2c-0.5-0.6-0.8-1-1.2-1.4-0.3-0.3-0.5-1-1-0.7-0.4 0.3-0.9 0.8-0.8 1.3 0.1 0.7 0.7 0.3 1.1 0.4 0.5 0.1 1.1 0.2 1.9 0.4zm-3 4c0.8-1.1 1.3-2.3 2.2-3.2-2.9-0.3-3.4 0.5-2.2 3.2zm2-13.1c-0.6 2-1.2 3.9-1.9 6.1 1.2-1.9 1.5-4 2.6-5.8 0.2-0.3 0.3-0.7-0.2-0.8-0.4-0.2-0.4 0.2-0.5 0.5zm3.4-6.2q-0.3-0.5-0.8-0.5c-0.4-0.1-0.5 0.3-0.6 0.5-0.3 1.1-0.6 2.1-1.1 3.5 0.8-0.3 1.2-0.5 1.6-0.7 1-0.4 1.5-1.8 0.9-2.8zm-1.7 6.4c-0.2 0-0.3 0.1-0.4 0.3-0.5 1.2-1 2.4-1.6 3.9 1.2-0.6 2.5-3 2.4-3.8q-0.1-0.3-0.4-0.4zm-0.2 8.1c0.5-0.6 0.3-1.3 0.5-2 0.1-0.5 0.3-1.1-0.1-1.4-0.5-0.3-0.9 0.3-1.4 0.5-0.6 0.3-0.7 0.7-0.2 1.2 0.5 0.5 0.8 1.1 1.2 1.7zm0.7-5.1c0 0 0.1 0.3 0.2 0.3 0.3 0 0.4-0.1 0.5-0.4q0.5-1.5 1-2.9c-1.5 0.6-1.3 1.9-1.7 3zm5.2-12.3c0.2 0.8 0.4 1.7 0.4 2.7 0.7-0.8 2.1-0.5 2.4-1.7 0.5-2.2-1.8-5.3-4.1-5.5-0.9-0.1-1.3 0.1-1.5 1-0.2 0.9 0 1.2 0.9 1.4 1 0.3 1.6 1.1 1.9 2.1zm-0.2 13.3c0.7-2.2 1.3-4.3 2-6.6-0.3 0.4-1 0.4-1.3 1.2-0.4 1.7-1 3.4-1.5 5.1-0.2 0.4-0.3 0.8 0.2 1 0.5 0.1 0.5-0.4 0.6-0.7zm-0.4-5.1c0.1-0.3 0.5-0.8-0.2-0.8-0.4 0-1-0.6-1.2 0.2-0.4 1.5-1.1 2.8-1.3 4.3 0 0.5-0.1 0.8 0.5 0.9 0.7 0.2 0.7-0.3 0.9-0.7q0.3-0.9 0.6-1.9 0 0 0.1 0 0.3-1 0.6-2zm-3.7 6.1c-0.1 1-0.5 2-0.4 3.2 0.9-0.8 1.7-1.4 2.4-2 0.2-0.2 0.6-0.4 0.4-0.8-0.4-0.6-1-0.8-1.7-0.9-0.4 0-0.6 0-0.7 0.5zm-0.8 5.3c-0.5 1.4-0.3 2.6-0.4 3.8q-0.1 0.5 0.3 0.5c0.6 0.1 1.3 0.1 1.7-0.4 0.3-0.4 0.4-0.9 0.1-1.5-0.6-0.7-1.1-1.5-1.7-2.4zm1.3-1.2c0.9 0.2 1.7 0.4 2.5 0.4 0.5 0.1 1.1 0.2 1.1-0.6 0-0.8-0.1-1.6-0.6-2.3-0.1 0-0.3 0-0.4 0.1-0.7 0.9-2 1.3-2.6 2.4zm8.7-13.3c0.1-0.4-0.6-0.4-0.9-0.6-0.4-0.2-0.6 0-0.6 0.4 0 1.7-0.9 3.3-1.3 5.3 2.2-1.3 2-3.4 2.8-5.1zm-3.2 8.4c1 0 1.9 0 3.1 0-0.7-0.9-1.2-1.6-1.7-2.3-1.2 1.1-1.2 1.1-1.4 2.3zm4.3 0c0.4-1.4 0.8-2.7 1.2-4-0.5 0-0.9 0-1.4-0.1-0.9-0.2-1.9 0.7-1.5 1.4 0.5 0.9 1.1 1.7 1.7 2.7zm1-9.6c-1.5 1.1-1.5 2.7-2.1 4.3 0.8 0 1.4-0.1 1.7-0.8 0.7-2 1.4-4 2.2-5.9 0.2-0.7-0.1-1-1-1.3 0.5 1.5 0.2 2.9-0.8 3.7zm0.8 3.1c-0.1 0.4-0.8 1 0.1 1.3 0.7 0.2 1.2-0.2 1.5-0.8q0.4-1.4 0.9-2.9 0 0.1 0 0.1 0.4-1.2 0.9-2.4c0.1-0.3 0.4-0.9-0.1-0.9-0.5 0.1-1.4-0.5-1.5 0.5-0.3 1.8-1.4 3.3-1.8 5.1zm-4.1 11.7c0.6 0.2 1.2 0.5 1.8 0.7 0.3 0.1 0.7 0.1 0.7-0.6-0.1-1.2-0.4-2.4-0.7-3.9-0.8 1.2-1.4 2.2-2 3.2-0.1 0.2-0.1 0.5 0.2 0.6zm3.3-5.2c1.5-0.2 2.7-1 4.2-1-0.1-0.9-0.6-1.5-1.1-2.1-1-1-1.6-0.9-2.1 0.5-0.3 0.8-0.6 1.6-1 2.6zm7.4-13.8c0.5-1 0.1-1.6-1-1.9-0.7 2.3-1.4 4.5-1.8 6.8 0.1 0 0.3-0.1 0.4-0.1 1.7-1.2 1.7-3.1 2.4-4.8zm-6.8 14.8c0.7 0.7 1.5 1.2 2.4 1.5 0.3 0.2 0.7 0.5 0.9 0.2 0.2-0.7 0.4-1.4 0.3-2.1 0-0.4-0.6-0.4-1-0.3-0.8 0.2-1.6 0.4-2.6 0.7zm9.7-23.3c0.9-2.4-1-6.6-3.3-7.9-0.3-0.2-0.7-0.5-0.9 0-0.5 0.9-1.8 1.2-1.9 2.4 0 0.1 0.1 0.2 0.3 0.3 2.5 1.6 3.4 4 3.2 7.1 1-0.7 2.2-0.9 2.6-1.9zm-16.4-4.3c-1.5 0-1.1 1.1-1.4 1.9-0.3 0.9 0.6 0.8 1.1 0.9 3.7 0.7 6.8 4 7 7.9 0.9-1 2.4-0.9 2.3-2.4-0.1-4.1-4.9-8.4-9-8.3zm-12 33.2c-2 3.7-2.9 7.8-4.1 11.7 1.5-3.8 3.4-7.5 4.1-11.7zm0.4 2.3c-0.6 0.9-0.5 1.9-0.9 2.7-0.7 1.7-1.3 3.4-1.9 5.1-0.2 0.5-0.4 0.9 0.3 1.1 0.7 0.2 0.8-0.1 1-0.5 0.4-1.2 1-2.3 1.3-3.5 0.6-1.5 1.4-3.1 0.2-4.9zm2.2 2.3c-0.4-0.2-0.6-0.2-0.7 0.3-0.2 1.3-0.5 2.5-0.8 3.8 0.3-0.1 0.5-0.1 0.6-0.2 0.9-0.9 0.9-2.2 1.6-3.3 0.3-0.5-0.5-0.4-0.7-0.6zm1.8-2c0.2-0.8 0.2-1.7 0.2-2.7-1.1 0.6-1.2 1.6-1.6 2.5-0.2 0.3 0 1 0.5 1.1 0.6 0.2 0.8-0.4 0.9-0.9zm1 3c0.2-0.4 0.1-0.5-0.4-0.6-1.6-0.3-1.1 1.1-1.5 1.6-0.2 0.6-0.4 1.1-0.5 1.6-0.1 0.3 0.2 0.5 0.4 0.6 0.4 0.3 0.5 0 0.7-0.3q0.7-1.4 1.3-2.9zm2.4-0.8c-1 0.1-1.8 0.3-1.6 1.7 1.1 0 1.5-0.6 1.6-1.7zm1.4-2.5c0.7-0.6 1.3-1.5 1.2-2.2-0.1-0.5-1.2-0.4-1.9-0.5-0.3 0-0.6-0.1-1.2-0.2 0.7 1.1 1.3 2 1.9 2.9zm1.6 0.2c-1.1 1-2.2 1.8-2.4 3.4 0 0.5 0.2 0.7 0.6 0.8 0.4 0.2 0.5-0.1 0.6-0.4 0.5-1.2 1-2.4 1.2-3.8zm2-5.3c0.2 0.4 0.5 0.8 1 0.1 0.5-1 1.1-1.8 1.9-3-0.7 0.1-1.1 0.1-1.5 0.2-2 0.2-2.4 0.9-1.4 2.7zm1.6 3.3c0.2-1.6-1.3-1-1.9-2 0.3 2.3-0.6 4-1.1 5.9 1.7-0.1 2.5-1.3 3-3.9zm1.6-0.1c-0.7-0.3-1 0.1-1.1 0.7q-0.1 1.5-0.6 2.8c-0.1 0.3-0.1 0.6 0.3 0.8 0.4 0.1 0.5-0.1 0.6-0.4 0.5-0.9 0.9-1.8 1.4-2.6 0.5-0.8-0.1-1-0.6-1.3zm3.1 1.1c0-0.3 0.2-0.7-0.2-0.7-0.4 0.1-1-0.2-1.3 0.5 0 0.2-0.3 0.6 0.3 0.6 0.4 0 1 0.3 1.2-0.4zm1.2-3.1c1-0.7 1.1-1.2-0.1-1.8-0.7-0.4-1.4-0.9-2.3-1.5 0.1 1 0.2 1.8 0.4 2.6 0.1 0.5-0.2 1.2 0.5 1.4 0.7 0.2 1.1-0.4 1.5-0.7zm0.5 3.8c0.5-1.2 0.9-2.3 1.4-3.6-0.7 0.1-0.9 0.8-1.4 1-1.2 0.5-0.8 1.6-1 2.5 0 0.3 0.3 0.5 0.5 0.6 0.5 0.2 0.5-0.3 0.5-0.5zm5.4-7.6c0-0.3-0.8-0.6-1.3-0.9-0.3-0.1-0.3 0.2-0.4 0.5-0.3 1.9-1.2 3.7-1.7 5.9 0.7-0.3 1.5-0.2 1.8-1 0.7-1.4 1.5-2.9 1.6-4.5zm2.9-8.1c0.6-0.5 1.1-0.9 1.6-1.1 1.3-0.7 0.6-1.1-0.2-1.5-1.2-0.7-1.4-0.5-1.4 0.8 0 0.5 0 1.1 0 1.8zm-0.5 2.8c0 1.6-0.6 2.8-0.9 4.2 0.9 0.2 1.6-0.1 2.4-0.2q0.8-0.1 0.4-0.8c-0.5-1-0.8-2.1-1.9-3.2zm-0.4 5.4c-0.5-0.1-1.1-0.2-1.1 0.5-0.1 1.2-0.6 2.1-1 3 0 0.3-0.1 0.4-0.1 0.6-0.2 0.4-0.4 0.9 0.2 1.1 0.5 0.2 0.6-0.4 0.7-0.7 0.6-1.2 1.1-2.4 1.6-3.6 0.1-0.4 0.4-0.8-0.3-0.9zm3.4-0.5c-0.9 0.3-1.9-0.1-2.1 0.7-0.2 1.5-0.8 2.8-1.2 4.2 1.5-1.2 2.3-2.9 3.3-4.9zm1-4.3c-0.7-0.2-1.5-0.4-2.5-0.6 0.4 0.8 0.7 1.4 1.1 1.9 0.2 0.5 0.3 1.4 0.9 1.4 0.6 0 0.7-0.9 1-1.4 0.5-0.6 0.2-1.1-0.5-1.3zm8.1-18.5c-0.6-0.3-0.8 0-0.9 0.5-1.4 4.7-3.2 9.3-5.1 13.8-0.3 0.7-0.3 1.2 0.4 2.1 2.4-5.6 6-10.4 7.6-16.3-0.8 0.1-1.4 0.2-2-0.1zm-7.1-1.8c-0.2 0-0.4 0.1-0.3 0.3 0 0.1 0.2 0.1 0.3 0.1 2.7-1.1 5.2-2.6 7.8-4.1 0.3 0 0.6-0.1 0.9-0.2 0.7-0.3 1.9-0.6 1.7-1.1-0.4-0.8-1.2 0.2-1.9 0.3-0.2 0.1-0.4 0.3-0.6 0.4-2.7 1.2-5.3 2.8-7.9 4.3zm27.8-34.6c-0.5 1.4-0.9 2.8-1.4 4.4 2-2.3 2.4-3.4 1.4-4.4zm12-17.4c-1.3 2.3-2.9 4.3-4.6 6.3-0.2 0.3-0.5 0.6-0.8 0.5-0.5-0.2-0.4-0.6-0.3-1 0.4-1.6 0.7-3.2 0.8-4.8 0-0.3 0.6-0.8-0.1-0.9-0.5-0.2-0.9 0-1.1 0.6-0.4 1.6-0.9 3.1-1.6 4.6-0.2 0.5-0.3 1.2-0.1 1.9 0.4 1.1 0.7 2.3 0.9 3.6 2.3-4 5.4-7.4 8-11.4-0.7-0.2-0.8 0.3-1.1 0.6zm12.2-16.6c-2.5 0.3-5.1 0.4-7.6 0.9-11.8 0.6-21.8 5.4-25 7.1-3.6 1.6-7.7 4.4-9.7 5.9 1.5-0.3 2.7-0.2 3.6-1.1 1.2-1.2 2.8-1.9 4.3-2.8 1.2-0.6 2.4-1.2 3.6-1.8 1.6-0.7 4.1-1.7 8.1-3.3 8.9-3.6 17.1-3.1 19.6-2.9q0.4 0.1 0.8 0.1 0 0 0 0c1 0 1.7-0.6 2.3-2.1zm-32.6 28.3c0.3 3.6 0.9 7.2 0.4 10.7-0.3 3 0.6 5.6 0.6 8.8 0.6-0.6 1-0.9 1.2-1.3 4.3-9.6 7.7-19.5 10.9-29.5-0.7-0.1-1.2-0.1-1.4 0.8-0.7 2.8-1.8 5.5-2.9 8.2-1.5 3.7-3.6 7.1-4.8 10.9-0.2 0.6-0.6 1.1-1.2 1-0.7 0-0.7-0.7-0.7-1.2 0-4.4 0-8.8 0.9-13.1 0.3-1.7 0.7-3.3 1.5-4.9-1.6-0.1-2.6 0.3-2.9 2-0.2 1-0.6 2.1-1.1 3-0.7 1.5-0.7 3-0.5 4.6zm5.1-8.7c-1 3.5-1.7 7.1-1.7 10.9 0 1.4-0.3 2.8 0 4.4 2.6-5.8 5.8-11.3 7-17.6-0.7 0.3-0.7 0.8-0.8 1.2-0.6 1.7-1.2 3.4-2.2 4.9-0.2 0.4-0.6 0.9-1.2 0.6-0.5-0.2-0.3-0.8-0.2-1.2 0.3-1.3 0.6-2.7 0.8-4 0.1-0.3 0.4-0.8-0.1-0.9-0.4-0.1-1-0.1-1.2 0.4-0.2 0.4-0.3 0.8-0.4 1.3zm-11.8 18.1c-1.9 4.3-3.6 8.4-5.3 12.4-0.2 0.4-0.2 0.7 0.2 0.9 1.5 1.1 2.9 2.1 4.3 3.2 0.7 0.6 1.2 0.3 1.7-0.2 1.7-1.6 3.2-3.4 5.1-4.8 0.5-0.4 0.6-0.8 0.5-1.3-0.1-2.8-0.9-5.5-0.8-8.5-0.7 0.7-1.1 1.4-1.8 1.8-0.9 0.7-1.4 4-0.8 5 0.5 1 0.3 2.6-0.6 3-0.8 0.3-1.6 0.8-2.3-0.1-0.6-0.9-0.3-2.6 0.6-3.2 0.9-0.7 1.7-3.9 1.1-4.9-0.7-1-1.3-1.9-1.9-3.3zm-0.3-5.5c-1.2 2.1-2.3 4.2-3.2 6.4-0.2 0.4-0.5 0.9-1 0.7-0.4-0.1-0.5-0.5-0.4-0.8 0.8-4.2 0.1-8.5 1.3-12.6 0.2-0.9 0.3-1.9 0.5-3-2.2 0.7-2.5 2.6-2.7 4.1-0.6 6.3-0.5 12.6-0.7 18.9 0 0.9-0.2 1.8 0.4 2.9 0.4-0.8 0.7-1.5 0.9-2.1 2.6-6.1 5-12.3 8.7-17.9 1.9-2.8 2.9-5.9 3.4-9.4-0.6 0.3-1.3 0-1.6 1-0.8 2.5-1.7 5-3.2 7.2-0.9 1.5-1.6 3.1-2.4 4.6zm-2.2-8.3c0 0.5-0.1 1.1-0.2 1.6-0.4 2.9-0.6 5.8-0.7 9 2.1-2.1 6.9-11.6 7.1-14-0.7 0.1-1 0.5-1.3 1.2-0.6 1.5-1.2 3.1-2.2 4.4-0.3 0.3-0.5 0.6-0.9 0.4-0.3-0.1-0.3-0.4-0.3-0.7q0-1.9 0.6-3.8c-1.5-0.1-2.2 0.5-2.1 1.9zm45.5-27.9c-2.6 0.7-5.1 0.9-7.6 1.2-7.4 1.1-14.9 2.3-22 4.7-4.9 1.6-9.5 3.7-13.4 7-1.5 1.1-2.8 2.4-4.2 3.6 0.6 0.4 0.8 0.1 1.2-0.1 1.5-1.1 3.1-2.1 4.7-3.1 2.8-1.7 5.8-2.8 8.8-4.1 2.8-1.1 5.5-2.3 8.4-3.1 4.2-1.2 8.4-1.7 12.6-2.4 1.8-0.2 3.6-0.6 5.3-0.5 2.7 0.1 4.9-0.4 6.2-3.2zm-17.1 20.5c-2.9-0.2-3.2 0.2-2.8 3.7 1-1.1 2-2.3 2.8-3.7zm21-24.4c-11.3 2.9-23.1 2.9-33.8 8.2 0.7 0.5 1.5 0.2 2.1-0.1 3.8-1.5 7.8-2.1 11.8-2.8 5.2-0.9 10.4-1.6 15.6-2.4 2-0.3 3.2-1.1 4.3-2.9zm6.1-5.2c-3.5 0.4-6.6 0.7-9.6 1-4.2 0.3-8.3 0.5-12.4 1.3-4.1 0.7-8 2.2-11.9 3.8-1.5 0.6-4.1 1.3-5.1 2.6 0 0 5.6-2.1 11.2-3.4 3-0.5 5.9-1 8.8-1.6 5-1 10.1-1.3 15.2-1.7 1.5-0.1 2.6-0.6 3.8-2zm-29.5-6.7q0.1 0.1 0.1 0.2 1.2-0.9 2.4-1.7c0.2-0.2 0.7-0.3 0.4-0.6-0.1-0.3-0.3-0.5-0.6-0.7-0.3-0.2-0.4 0.2-0.6 0.4q-0.8 1.2-1.7 2.4zm-1.3-6.4c1.1 0.6 2.2 1.1 3.3 1.6 0 0 0.1-0.1 0.2-0.2q0.8-1.1 1.6-2.2c0.4-0.5 0.4-0.9-0.3-1.2-1.1-0.5-2.1-1-3.2-1.5-0.3-0.1-0.6-0.1-0.8 0.3-0.2 0.7-0.6 1.4-0.9 2 0 0.4-0.5 0.9 0.1 1.2zm12.3-3.2c-1.1 0.6-1.4 1.4-1.2 2.5 0.1 0.1 0.2 0.3 0.4 0.4 0.2 0 0.4-0.2 0.3-0.4-0.2-0.8 0.4-1.5 0.5-2.5zm27 2.9c-0.8-0.6-1.6-1.1-2.2-1.2-3.7-1.1-6.8-0.5-9.7 1.2-0.8 0.5-1.4 1.2-1.2 2.2 0.1 1.1 1 1.6 1.9 1.8 1.5 0.3 3 0.7 4.5 0.9 2.4 0.3 4.9 0.7 6.9-1.4 1.1-1.1 1.1-2.6-0.2-3.5zm10.3-1c-3.8-1.6-7.1-3.4-10.9-4 3.6 1.1 6.4 4.4 10.9 4zm13-4.4c-1.8-0.2-3.4-0.2-4.8-0.8-3.4-1.3-6.7-2.7-10.2-3.7-2.1-0.6-4.3-0.7-6.4 0.9 3.1 0.8 6 2 8.8 3.1 0.7 0.2 1.2 0.5 2-0.1 0.9-0.7 2.3-0.1 2.8 0.8q0.8 1.8-1.2 2.6c-1 0.4-2.3-0.1-2.6-1.1-0.2-0.5-0.2-0.8-0.7-1-3.5-1.2-6.9-2.4-10.4-3.4-1.7-0.4-3.2 0-4.9 1.1 2.1 0.3 3.9 0.3 5.6 1 3.1 1.3 6.3 2.3 9.3 3.9 1.5 0.8 3.4 1.5 5 0.8 2.6-1.1 5.1-2.4 7.7-4.1zm-1.6-12.7q0.1 0 0.1 0zm1-0.8q0.3 0.2 0.4 0-0.1 0.2-0.4 0zm23.7-1.3c-2.2-1.8-4.8-1.2-7.2-1.2-2.5-0.1-5.1-0.3-7.1 2 4.9-0.2 9.7 0.4 14.3-0.8zm10-7.4c-5.4 2.4-11.6 2.5-17.2 4.6 1.6 0.7 3.3 0.4 4.9 0.3 0.3 0 0.5-0.3 0.6-0.6 0.4-0.8 1.1-1.1 2-0.8 0.9 0.2 1.2 1 1.2 1.9 0 0.4-0.5 0.8 0.2 1 0.4 0.2 0.7 0 1-0.3 1.5-1.1 3-2.4 4.7-3.3 1.2-0.6 2.3-1.4 2.6-2.8zm7.6-8.3c-4.6 4.3-10.2 6.1-15 8.9 3.4 1.2 13.8-4.6 15-8.9zm-7.3 8.3q0-0.1 0-0.2-0.1 0.1-0.2 0.2 0.1 0 0.2 0z"/>
			<path id="&lt;Path&gt;" class="s0" d="m114.7 86.5q0 0 0 0 0 0 0 0z"/>
		</g>
	</g>
</svg>