<?xml version="1.0" encoding="UTF-8"?>
<svg version="1.1" xmlns="http://www.w3.org/2000/svg" width="24" height="24">
	<defs>
		<linearGradient id="MyGradient">
			<stop offset="0%" stop-color="#e6be8a" ></stop>
			<stop offset="50%" stop-color="#faefb8" ></stop>
			<stop offset="100%" stop-color="#dba257" ></stop>
		</linearGradient>
	</defs>
    	<style>
		path{fill:url('#MyGradient')}
	</style>
<path d="M0 0 C0.98484375 -0.00128906 1.9696875 -0.00257812 2.984375 -0.00390625 C4.02078125 -0.00003906 5.0571875 0.00382812 6.125 0.0078125 C7.67960938 0.00201172 7.67960938 0.00201172 9.265625 -0.00390625 C10.25046875 -0.00261719 11.2353125 -0.00132813 12.25 0 C13.16007812 0.00112793 14.07015625 0.00225586 15.0078125 0.00341797 C17.125 0.1328125 17.125 0.1328125 18.125 1.1328125 C18.2241657 2.75538794 18.25579777 4.38221081 18.2578125 6.0078125 C18.25974609 7.48507812 18.25974609 7.48507812 18.26171875 8.9921875 C18.25785156 10.02859375 18.25398438 11.065 18.25 12.1328125 C18.25580078 13.68742188 18.25580078 13.68742188 18.26171875 15.2734375 C18.26042969 16.25828125 18.25914063 17.243125 18.2578125 18.2578125 C18.25668457 19.16789062 18.25555664 20.07796875 18.25439453 21.015625 C18.125 23.1328125 18.125 23.1328125 17.125 24.1328125 C15.50242456 24.2319782 13.87560169 24.26361027 12.25 24.265625 C11.26515625 24.26691406 10.2803125 24.26820312 9.265625 24.26953125 C8.22921875 24.26566406 7.1928125 24.26179688 6.125 24.2578125 C4.57039062 24.26361328 4.57039062 24.26361328 2.984375 24.26953125 C1.99953125 24.26824219 1.0146875 24.26695313 0 24.265625 C-0.91007813 24.26449707 -1.82015625 24.26336914 -2.7578125 24.26220703 C-4.875 24.1328125 -4.875 24.1328125 -5.875 23.1328125 C-5.9741657 21.51023706 -6.00579777 19.88341419 -6.0078125 18.2578125 C-6.00910156 17.27296875 -6.01039063 16.288125 -6.01171875 15.2734375 C-6.00785156 14.23703125 -6.00398437 13.200625 -6 12.1328125 C-6.00580078 10.57820312 -6.00580078 10.57820312 -6.01171875 8.9921875 C-6.01042969 8.00734375 -6.00914062 7.0225 -6.0078125 6.0078125 C-6.00668457 5.09773437 -6.00555664 4.18765625 -6.00439453 3.25 C-5.75735363 -0.79214854 -3.51772145 0.00435978 0 0 Z M-1.875 5.1328125 C-1.875 5.7928125 -1.875 6.4528125 -1.875 7.1328125 C-0.01875 7.6896875 -0.01875 7.6896875 1.875 8.2578125 C6.237013 9.88681204 7.98240306 11.9333225 10.125 16.1328125 C10.875 18.5078125 10.875 18.5078125 11.125 20.1328125 C11.785 20.1328125 12.445 20.1328125 13.125 20.1328125 C12.83863686 14.26236819 10.32847991 10.97165319 6.125 7.1328125 C3.08974074 5.50930173 1.56301737 5.1328125 -1.875 5.1328125 Z M-1.875 11.1328125 C-1.875 11.7928125 -1.875 12.4528125 -1.875 13.1328125 C-1.09125 13.5865625 -0.3075 14.0403125 0.5 14.5078125 C3.2485949 16.20932363 4.00421032 17.17800334 5.125 20.1328125 C5.785 20.1328125 6.445 20.1328125 7.125 20.1328125 C6.22229807 16.43994097 5.72008949 14.57912961 2.625 12.2578125 C0.27793684 10.99602427 0.27793684 10.99602427 -1.875 11.1328125 Z M-0.875 17.1328125 C-0.875 17.7928125 -0.875 18.4528125 -0.875 19.1328125 C-0.215 19.1328125 0.445 19.1328125 1.125 19.1328125 C1.125 18.4728125 1.125 17.8128125 1.125 17.1328125 C0.465 17.1328125 -0.195 17.1328125 -0.875 17.1328125 Z " fill="#000000" transform="translate(5.875,-0.1328125)"/>
</svg>
