<svg version="1.2" xmlns="http://www.w3.org/2000/svg" viewBox="0 0 496 76" width="auto">
	<title>34544-ai</title>
	<style>
		.s0 { fill: #703A4B } 
	</style>
	<g id="Layer 1">
		<g id="&lt;Group&gt;">
			<path id="&lt;Compound Path&gt;" fill-rule="evenodd" class="s0" d="m495.6 66.1c0 1.9-1.2 3.6-3.1 4.5-1 0.4-2.1 0.6-3.6 0.6h-214.4c-0.9 0-1.9 0.3-3.6 1-4 1.4-9.9 3.4-22.7 3.4-12.8 0-18.7-2-22.6-3.4-1.8-0.7-2.7-1-3.6-1h-214.5c-1.4 0-2.6-0.2-3.6-0.6-1.9-0.9-3.1-2.6-3.1-4.5 0-4.1 4.8-6.6 8.1-6.6h6.5c3.1-1.7 4.9-3.2 6.7-4.8 1.5-1.4 3.2-2.8 5.5-4.3 2.5-1.5 4.9-2.6 7.1-3.5 2.4-1 4.5-1.9 5.6-3 3.2-3.2 10.4-6.6 12-7.3l33.9-19.9c0.7-0.3 1.4-0.5 2.1-0.5 45.7 0 69.5-5.9 88.7-10.6 12.4-3.1 23.1-5.7 36.1-5.7 19.9 0 30.4 9.6 35.3 16.4 5.3-6.7 16.2-16.4 34.9-16.4 13 0 23.7 2.6 36.1 5.7 19.2 4.7 43.1 10.6 88.7 10.6 0.7 0 1.5 0.2 2.1 0.5l34 19.9c1.5 0.7 8.7 4.1 11.9 7.3 1.1 1.1 3.2 2 5.6 3 2.2 0.9 4.6 2 7.1 3.5 2.4 1.5 4 2.9 5.6 4.3 1.8 1.6 3.5 3.1 6.6 4.8h6.5c3.4 0 8.1 2.5 8.1 6.6zm-42.4-19.3c-1.4-1.4-4-2.9-6.3-4.1-6.9 0-13.8-0.3-20.7-1-7.7-0.8-15.4-1.9-23.1-3q-11.5-1.6-23.1-3c-7.7-1-15.4-1.8-23.2-2.6 7.8 0.6 15.5 1.2 23.3 1.9q11.6 1.1 23.2 2.4c7.7 0.8 15.4 1.7 23.1 2.2q7.7 0.5 15.4 0.5l-7.9-4.7c-33.9-0.2-62.8-5-88.2-9.3-19.3-3.3-36-6.1-50.7-6.1-32.3 0-44 24.3-45.3 38.2q1.3 0 2.5 0.1c0.3-1 0.7-1.9 1-2.8q0.8-2.1 1.8-4.1 1.1-2 2.3-3.9c0.8-1.2 1.8-2.4 2.8-3.5-0.7 1.3-1.4 2.6-1.9 4q-0.7 2-1.2 4.1-0.5 2.1-0.8 4.2-0.1 1.2-0.2 2.5 2.4 0.3 4.1 0.8c0.4-0.8 0.9-1.4 1.5-2 0.7-0.9 1.6-1.7 2.4-2.5 0.9-0.7 1.7-1.4 2.7-2l1.4-1 1.4-0.8c3.9-2.2 8-3.8 12.2-5.1 2.1-0.7 4.2-1.2 6.3-1.7 2.2-0.4 4.3-0.9 6.4-1.3 2.2-0.3 4.3-0.7 6.5-0.9l6.5-0.7-6.5 1c-2.1 0.4-4.2 0.9-6.3 1.3-2.1 0.5-4.2 1.1-6.3 1.6-2.1 0.6-4.1 1.3-6.2 2-4 1.5-7.9 3.3-11.5 5.6l-1.3 0.9-1.3 0.9c-0.8 0.6-1.6 1.4-2.4 2-0.7 0.8-1.4 1.5-2 2.3-0.3 0.4-0.6 0.8-0.8 1.2 0.9 0.4 1.5 0.6 1.5 0.6 0 0 5.5-2 11.5-2 5.3 0 168.1 1.6 199.5 1.9-1.1-0.8-2-1.6-2.9-2.3l-47.6-3.6 44.4 0.9c-0.7-0.7-1.6-1.3-2.6-1.9-5.1-3.2-10.5-4.2-13.4-7.2zm-218.7 16.8c2.2-0.7 4.5-1 6.8-1.3q3.5-0.5 6.9-0.5 3.5 0 6.9 0.4c2.3 0.4 4.6 0.7 6.9 1.4-2.1-1.2-4.4-1.9-6.7-2.4-2.3-0.5-4.7-0.7-7.1-0.7-2.4 0-4.7 0.2-7.1 0.7-2.3 0.5-4.6 1.2-6.6 2.4zm13.3-20.5c0.1 2.6 0.2 5.2 0.4 7.9 0.2-2.7 0.4-5.3 0.4-7.9 0.1-2.6 0.2-5.3 0.2-7.9 0-2.6-0.1-5.2-0.2-7.8 0-2.7-0.2-5.3-0.4-7.9-0.2 2.6-0.3 5.2-0.4 7.9-0.1 2.6-0.1 5.2-0.1 7.8 0 2.6 0 5.3 0.1 7.9zm6.3-26.9q1.2 3.2 1.9 6.5c0.5 2.7 0.9 5.5 0.7 8.2-0.3-2.7-1.1-5.3-2.1-7.8q-0.4-0.9-0.8-1.9c1 3.6 2.4 8.1 2.3 13.9 7.3-9.7 19.7-17.9 38.9-17.9 14.9 0 31.7 2.8 51.1 6.1 24.2 4.1 51.3 8.7 82.9 9.3l-20.9-12.3c-76 0-93-16.2-124.8-16.2-14.5 0-23.8 6.5-29.2 12.1zm-186.7 16.4c31.6-0.6 58.8-5.2 82.9-9.3 19.4-3.3 36.2-6.1 51.1-6.1 18.3 0 30.3 7.4 37.8 16.5 0.2-2 0.3-4 0.6-5.9q0.6-4.4 1.9-8.6-0.6 4.3-0.5 8.6c0.8-5.1 2.1-8.8 1.6-11.8-5.1-5.6-14.3-11.9-29.7-11.9-31.8 0-48.8 16.2-124.8 16.2zm-46.2 28.3c31.3-0.3 194.2-1.8 199.5-1.8 5.9 0 11.5 2 11.5 2 0 0 0.7-0.3 1.9-0.8l-0.1-0.2q-0.5-0.7-1-1.5-1.1-1.5-2.5-2.9c-1.7-1.8-3.7-3.5-5.8-5.1-2.1-1.6-4.3-2.9-6.6-4.3l-3.5-1.9-3.6-1.7 3.8 1.3 3.7 1.4c2.5 1 5 2.1 7.3 3.5 2.4 1.3 4.7 2.8 6.9 4.5 1 0.9 2.1 1.8 3.1 2.8q0.7 0.8 1.4 1.7 0.3 0.4 0.7 0.9 0.1 0.2 0.3 0.4 1.6-0.3 3.7-0.6c-0.8-3.3-2-6.6-3.6-9.6-1.8-3.7-4.1-7.1-6.9-10.2-0.6-0.8-1.4-1.5-2.2-2.2-0.7-0.7-1.4-1.5-2.2-2.1l-2.4-2c-0.9-0.6-1.7-1.2-2.6-1.8-1.6-1.2-3.5-2.1-5.3-3.2-1.9-1-3.8-1.7-5.7-2.6 1.9 0.7 3.9 1.4 5.8 2.3 1.9 1 3.8 1.7 5.6 2.9 0.9 0.6 1.8 1.1 2.7 1.7l2.5 1.9c0.9 0.6 1.7 1.3 2.5 2 0.8 0.7 1.6 1.4 2.3 2.2 3.1 2.9 5.6 6.4 7.8 10.1 1.8 3.2 3.3 6.6 4.4 10.3q1 0 2.1-0.1c-1.2-13.9-13-38.2-45.3-38.2-14.6 0-31.3 2.9-50.6 6.1-25.5 4.3-54.3 9.2-88.2 9.4l-8.1 4.7q6.1 0.2 12.2 0.2c6.3 0 12.7-0.2 19-0.5 12.7-0.7 25.4-1.8 38-2.6-12.6 1.3-25.2 2.8-37.9 4-6.3 0.6-12.7 1-19.1 1.2-5.7 0.2-11.4 0.3-17.2 0.2-2.3 1.2-4.8 2.8-6.2 4.2-3 2.9-8.4 4-13.4 7.1-1 0.7-1.9 1.3-2.7 1.9l45.3-0.8-48.5 3.6c-0.9 0.7-1.8 1.5-2.8 2.2zm466.3 2.9c-2.8 0-7.5 0-7.5 0-5.9 0-205.6-1.1-208.5-0.4-10.3 2.6-7.5 5.8-23.2 5.8-15.8 0-13-3.2-23.3-5.8-2.9-0.7-202.6 0.4-208.5 0.4 0 0-4.7 0-7.5 0-2.8 0-6.5 3.3-1.4 3.3 5 0 203.1 0 214 0l2.6-3.1 1.2 3.7c1.3 0.4 2.8 1 4.8 1.6l-0.9-0.6c-0.7-0.5-1.5-1-2.4-1.3 0.9-0.3 2-0.1 2.9 0.1 1 0.2 1.9 0.5 2.8 0.8 1.7 0.5 3.4 0.9 5.1 1.2 3.5 0.5 7 0.6 10.6 0.6 3.5 0 7-0.1 10.5-0.6 1.7-0.3 3.4-0.7 5.1-1.2 0.9-0.3 1.8-0.6 2.8-0.8 0.9-0.2 2-0.4 2.9-0.1-0.9 0.3-1.7 0.8-2.4 1.3l-0.9 0.6c2-0.6 3.5-1.2 4.8-1.6l1.2-3.7 2.6 3.1c10.9 0 209.1 0 214 0 5.1 0 1.4-3.3-1.4-3.3z"/>
			<path id="&lt;Path&gt;" class="s0" d="m312.7 30.7l9.5 0.2c3.1 0.2 6.3 0.5 9.5 0.6-3.1-0.7-6.3-1.4-9.4-2-3.2-0.4-6.4-0.8-9.6-1-6.4-0.1-12.9 0-19.2 1.4-6.4 1.4-12.6 3.6-18.1 7.1-2.7 1.7-5.4 3.6-7.6 6-2.3 2.2-4.4 4.8-5.8 7.6 1.9-2.5 4.2-4.7 6.7-6.6 0.6-0.5 1.2-1 1.8-1.5l2-1.3c1.2-0.9 2.7-1.6 4-2.4 5.5-2.9 11.4-4.9 17.5-6.1 1.6-0.3 3.1-0.7 4.6-0.9l4.7-0.5c0.8-0.1 1.5-0.3 2.3-0.3l2.4-0.1q2.3-0.1 4.7-0.2z"/>
			<path id="&lt;Path&gt;" class="s0" d="m345.9 49.7c-5.7-0.3-11.4-0.7-17.1-0.8l-4.3-0.1h-4.3c-2.9 0-5.8 0.3-8.6 0.4-11.5 0.8-22.8 2.9-33.8 5.8 11.3-1.2 22.6-2.4 33.9-2.5 11.3-0.2 22.6 0.5 33.9 1.4l17 1.2c5.7 0.3 11.4 0.6 17.1 0.7 11.4 0.3 22.9 0 34.2-0.8-11.3-0.9-22.7-1.6-34-2.5z"/>
			<path id="&lt;Path&gt;" class="s0" d="m400 43q-7.7-1.3-15.5-2.4c-5.2-0.7-10.5-1.4-15.7-1.8-2.6-0.3-5.3-0.4-7.9-0.6-2.7-0.2-5.3-0.3-7.9-0.3-10.6-0.2-21.2 0.5-31.5 2.2 10.5 0 20.9 0.2 31.3 1 10.4 0.8 20.7 2.1 31.1 3.6l15.6 2.2c5.2 0.7 10.4 1.4 15.6 1.9 10.5 1.1 21 1.8 31.5 1.8l-31.1-5z"/>
			<path id="&lt;Path&gt;" class="s0" d="m161 30.3l6.1-0.2c2-0.1 4.1 0 6.1 0h6.2c2 0 4 0.3 6.1 0.4l3 0.2 1.5 0.1 1.5 0.2 6.1 0.8c2 0.2 3.9 0.8 5.9 1.2 1 0.2 2 0.3 3 0.6l2.9 0.9 2.9 0.9 2.9 1.1c0.9 0.4 1.9 0.7 2.8 1.1l2.7 1.4 1.3 0.6q0.7 0.4 1.3 0.8l2.6 1.6c3.3 2.4 6.4 5.1 8.6 8.6-0.8-1.9-2-3.6-3.3-5.2-0.7-0.8-1.4-1.6-2.2-2.3l-2.3-2.1c-0.8-0.7-1.7-1.3-2.5-1.9q-0.6-0.5-1.3-0.9l-1.3-0.8-2.7-1.6c-1-0.5-1.9-0.9-2.9-1.3-7.6-3.4-15.9-5.4-24.1-6.3l-1.6-0.2-1.6-0.1-3.1-0.2c-2 0-4.1-0.3-6.2-0.2l-6.2 0.1c-2.1 0.1-4.2 0.1-6.2 0.3-4.1 0.4-8.3 0.7-12.3 1.4-4.1 0.7-8.2 1.4-12.2 2.2 4.1-0.2 8.2-0.6 12.3-0.9 2-0.2 4.1-0.2 6.2-0.3z"/>
			<path id="&lt;Path&gt;" class="s0" d="m190.6 47.4c-2.2-0.2-4.5-0.4-6.7-0.5-4.6-0.3-9.1-0.2-13.7-0.1-9 0.5-17.9 1.6-26.8 2.7-8.9 1.1-17.8 2.2-26.7 3.6 9 0.3 18 0.1 27-0.4 4.5-0.2 8.9-0.6 13.4-0.8q6.7-0.6 13.3-0.9c8.9-0.4 17.7-0.2 26.6 0.4 8.9 0.6 17.8 1.5 26.8 2.2-8.7-2.4-17.5-4.2-26.4-5.4-2.3-0.3-4.5-0.7-6.8-0.8z"/>
			<path id="&lt;Path&gt;" class="s0" d="m105.4 47.1l18.4-2.3c12.2-1.6 24.5-2.8 36.8-3.6 12.3-0.7 24.6-1 37-1.1-12.4-0.9-24.8-1.4-37.1-1-12.4 0.3-24.8 1.4-37.1 2.9-12.2 1.6-24.5 3.3-36.7 4.8-12.3 1.4-24.5 2.7-36.9 3.8 12.4 0 24.8-0.6 37.1-1.6 6.2-0.5 12.3-1.2 18.5-1.9z"/>
			<path id="&lt;Path&gt;" class="s0" d="m359.2 57.3c-3.7-0.1-8-0.4-12.6-0.5-4.6-0.1-9.5-0.2-14.5-0.3-4.9-0.1-9.8-0.1-14.4-0.2-4.6 0-8.9 0-12.6 0-3.7 0-6.7 0.1-8.9 0.1-2.1 0-3.4 0.1-3.4 0.1 0 0 1.3 0 3.4 0.2 2.2 0 5.2 0.2 8.9 0.4 3.7 0.1 8 0.3 12.6 0.4 4.6 0.1 9.5 0.3 14.4 0.4 4.9 0 9.8 0.1 14.4 0.1 4.7 0.1 9 0.1 12.6 0.1 3.7 0 6.8-0.1 8.9-0.1 2.2-0.1 3.4-0.1 3.4-0.1 0 0-1.2-0.1-3.3-0.2-2.2-0.1-5.3-0.3-8.9-0.4z"/>
			<path id="&lt;Path&gt;" class="s0" d="m316.8 44.8c4.4-0.2 9.4-0.2 14.8 0 5.4 0.3 11.2 0.8 16.9 1.5 5.8 0.6 11.6 1.3 17 1.8 5.4 0.6 10.4 1.1 14.8 1.5 4.3 0.5 7.9 0.7 10.4 1 2.6 0.2 4 0.3 4 0.3 0 0-1.4-0.2-3.9-0.6-2.5-0.3-6.1-0.9-10.4-1.5-4.4-0.5-9.4-1.2-14.8-1.9-5.4-0.6-11.1-1.3-16.9-2-5.8-0.6-11.6-1.1-17-1.3-5.5-0.2-10.6 0.1-14.9 0.5-4.4 0.4-8 1-10.5 1.5-2.5 0.5-3.9 0.8-3.9 0.8 0 0 1.5-0.2 4-0.6 2.5-0.3 6.1-0.7 10.4-1z"/>
			<path id="&lt;Path&gt;" class="s0" d="m272.2 32.7q1.1-0.6 2.6-1.2c1.8-0.8 4.2-1.6 6.6-2.5 2.5-0.8 5.1-1.5 7.8-2.1 2.7-0.6 5.5-1 8.1-1.3 2.5-0.2 5-0.4 7-0.4q1.6-0.1 2.9 0 1.3 0 2.2 0c1.2 0.1 1.9 0.1 1.9 0.1 0 0-0.7-0.1-1.9-0.3q-0.9-0.2-2.2-0.4-1.3-0.1-2.8-0.2c-2.1-0.1-4.6-0.2-7.2 0-2.7 0.2-5.5 0.6-8.2 1.2-2.8 0.6-5.5 1.4-8 2.3-2.5 0.9-4.7 1.9-6.6 2.9q-1.4 0.7-2.5 1.4-1.1 0.7-1.9 1.2c-1 0.7-1.6 1.1-1.6 1.1 0 0 0.7-0.3 1.8-0.9q0.8-0.4 2-0.9z"/>
			<path id="&lt;Path&gt;" class="s0" d="m186.6 56c-5.9 0-12.7-0.1-20 0-7.3 0.1-15.1 0.1-22.9 0.2-7.8 0.2-15.5 0.3-22.8 0.4-7.3 0.1-14.2 0.4-20 0.5-5.8 0.1-10.7 0.3-14.1 0.4-3.4 0.2-5.4 0.2-5.4 0.2 0 0 2 0.1 5.4 0.1 3.4 0 8.3 0.1 14.1 0.1 5.9 0 12.7 0 20-0.1 7.3 0 15.1-0.1 22.8-0.2 7.8-0.1 15.6-0.3 22.9-0.4 7.3-0.1 14.1-0.3 20-0.5 5.8-0.1 10.7-0.3 14.1-0.4 3.4-0.1 5.3-0.2 5.3-0.2 0 0-1.9 0-5.3-0.1-3.4 0-8.3-0.1-14.1 0z"/>
			<path id="&lt;Path&gt;" class="s0" d="m121.1 49.4c3.6-0.4 7.4-0.8 11.2-1.3 3.7-0.4 7.5-0.9 11.1-1.4 3.5-0.4 6.8-1 9.6-1.4 2.9-0.4 5.2-0.8 6.9-1 1.6-0.3 2.6-0.5 2.6-0.5 0 0-1 0.1-2.7 0.2-1.6 0.1-4 0.3-6.8 0.6-2.9 0.3-6.2 0.5-9.8 0.9-3.5 0.4-7.3 0.8-11.1 1.3-3.8 0.4-7.6 0.9-11.1 1.4-3.6 0.4-6.9 1-9.7 1.4-2.8 0.4-5.2 0.8-6.8 1-1.7 0.3-2.6 0.5-2.6 0.5 0 0 0.9-0.1 2.6-0.2 1.7-0.1 4-0.3 6.9-0.6 2.8-0.2 6.2-0.5 9.7-0.9z"/>
			<path id="&lt;Path&gt;" class="s0" d="m148 35.3c3.2-0.4 7-0.5 11-0.7 4.1-0.2 8.4-0.2 12.7-0.1 4.3 0 8.6 0.2 12.6 0.5 4 0.3 7.8 0.6 11 1 3.2 0.4 5.9 0.7 7.7 1 1.9 0.2 3 0.4 3 0.4 0 0-1.1-0.3-2.9-0.7-1.9-0.4-4.5-1-7.7-1.5-3.2-0.5-7-1-11-1.4-4.1-0.4-8.4-0.6-12.7-0.7-4.3 0-8.7 0.1-12.7 0.3-4.1 0.2-7.9 0.6-11.1 1.1-3.2 0.4-5.8 0.9-7.7 1.2-1.9 0.4-2.9 0.6-2.9 0.6 0 0 1.1-0.1 2.9-0.3 1.9-0.2 4.6-0.5 7.8-0.7z"/>
		</g>
	</g>
</svg>