<svg version="1.2" xmlns="http://www.w3.org/2000/svg" viewBox="0 0 257 84" width="auto">
	<title>34544-ai</title>
	<style>
		.s0 { fill:  #653444 } 
	</style>
	<g id="Layer 1">
		<g id="&lt;Group&gt;">
			<path id="&lt;Compound Path&gt;" fill-rule="evenodd" class="s0" d="m247.1 77.7h9.7v6.2h-256.9v-6.2h9.3c-1.4 0-2.6-1.1-2.6-2.5v-63.3c0-1.4 1.2-2.5 2.6-2.5h9.4c1.5 0 2.7 1.1 2.7 2.5 0-1.4 1.2-2.5 2.7-2.5h9.4c1.5 0 2.7 1.1 2.7 2.5v-9.1c0-1.6 1.4-2.8 3.1-2.8h10.8c1.6 0 3 1.2 3 2.8v15.3c0-1.5 1.4-2.7 3-2.7h14.5c1.7 0 3 1.2 3 2.7 0-1.5 1.4-2.7 3.1-2.7h14.5c1.6 0 3 1.2 3 2.7v-15.9c0-1.2 1.1-2.2 2.4-2.2h6c1.3 0 2.4 1 2.4 2.2 0-1.2 1.1-2.2 2.5-2.2h6c1.3 0 2.4 1 2.4 2.2 0-1.2 1.1-2.2 2.5-2.2h5.9c1.4 0 2.5 1 2.5 2.2 0-1.2 1.1-2.2 2.4-2.2h6c1.3 0 2.4 1 2.4 2.2v11.3c0-1.8 1.6-3.2 3.5-3.2h18.1c2 0 3.5 1.4 3.5 3.2v-8.1c0-1.4 1.3-2.6 2.8-2.6h9.2c1.5 0 2.8 1.2 2.8 2.6v6.5c0-1.4 1.2-2.5 2.7-2.5h9.4c1.5 0 2.7 1.1 2.7 2.5v-9.1c0-1.6 1.3-2.8 3-2.8h10.8c1.7 0 3.1 1.2 3.1 2.8v15.3c0-1.5 1.3-2.7 3-2.7h14.5c1.6 0 3 1.2 3 2.7 0-1.5 1.4-2.7 3-2.7h14.5c1.7 0 3 1.2 3 2.7v56.8c0 1.6-1.3 2.8-3 2.8zm1.6-2.7h-17.7c0.1 0.8 0.8 1.4 1.6 1.4h14.5c0.9 0 1.6-0.6 1.6-1.4zm-3.5-1.4v-54.2h-10.7v54.2zm3.5-54.2h-2v54.2h2zm-17.7-1.3h17.7c0-0.8-0.7-1.4-1.6-1.4h-14.5c-0.8 0-1.5 0.6-1.6 1.4zm0 55.6h2.1v-54.3h-2.1zm-20.5 1.4c0 0.8 0.7 1.4 1.6 1.4h14.5c0.8 0 1.5-0.6 1.6-1.4zm14.1-1.4v-54.2h-10.7v54.2zm3.5 0v-54.2h-2v54.2zm-17.7-55.5h17.7c-0.1-0.8-0.8-1.4-1.6-1.4h-14.5c-0.9 0-1.6 0.6-1.6 1.4zm0 55.5h2.1v-54.2h-2.1zm-16.9 1.3c0 0.8 0.7 1.5 1.6 1.5h10.8c0.9 0 1.6-0.7 1.6-1.5v-72.1c0-0.9-0.7-1.5-1.6-1.5h-10.8c-0.9 0-1.6 0.6-1.6 1.5zm-14.8 0.3c0 0.7 0.6 1.2 1.3 1.2h0.9v-8.6h1.4v8.6h1.7v-8.6h1.4v8.6h1.7v-8.6h1.4v8.6h0.9c0.7 0 1.2-0.5 1.2-1.2v-63.3c0-0.7-0.5-1.2-1.2-1.2h-0.9v9.8h-1.4v-9.8h-1.7v9.8h-1.4v-9.8h-1.7v9.8h-1.4v-9.8h-0.9c-0.7 0-1.3 0.5-1.3 1.2zm-14.8-0.1c0 0.5 0.5 1 1.1 1.2l0.7-70.4 0.7 70.4h7l0.7-70.4 0.7 70.4c0.6-0.2 1.1-0.7 1.1-1.2v-69.7c0-0.7-0.7-1.3-1.4-1.3h-9.2c-0.7 0-1.4 0.6-1.4 1.3zm-25-51.6h22.2v-10.1c0-1-0.9-1.8-2.1-1.8h-18.1c-1.1 0-2 0.8-2 1.8zm0 13.2h22.2v-11.8h-22.2zm0 13.1h22.2v-11.8h-22.2zm0 13.2h22.2v-11.9h-22.2zm0 11.4c0 1 0.9 1.9 2 1.9h18.1c1.2 0 2.1-0.9 2.1-1.9v-10.1h-22.2zm-10.9 0.9c0 0.6 0.5 1 1 1h6c0.5 0 1-0.4 1-1v-73.2c0-0.5-0.5-0.9-1-0.9h-6c-0.5 0-1 0.4-1 0.9zm-10.9 0c0 0.6 0.5 1 1.1 1h5.9c0.6 0 1-0.4 1-1v-73.2c0-0.5-0.4-0.9-1-0.9h-5.9c-0.6 0-1.1 0.4-1.1 0.9zm-10.8 0c0 0.6 0.4 1 1 1h6c0.5 0 1-0.4 1-1v-73.2c0-0.5-0.5-0.9-1-0.9h-6c-0.6 0-1 0.4-1 0.9zm-10.9 0c0 0.6 0.5 1 1 1h6c0.6 0 1-0.4 1-1v-73.2c0-0.5-0.4-0.9-1-0.9h-6c-0.5 0-1 0.4-1 0.9zm-20.5-0.5c0 0.8 0.7 1.5 1.6 1.5h14.5c0.8 0 1.6-0.7 1.6-1.5v-56.8c0-0.8-0.8-1.4-1.6-1.4h-14.5c-0.9 0-1.6 0.6-1.6 1.4zm-20.6 0c0 0.8 0.8 1.5 1.6 1.5h14.5c0.9 0 1.6-0.7 1.6-1.5v-56.8c0-0.8-0.7-1.4-1.6-1.4h-14.5c-0.8 0-1.6 0.6-1.6 1.4zm-16.9 0c0 0.8 0.8 1.5 1.7 1.5h10.8c0.9 0 1.6-0.7 1.6-1.5v-72.1c0-0.8-0.7-1.5-1.6-1.5h-10.8c-0.9 0-1.7 0.7-1.7 1.5zm-14.7-62h11.9v-1c0-0.6-0.6-1.1-1.3-1.1h-9.4c-0.7 0-1.2 0.5-1.2 1.1zm0 2.2h11.9v-1.3h-11.9zm0 2.1h11.9v-1.2h-11.9zm0 2.1h11.9v-1.2h-11.9zm0 47.8h11.9v-46.9h-11.9zm0 2.1h11.9v-1.3h-11.9zm0 2.2h11.9v-1.3h-11.9zm0 2.1h11.9v-1.2h-11.9zm0 1.8c0 0.6 0.5 1.2 1.2 1.2h9.4c0.7 0 1.3-0.6 1.3-1.2v-0.9h-11.9zm-14.8-62.4h11.9v-1c0-0.6-0.6-1.1-1.3-1.1h-9.4c-0.6 0-1.2 0.5-1.2 1.1zm0 2.1h11.9v-1.2h-11.9zm0 2.1h11.9v-1.2h-11.9zm0 2.1h11.9v-1.2h-11.9zm0 47.8h11.9v-47h-11.9zm0 2.2h11.9v-1.3h-11.9zm0 2.1h11.9v-1.2h-11.9zm0 2.1h11.9v-1.2h-11.9zm1.2 2.9h9.4c0.7 0 1.3-0.5 1.3-1.1v-0.9h-11.9v0.9c0 0.6 0.6 1.1 1.2 1.1zm206.3 2.6c-11.9 0-25.7-0.1-40.6-0.1-14.8 0-30.6 0-46.5-0.1-15.8 0.1-31.6 0.1-46.5 0.1-14.8 0-28.7 0.1-40.5 0.1-23.8 0.2-39.6 0.3-39.6 0.3 0 0 15.8 0.1 39.6 0.2 11.8 0.1 25.7 0.1 40.5 0.2 14.9 0 30.7 0 46.5 0 15.9 0 31.7 0 46.5 0 14.9-0.1 28.7-0.1 40.6-0.2 23.7-0.1 39.6-0.2 39.6-0.2 0 0-15.9-0.1-39.6-0.3z"/>
			<path id="&lt;Path&gt;" class="s0" d="m10.5 35.7c0-2.5-0.1-4.8-0.2-6.8-0.2-4-0.4-6.6-0.4-6.6 0 0-0.3 2.6-0.4 6.6-0.1 2-0.2 4.3-0.3 6.8 0 1.3 0 2.6 0 3.9q0 2 0 4 0 2 0 3.9 0 2 0 3.9 0.1 1.9 0.1 3.6 0.1 1.7 0.2 3.2c0.1 4 0.4 6.7 0.4 6.7 0 0 0.2-2.7 0.4-6.7q0.1-1.5 0.1-3.2 0.1-1.7 0.1-3.6 0-1.9 0.1-3.9 0-1.9 0-3.9 0-2 0-4c0-1.3-0.1-2.6-0.1-3.9z"/>
			<path id="&lt;Path&gt;" class="s0" d="m18.7 35.7c0-2.5-0.1-4.8-0.2-6.8-0.2-4-0.4-6.6-0.4-6.6 0 0-0.3 2.6-0.4 6.6-0.1 2-0.2 4.3-0.3 6.8 0 1.3 0 2.6 0 3.9q0 2 0 4 0 2 0 3.9 0 2 0 3.9 0.1 1.9 0.1 3.6 0.1 1.7 0.2 3.2c0.1 4 0.4 6.7 0.4 6.7 0 0 0.2-2.7 0.4-6.7q0.1-1.5 0.1-3.2 0.1-1.7 0.1-3.6 0-1.9 0.1-3.9 0-1.9 0-3.9 0-2 0-4c0-1.3-0.1-2.6-0.1-3.9z"/>
			<path id="&lt;Path&gt;" class="s0" d="m25 35.7c0-2.5-0.1-4.8-0.2-6.8-0.2-4-0.4-6.6-0.4-6.6 0 0-0.2 2.6-0.4 6.6-0.1 2-0.2 4.3-0.2 6.8 0 1.3-0.1 2.6-0.1 3.9q0 2 0 4 0 2 0 3.9 0 2 0.1 3.9 0 1.9 0.1 3.6 0 1.7 0.1 3.2c0.2 4 0.4 6.7 0.4 6.7 0 0 0.2-2.7 0.4-6.7q0.1-1.5 0.1-3.2 0.1-1.7 0.1-3.6 0.1-1.9 0.1-3.9 0-1.9 0-3.9 0-2 0-4c0-1.3 0-2.6-0.1-3.9z"/>
			<path id="&lt;Path&gt;" class="s0" d="m33.2 35.7c0-2.5-0.1-4.8-0.2-6.8-0.2-4-0.4-6.6-0.4-6.6 0 0-0.2 2.6-0.4 6.6-0.1 2-0.2 4.3-0.2 6.8 0 1.3-0.1 2.6-0.1 3.9q0 2 0 4 0 2 0 3.9 0 2 0.1 3.9 0 1.9 0.1 3.6 0 1.7 0.1 3.2c0.2 4 0.4 6.7 0.4 6.7 0 0 0.2-2.7 0.4-6.7q0.1-1.5 0.1-3.2 0.1-1.7 0.1-3.6 0.1-1.9 0.1-3.9 0-1.9 0-3.9 0-2 0-4c0-1.3 0-2.6-0.1-3.9z"/>
			<path id="&lt;Path&gt;" class="s0" d="m45.5 11.1l-0.9-2.2-1 2.2 1 2.2z"/>
			<path id="&lt;Path&gt;" class="s0" d="m41.1 5.1l-1-2.2-1 2.2 1 2.2z"/>
			<path id="&lt;Path&gt;" class="s0" d="m50 5.1l-1-2.2-0.9 2.2 0.9 2.2z"/>
			<path id="&lt;Path&gt;" class="s0" d="m45.5 23.5l-0.9-2.2-1 2.2 1 2.2z"/>
			<path id="&lt;Path&gt;" class="s0" d="m41.1 17.6l-1-2.2-1 2.2 1 2.2z"/>
			<path id="&lt;Path&gt;" class="s0" d="m50 17.6l-1-2.2-0.9 2.2 0.9 2.2z"/>
			<path id="&lt;Path&gt;" class="s0" d="m45.5 35.9l-0.9-2.2-1 2.2 1 2.2z"/>
			<path id="&lt;Path&gt;" class="s0" d="m41.1 30l-1-2.2-1 2.2 1 2.2z"/>
			<path id="&lt;Path&gt;" class="s0" d="m50 30l-1-2.2-0.9 2.2 0.9 2.2z"/>
			<path id="&lt;Path&gt;" class="s0" d="m45.5 48.3l-0.9-2.2-1 2.2 1 2.2z"/>
			<path id="&lt;Path&gt;" class="s0" d="m41.1 42.4l-1-2.2-1 2.2 1 2.2z"/>
			<path id="&lt;Path&gt;" class="s0" d="m50 42.4l-1-2.2-0.9 2.2 0.9 2.2z"/>
			<path id="&lt;Path&gt;" class="s0" d="m45.5 60.7l-0.9-2.2-1 2.2 1 2.2z"/>
			<path id="&lt;Path&gt;" class="s0" d="m41.1 54.8l-1-2.2-1 2.2 1 2.2z"/>
			<path id="&lt;Path&gt;" class="s0" d="m50 54.8l-1-2.2-0.9 2.2 0.9 2.2z"/>
			<path id="&lt;Path&gt;" class="s0" d="m45.5 73.1l-0.9-2.2-1 2.2 1 2.2z"/>
			<path id="&lt;Path&gt;" class="s0" d="m41.1 67.2l-1-2.2-1 2.2 1 2.2z"/>
			<path id="&lt;Path&gt;" class="s0" d="m50 67.2l-1-2.2-0.9 2.2 0.9 2.2z"/>
			<path id="&lt;Compound Path&gt;" fill-rule="evenodd" class="s0" d="m200.6 13.3l-0.9-2.2 0.9-2.2 1 2.2zm-0.5-2.2l0.5 1 0.4-1-0.4-1z"/>
			<path id="&lt;Compound Path&gt;" fill-rule="evenodd" class="s0" d="m196.2 7.3l-1-2.2 1-2.2 0.9 2.2zm-0.4-2.2l0.4 1.1 0.5-1.1-0.5-1z"/>
			<path id="&lt;Compound Path&gt;" fill-rule="evenodd" class="s0" d="m205.1 7.3l-1-2.2 1-2.2 0.9 2.2zm-0.4-2.2l0.4 1.1 0.5-1.1-0.5-1z"/>
			<path id="&lt;Compound Path&gt;" fill-rule="evenodd" class="s0" d="m200.6 25.7l-0.9-2.2 0.9-2.2 1 2.2zm-0.5-2.2l0.5 1 0.4-1-0.4-1z"/>
			<path id="&lt;Compound Path&gt;" fill-rule="evenodd" class="s0" d="m196.2 19.8l-1-2.2 1-2.2 0.9 2.2zm-0.4-2.2l0.4 1 0.5-1-0.5-1.1z"/>
			<path id="&lt;Compound Path&gt;" fill-rule="evenodd" class="s0" d="m205.1 19.8l-1-2.2 1-2.2 0.9 2.2zm-0.4-2.2l0.4 1 0.5-1-0.5-1.1z"/>
			<path id="&lt;Compound Path&gt;" fill-rule="evenodd" class="s0" d="m200.6 38.1l-0.9-2.2 0.9-2.2 1 2.2zm-0.5-2.2l0.5 1 0.4-1-0.4-1z"/>
			<path id="&lt;Compound Path&gt;" fill-rule="evenodd" class="s0" d="m196.2 32.2l-1-2.2 1-2.2 0.9 2.2zm-0.4-2.2l0.4 1 0.5-1-0.5-1z"/>
			<path id="&lt;Compound Path&gt;" fill-rule="evenodd" class="s0" d="m205.1 32.2l-1-2.2 1-2.2 0.9 2.2zm-0.4-2.2l0.4 1 0.5-1-0.5-1z"/>
			<path id="&lt;Compound Path&gt;" fill-rule="evenodd" class="s0" d="m200.6 50.5l-0.9-2.2 0.9-2.2 1 2.2zm-0.5-2.2l0.5 1 0.4-1-0.4-1z"/>
			<path id="&lt;Compound Path&gt;" fill-rule="evenodd" class="s0" d="m196.2 44.6l-1-2.2 1-2.2 0.9 2.2zm-0.4-2.2l0.4 1 0.5-1-0.5-1z"/>
			<path id="&lt;Compound Path&gt;" fill-rule="evenodd" class="s0" d="m205.1 44.6l-1-2.2 1-2.2 0.9 2.2zm-0.4-2.2l0.4 1 0.5-1-0.5-1z"/>
			<path id="&lt;Compound Path&gt;" fill-rule="evenodd" class="s0" d="m200.6 62.9l-0.9-2.2 0.9-2.2 1 2.2zm-0.5-2.2l0.5 1 0.4-1-0.4-1z"/>
			<path id="&lt;Compound Path&gt;" fill-rule="evenodd" class="s0" d="m196.2 57l-1-2.2 1-2.2 0.9 2.2zm-0.4-2.2l0.4 1 0.5-1-0.5-1z"/>
			<path id="&lt;Compound Path&gt;" fill-rule="evenodd" class="s0" d="m205.1 57l-1-2.2 1-2.2 0.9 2.2zm-0.4-2.2l0.4 1 0.5-1-0.5-1z"/>
			<path id="&lt;Compound Path&gt;" fill-rule="evenodd" class="s0" d="m200.6 75.3l-0.9-2.2 0.9-2.2 1 2.2zm-0.5-2.2l0.5 1.1 0.4-1.1-0.4-1z"/>
			<path id="&lt;Compound Path&gt;" fill-rule="evenodd" class="s0" d="m196.2 69.4l-1-2.2 1-2.2 0.9 2.2zm-0.4-2.2l0.4 1 0.5-1-0.5-1z"/>
			<path id="&lt;Compound Path&gt;" fill-rule="evenodd" class="s0" d="m205.1 69.4l-1-2.2 1-2.2 0.9 2.2zm-0.4-2.2l0.4 1 0.5-1-0.5-1z"/>
			<path id="&lt;Path&gt;" class="s0" d="m55.8 56.7c0.1 3.3 0.1 6.3 0.2 9 0 2.6 0.1 4.8 0.1 6.3 0.1 1.5 0.1 2.4 0.1 2.4 0 0 0.1-0.9 0.1-2.4 0.1-1.5 0.2-3.7 0.2-6.3 0.1-2.7 0.1-5.7 0.2-9q0-2.5 0-5.1 0-2.6 0-5.2 0-2.6 0-5.2 0-2.6 0-5.1c-0.1-3.3-0.1-6.3-0.2-9 0-2.6-0.1-4.8-0.2-6.3 0-1.6-0.1-2.4-0.1-2.4 0 0 0 0.8-0.1 2.4 0 1.5-0.1 3.7-0.1 6.3-0.1 2.7-0.1 5.7-0.2 9q0 2.5 0 5.1 0 2.6 0 5.2 0 2.6 0 5.2 0 2.6 0 5.1z"/>
			<path id="&lt;Path&gt;" class="s0" d="m70 56.7c0.1 3.3 0.1 6.3 0.2 9 0 2.6 0.1 4.8 0.2 6.3 0 1.5 0 2.4 0 2.4 0 0 0.1-0.9 0.1-2.4 0.1-1.5 0.2-3.7 0.2-6.3 0.1-2.7 0.1-5.7 0.2-9q0-2.5 0-5.1 0-2.6 0-5.2 0-2.6 0-5.2 0-2.6 0-5.1c-0.1-3.3-0.1-6.3-0.2-9 0-2.6-0.1-4.8-0.2-6.3 0-1.6-0.1-2.4-0.1-2.4 0 0 0 0.8 0 2.4-0.1 1.5-0.2 3.7-0.2 6.3-0.1 2.7-0.1 5.7-0.2 9q0 2.5 0 5.1 0 2.6 0 5.2 0 2.6 0 5.2 0 2.6 0 5.1z"/>
			<path id="&lt;Path&gt;" class="s0" d="m61.3 73.8q0.9 0.1 2 0.1 1 0 2-0.1 1 0 1.8-0.1c1-0.1 1.7-0.2 1.7-0.2 0 0-0.7-0.2-1.7-0.3q-0.8-0.1-1.8-0.1-1-0.1-2-0.1-1.1 0-2 0.1-1 0-1.8 0.1c-1.1 0.1-1.7 0.3-1.7 0.3 0 0 0.6 0.1 1.7 0.2q0.8 0.1 1.8 0.1z"/>
			<path id="&lt;Path&gt;" class="s0" d="m61.3 71.7q0.9 0.1 2 0.1 1 0 2-0.1 1 0 1.8-0.1c1-0.1 1.7-0.3 1.7-0.3 0 0-0.7-0.1-1.7-0.2q-0.8-0.1-1.8-0.1-1-0.1-2-0.1-1.1 0-2 0.1-1 0-1.8 0.1c-1.1 0.1-1.7 0.2-1.7 0.2 0 0 0.6 0.2 1.7 0.3q0.8 0.1 1.8 0.1z"/>
			<path id="&lt;Path&gt;" class="s0" d="m61.3 69.6q0.9 0.1 2 0.1 1 0 2-0.1 1 0 1.8-0.1c1-0.1 1.7-0.3 1.7-0.3 0 0-0.7-0.1-1.7-0.2q-0.8-0.1-1.8-0.2-1 0-2 0-1.1 0-2 0-1 0.1-1.8 0.2c-1.1 0.1-1.7 0.2-1.7 0.2 0 0 0.6 0.2 1.7 0.3q0.8 0.1 1.8 0.1z"/>
			<path id="&lt;Path&gt;" class="s0" d="m61.3 23.4q0.9 0.1 2 0.1 1 0 2-0.1 1 0 1.8-0.1c1-0.1 1.7-0.3 1.7-0.3 0 0-0.7-0.1-1.7-0.2q-0.8-0.1-1.8-0.2-1 0-2 0-1.1 0-2 0-1 0.1-1.8 0.2c-1.1 0.1-1.7 0.2-1.7 0.2 0 0 0.6 0.2 1.7 0.3q0.8 0.1 1.8 0.1z"/>
			<path id="&lt;Path&gt;" class="s0" d="m61.3 21.3q0.9 0 2 0 1 0 2 0 1-0.1 1.8-0.1c1-0.2 1.7-0.3 1.7-0.3 0 0-0.7-0.1-1.7-0.3q-0.8 0-1.8-0.1-1 0-2 0-1.1 0-2 0-1 0.1-1.8 0.1c-1.1 0.2-1.7 0.3-1.7 0.3 0 0 0.6 0.1 1.7 0.3q0.8 0 1.8 0.1z"/>
			<path id="&lt;Path&gt;" class="s0" d="m61.3 19.2q0.9 0 2 0 1 0 2 0 1-0.1 1.8-0.2c1-0.1 1.7-0.2 1.7-0.2 0 0-0.7-0.2-1.7-0.3q-0.8-0.1-1.8-0.1-1-0.1-2-0.1-1.1 0-2 0.1-1 0-1.8 0.1c-1.1 0.1-1.7 0.3-1.7 0.3 0 0 0.6 0.1 1.7 0.2q0.8 0.1 1.8 0.2z"/>
			<path id="&lt;Path&gt;" class="s0" d="m76.4 56.7c0.1 3.3 0.1 6.3 0.2 9 0 2.6 0.1 4.8 0.2 6.3 0 1.5 0.1 2.4 0.1 2.4 0 0 0-0.9 0-2.4 0.1-1.5 0.2-3.7 0.2-6.3 0.1-2.7 0.1-5.7 0.2-9q0-2.5 0-5.1 0-2.6 0-5.2 0-2.6 0-5.2 0-2.6 0-5.1c-0.1-3.3-0.1-6.3-0.2-9 0-2.6-0.1-4.8-0.2-6.3 0-1.6 0-2.4 0-2.4 0 0-0.1 0.8-0.1 2.4-0.1 1.5-0.2 3.7-0.2 6.3-0.1 2.7-0.1 5.7-0.2 9q0 2.5 0 5.1 0 2.6 0 5.2 0 2.6 0 5.2 0 2.6 0 5.1z"/>
			<path id="&lt;Path&gt;" class="s0" d="m90.6 56.7c0.1 3.3 0.1 6.3 0.2 9 0 2.6 0.1 4.8 0.2 6.3 0 1.5 0.1 2.4 0.1 2.4 0 0 0-0.9 0.1-2.4 0-1.5 0.1-3.7 0.1-6.3 0.1-2.7 0.1-5.7 0.2-9q0-2.5 0-5.1 0-2.6 0-5.2 0-2.6 0-5.2 0-2.6 0-5.1c-0.1-3.3-0.1-6.3-0.2-9 0-2.6-0.1-4.8-0.1-6.3-0.1-1.6-0.1-2.4-0.1-2.4 0 0-0.1 0.8-0.1 2.4-0.1 1.5-0.2 3.7-0.2 6.3-0.1 2.7-0.1 5.7-0.2 9q0 2.5 0 5.1 0 2.6 0 5.2 0 2.6 0 5.2 0 2.6 0 5.1z"/>
			<path id="&lt;Path&gt;" class="s0" d="m81.9 73.8q0.9 0.1 2 0.1 1 0 2-0.1 1 0 1.8-0.1c1-0.1 1.7-0.2 1.7-0.2 0 0-0.7-0.2-1.7-0.3q-0.8-0.1-1.8-0.1-1-0.1-2-0.1-1.1 0-2 0.1-1 0-1.8 0.1c-1 0.1-1.7 0.3-1.7 0.3 0 0 0.7 0.1 1.7 0.2q0.8 0.1 1.8 0.1z"/>
			<path id="&lt;Path&gt;" class="s0" d="m81.9 71.7q0.9 0.1 2 0.1 1 0 2-0.1 1 0 1.8-0.1c1-0.1 1.7-0.3 1.7-0.3 0 0-0.7-0.1-1.7-0.2q-0.8-0.1-1.8-0.1-1-0.1-2-0.1-1.1 0-2 0.1-1 0-1.8 0.1c-1 0.1-1.7 0.2-1.7 0.2 0 0 0.7 0.2 1.7 0.3q0.8 0.1 1.8 0.1z"/>
			<path id="&lt;Path&gt;" class="s0" d="m81.9 69.6q0.9 0.1 2 0.1 1 0 2-0.1 1 0 1.8-0.1c1-0.1 1.7-0.3 1.7-0.3 0 0-0.7-0.1-1.7-0.2q-0.8-0.1-1.8-0.2-1 0-2 0-1.1 0-2 0-1 0.1-1.8 0.2c-1 0.1-1.7 0.2-1.7 0.2 0 0 0.7 0.2 1.7 0.3q0.8 0.1 1.8 0.1z"/>
			<path id="&lt;Path&gt;" class="s0" d="m81.9 23.4q0.9 0.1 2 0.1 1 0 2-0.1 1 0 1.8-0.1c1-0.1 1.7-0.3 1.7-0.3 0 0-0.7-0.1-1.7-0.2q-0.8-0.1-1.8-0.2-1 0-2 0-1.1 0-2 0-1 0.1-1.8 0.2c-1 0.1-1.7 0.2-1.7 0.2 0 0 0.7 0.2 1.7 0.3q0.8 0.1 1.8 0.1z"/>
			<path id="&lt;Path&gt;" class="s0" d="m81.9 21.3q0.9 0 2 0 1 0 2 0 1-0.1 1.8-0.1c1-0.2 1.7-0.3 1.7-0.3 0 0-0.7-0.1-1.7-0.3q-0.8 0-1.8-0.1-1 0-2 0-1.1 0-2 0-1 0.1-1.8 0.1c-1 0.2-1.7 0.3-1.7 0.3 0 0 0.7 0.1 1.7 0.3q0.8 0 1.8 0.1z"/>
			<path id="&lt;Path&gt;" class="s0" d="m81.9 19.2q0.9 0 2 0 1 0 2 0 1-0.1 1.8-0.2c1-0.1 1.7-0.2 1.7-0.2 0 0-0.7-0.2-1.7-0.3q-0.8-0.1-1.8-0.1-1-0.1-2-0.1-1.1 0-2 0.1-1 0-1.8 0.1c-1 0.1-1.7 0.3-1.7 0.3 0 0 0.7 0.1 1.7 0.2q0.8 0.1 1.8 0.2z"/>
			<path id="&lt;Path&gt;" class="s0" d="m149.1 30.7l1 2.2 0.9-2.2-0.9-2.2z"/>
			<path id="&lt;Path&gt;" class="s0" d="m149.1 44l1 2.2 0.9-2.2-0.9-2.2z"/>
			<path id="&lt;Path&gt;" class="s0" d="m149.1 57.3l1 2.2 0.9-2.2-0.9-2.2z"/>
			<path id="&lt;Path&gt;" class="s0" d="m150.1 72.9l0.6-1.3 8.2-0.9-8.2-0.8-0.6-1.4-0.6 1.4-8.3 0.8 8.3 0.9z"/>
			<path id="&lt;Path&gt;" class="s0" d="m150.1 15.4l-0.6 1.3-8.3 0.9 8.3 0.8 0.6 1.4 0.6-1.4 8.2-0.8-8.2-0.9z"/>
			<path id="&lt;Path&gt;" class="s0" d="m96.8 71.8c0.2-2 0.6-4.8 1-8.2q0.2-2.5 0.6-5.4 0.3-2.9 0.6-6.1c0.2-2.1 0.4-4.3 0.6-6.5q0.3-3.3 0.6-6.7 0.3-3.4 0.6-6.7c0.2-2.2 0.3-4.4 0.5-6.5 0.3-4.3 0.6-8.2 0.8-11.6 0.2-3.4 0.3-6.2 0.4-8.2q0.1-1.5 0.1-2.3 0.1-0.8 0.1-0.8 0 0-0.1 0.8-0.2 0.8-0.3 2.3c-0.3 2-0.7 4.8-1 8.2-0.4 3.3-0.8 7.3-1.3 11.5-0.2 2.1-0.4 4.3-0.6 6.5q-0.3 3.3-0.6 6.7-0.3 3.4-0.6 6.7c-0.2 2.2-0.3 4.4-0.5 6.5q-0.2 3.2-0.4 6.1-0.2 2.9-0.4 5.5c-0.2 3.4-0.3 6.2-0.4 8.2q-0.1 1.4-0.1 2.2 0 0.8 0 0.9 0-0.1 0.1-0.8 0.1-0.8 0.3-2.3z"/>
			<path id="&lt;Path&gt;" class="s0" d="m107.6 71.8c0.3-2 0.6-4.8 1-8.2q0.3-2.5 0.6-5.4 0.3-2.9 0.7-6.1c0.2-2.1 0.4-4.3 0.6-6.5q0.3-3.3 0.6-6.7 0.3-3.4 0.6-6.7c0.2-2.2 0.3-4.4 0.5-6.5 0.3-4.3 0.6-8.2 0.8-11.6 0.2-3.4 0.3-6.2 0.4-8.2q0.1-1.5 0.1-2.3 0-0.8 0-0.8 0 0-0.1 0.8-0.1 0.8-0.3 2.3c-0.2 2-0.6 4.8-1 8.2-0.4 3.3-0.8 7.3-1.2 11.5-0.2 2.1-0.4 4.3-0.6 6.5q-0.3 3.3-0.6 6.7-0.3 3.4-0.6 6.7c-0.2 2.2-0.3 4.4-0.5 6.5q-0.2 3.2-0.4 6.1-0.2 2.9-0.4 5.5c-0.2 3.4-0.3 6.2-0.4 8.2q-0.1 1.4-0.1 2.2-0.1 0.8-0.1 0.9 0-0.1 0.1-0.8 0.2-0.8 0.3-2.3z"/>
			<path id="&lt;Path&gt;" class="s0" d="m118.5 71.8c0.2-2 0.6-4.8 1-8.2q0.3-2.5 0.6-5.4 0.3-2.9 0.6-6.1c0.2-2.1 0.4-4.3 0.6-6.5q0.3-3.3 0.7-6.7 0.2-3.4 0.5-6.7c0.2-2.2 0.4-4.4 0.5-6.5 0.3-4.3 0.6-8.2 0.8-11.6 0.2-3.4 0.4-6.2 0.5-8.2q0-1.5 0.1-2.3 0-0.8 0-0.8 0 0-0.1 0.8-0.1 0.8-0.3 2.3c-0.2 2-0.6 4.8-1 8.2-0.4 3.3-0.8 7.3-1.2 11.5-0.2 2.1-0.5 4.3-0.7 6.5q-0.3 3.3-0.6 6.7-0.3 3.4-0.5 6.7c-0.2 2.2-0.4 4.4-0.5 6.5q-0.3 3.2-0.5 6.1-0.2 2.9-0.3 5.5c-0.2 3.4-0.4 6.2-0.5 8.2q0 1.4-0.1 2.2 0 0.8 0 0.9 0-0.1 0.1-0.8 0.1-0.8 0.3-2.3z"/>
			<path id="&lt;Path&gt;" class="s0" d="m129.4 71.8c0.2-2 0.6-4.8 1-8.2q0.2-2.5 0.6-5.4 0.3-2.9 0.6-6.1c0.2-2.1 0.4-4.3 0.6-6.5q0.3-3.3 0.6-6.7 0.3-3.4 0.6-6.7c0.2-2.2 0.3-4.4 0.5-6.5 0.3-4.3 0.6-8.2 0.8-11.6 0.2-3.4 0.3-6.2 0.4-8.2q0.1-1.5 0.1-2.3 0.1-0.8 0.1-0.8 0 0-0.2 0.8-0.1 0.8-0.3 2.3c-0.2 2-0.6 4.8-0.9 8.2-0.4 3.3-0.8 7.3-1.3 11.5-0.2 2.1-0.4 4.3-0.6 6.5q-0.3 3.3-0.6 6.7-0.3 3.4-0.6 6.7c-0.2 2.2-0.3 4.4-0.5 6.5q-0.2 3.2-0.4 6.1-0.2 2.9-0.4 5.5c-0.2 3.4-0.3 6.2-0.4 8.2q-0.1 1.4-0.1 2.2 0 0.8 0 0.9 0-0.1 0.1-0.8 0.1-0.8 0.3-2.3z"/>
			<path id="&lt;Path&gt;" class="s0" d="m183 65.9q0.9 0 1.8 0 0.9 0 1.7 0 0.9-0.1 1.5-0.1c0.9-0.2 1.5-0.3 1.5-0.3 0 0-0.6-0.1-1.5-0.3q-0.6 0-1.5-0.1-0.8 0-1.7 0-0.9 0-1.8 0-0.8 0.1-1.5 0.2c-0.9 0.1-1.5 0.2-1.5 0.2 0 0 0.6 0.1 1.5 0.3q0.7 0 1.5 0.1z"/>
			<path id="&lt;Path&gt;" class="s0" d="m183 23.4q0.9 0.1 1.8 0.1 0.9 0 1.7-0.1 0.9 0 1.5-0.1c0.9-0.1 1.5-0.3 1.5-0.3 0 0-0.6-0.1-1.5-0.2q-0.6-0.1-1.5-0.2-0.8 0-1.7 0-0.9 0-1.8 0-0.8 0.1-1.5 0.2c-0.9 0.1-1.5 0.2-1.5 0.2 0 0 0.6 0.2 1.5 0.3q0.7 0.1 1.5 0.1z"/>
			<path id="&lt;Path&gt;" class="s0" d="m219.8 37c-0.1-2.9-0.1-5.7-0.2-8 0-2.3-0.1-4.3-0.2-5.6 0-1.4-0.1-2.2-0.1-2.2 0 0 0 0.8-0.1 2.2 0 1.3-0.1 3.3-0.1 5.6-0.1 2.3-0.2 5.1-0.2 8q0 2.2 0 4.5 0 2.3 0 4.6 0 2.4 0 4.7 0 2.3 0 4.5c0.1 2.9 0.1 5.6 0.2 7.9 0 2.4 0.1 4.3 0.1 5.7 0.1 1.3 0.1 2.1 0.1 2.1 0 0 0.1-0.8 0.1-2.1 0.1-1.4 0.2-3.3 0.2-5.7 0.1-2.3 0.1-5 0.2-7.9q0-2.2 0-4.5 0-2.3 0-4.7 0-2.3 0-4.6 0-2.3 0-4.5z"/>
			<path id="&lt;Path&gt;" class="s0" d="m240.3 37c0-2.9-0.1-5.7-0.2-8 0-2.3-0.1-4.3-0.1-5.6-0.1-1.4-0.1-2.2-0.1-2.2 0 0-0.1 0.8-0.1 2.2-0.1 1.3-0.2 3.3-0.2 5.6-0.1 2.3-0.1 5.1-0.2 8q0 2.2 0 4.5 0 2.3 0 4.6 0 2.4 0 4.7 0 2.3 0.1 4.5c0 2.9 0 5.6 0.1 7.9 0.1 2.4 0.1 4.3 0.2 5.7 0 1.3 0.1 2.1 0.1 2.1 0 0 0-0.8 0.1-2.1 0-1.4 0.1-3.3 0.1-5.7 0.1-2.3 0.2-5 0.2-7.9q0-2.2 0-4.5 0-2.3 0-4.7 0-2.3 0-4.6 0-2.3 0-4.5z"/>
		</g>
	</g>
</svg>