<svg version="1.2" xmlns="http://www.w3.org/2000/svg" viewBox="0 0 492 43" width="auto">
	<title>56311-ai</title>
	<defs>
		<linearGradient id="g1" x1="183.4" y1=".8" x2="307.9" y2=".8" gradientUnits="userSpaceOnUse">
			<stop offset="0" stop-color="#E6BE8A"/>
			<stop offset="1" stop-color="#e6be8a"/>
		</linearGradient>
		<linearGradient id="g2" x1="225.1" y1="14.3" x2="273.5" y2="14.3" gradientUnits="userSpaceOnUse">
			<stop offset="0" stop-color="#E6BE8A"/>
			<stop offset="1" stop-color="#e6be8a"/>
		</linearGradient>
		<linearGradient id="g3" x1="219.5" y1="6.3" x2="267.8" y2="6.3" gradientUnits="userSpaceOnUse">
			<stop offset="0" stop-color="#E6BE8A"/>
			<stop offset="1" stop-color="#e6be8a"/>
		</linearGradient>
		<linearGradient id="g4" x1="470.9" y1="17.7" x2="491.5" y2="17.7" gradientUnits="userSpaceOnUse">
			<stop offset="0" stop-color="#E6BE8A"/>
			<stop offset="1" stop-color="#e6be8a"/>
		</linearGradient>
		<linearGradient id="g5" x1="467.7" y1="22.3" x2="471.5" y2="22.3" gradientUnits="userSpaceOnUse">
			<stop offset="0" stop-color="#E6BE8A"/>
			<stop offset="1" stop-color="#e6be8a"/>
		</linearGradient>
		<linearGradient id="g6" x1="453.1" y1="22.4" x2="456.9" y2="22.4" gradientUnits="userSpaceOnUse">
			<stop offset="0" stop-color="#E6BE8A"/>
			<stop offset="1" stop-color="#e6be8a"/>
		</linearGradient>
		<linearGradient id="g7" x1="455.8" y1="19.2" x2="468.7" y2="19.2" gradientUnits="userSpaceOnUse">
			<stop offset="0" stop-color="#E6BE8A"/>
			<stop offset="1" stop-color="#e6be8a"/>
		</linearGradient>
		<linearGradient id="g8" x1="279.9" y1="20" x2="293.3" y2="20" gradientUnits="userSpaceOnUse">
			<stop offset="0" stop-color="#E6BE8A"/>
			<stop offset="1" stop-color="#e6be8a"/>
		</linearGradient>
		<linearGradient id="g9" x1="293" y1="23" x2="295.4" y2="23" gradientUnits="userSpaceOnUse">
			<stop offset="0" stop-color="#E6BE8A"/>
			<stop offset="1" stop-color="#e6be8a"/>
		</linearGradient>
		<linearGradient id="g10" x1="295.4" y1="23.6" x2="455" y2="23.6" gradientUnits="userSpaceOnUse">
			<stop offset="0" stop-color="#E6BE8A"/>
			<stop offset="1" stop-color="#e6be8a"/>
		</linearGradient>
		<linearGradient id="g11" x1=".2" y1="17.7" x2="20.8" y2="17.7" gradientUnits="userSpaceOnUse">
			<stop offset="0" stop-color="#E6BE8A"/>
			<stop offset="1" stop-color="#e6be8a"/>
		</linearGradient>
		<linearGradient id="g12" x1="20.2" y1="22.3" x2="24" y2="22.3" gradientUnits="userSpaceOnUse">
			<stop offset="0" stop-color="#E6BE8A"/>
			<stop offset="1" stop-color="#e6be8a"/>
		</linearGradient>
		<linearGradient id="g13" x1="34.8" y1="22.4" x2="38.6" y2="22.4" gradientUnits="userSpaceOnUse">
			<stop offset="0" stop-color="#E6BE8A"/>
			<stop offset="1" stop-color="#e6be8a"/>
		</linearGradient>
		<linearGradient id="g14" x1="23" y1="19.2" x2="35.9" y2="19.2" gradientUnits="userSpaceOnUse">
			<stop offset="0" stop-color="#E6BE8A"/>
			<stop offset="1" stop-color="#e6be8a"/>
		</linearGradient>
		<linearGradient id="g15" x1="198.4" y1="20" x2="211.8" y2="20" gradientUnits="userSpaceOnUse">
			<stop offset="0" stop-color="#E6BE8A"/>
			<stop offset="1" stop-color="#e6be8a"/>
		</linearGradient>
		<linearGradient id="g16" x1="196.3" y1="23" x2="198.7" y2="23" gradientUnits="userSpaceOnUse">
			<stop offset="0" stop-color="#E6BE8A"/>
			<stop offset="1" stop-color="#e6be8a"/>
		</linearGradient>
		<linearGradient id="g17" x1="36.7" y1="23.6" x2="196.3" y2="23.6" gradientUnits="userSpaceOnUse">
			<stop offset="0" stop-color="#E6BE8A"/>
			<stop offset="1" stop-color="#e6be8a"/>
		</linearGradient>
	</defs>
	<style>
		.s0 { fill: url(#g1) } 
		.s1 { fill: url(#g2) } 
		.s2 { fill: url(#g3) } 
		.s3 { fill: url(#g4) } 
		.s4 { fill: url(#g5) } 
		.s5 { fill: url(#g6) } 
		.s6 { fill: url(#g7) } 
		.s7 { fill: url(#g8) } 
		.s8 { fill: url(#g9) } 
		.s9 { fill: url(#g10) } 
		.s10 { fill: url(#g11) } 
		.s11 { fill: url(#g12) } 
		.s12 { fill: url(#g13) } 
		.s13 { fill: url(#g14) } 
		.s14 { fill: url(#g15) } 
		.s15 { fill: url(#g16) } 
		.s16 { fill: url(#g17) } 
	</style>
	<g id="_Artboards_">
	</g>
	<g id="object">
		<g id="&lt;Group&gt;">
			<g id="&lt;Group&gt;">
				<g id="&lt;Group&gt;">
					<path id="&lt;Path&gt;" class="s0" d="m249.7 29.4q0 0 0.6 0.4 0.6 0.4 1.8 1.2c1.5 1.1 3.9 2.7 7 4.5 1.6 0.8 3.4 1.7 5.4 2.6q1.5 0.6 3.2 1.2 1.7 0.5 3.6 1 1.9 0.4 3.9 0.7 2 0.2 4.2 0.3 0.5 0 1.1 0 0.5 0 1.1 0 0.5-0.1 1.1-0.1 0.5 0 1.1-0.1 2.3-0.2 4.6-0.6 2.4-0.5 4.7-1.3 2.4-0.8 4.6-2.2 1.1-0.6 2.2-1.4 1-0.8 1.9-1.8c1.2-1.3 2.3-2.7 3-4.4 0.8-1.6 1.3-3.4 1.4-5.3q0-0.3 0-0.7 0.1-0.3 0-0.7v-0.3q0-0.2 0-0.4 0-0.4 0-0.7-0.2-1.4-0.6-2.8-0.4-1.4-1.1-2.6-0.7-1.3-1.7-2.4-1-1.2-2.1-2.1-1.2-1-2.5-1.8c-1.7-1.1-3.6-2-5.7-2.7-2-0.6-4.1-1.1-6.2-1.3q-3.3-0.3-6.6 0.1-3.3 0.4-6.5 1.4c-4.4 1.4-8.6 3.5-12.7 5.8-4.1 2.4-8.2 5.1-12.5 7.6q-1.6 0.9-3.2 1.8-1.6 1-3.2 1.9-3.1 1.9-6.2 3.7c-4.2 2.4-8.4 4.7-12.7 6.7q-3.2 1.4-6.5 2.6-3.3 1.1-6.7 1.7c-2.3 0.5-4.6 0.7-6.9 0.6q-0.4 0-0.8 0-0.4 0-0.9-0.1h-0.4-0.2-0.2q-0.4-0.1-0.8-0.1l-0.5-0.1q-0.2 0-0.4-0.1-0.4-0.1-0.8-0.1c-0.5-0.1-1.1-0.3-1.6-0.4-0.6-0.2-1.1-0.4-1.6-0.6l-0.4-0.1q-0.2-0.1-0.4-0.2-0.4-0.1-0.7-0.3-0.4-0.1-0.8-0.3-0.4-0.2-0.7-0.4-0.4-0.2-0.7-0.5l-0.4-0.2-0.2-0.1q0-0.1-0.1-0.1-0.4-0.3-0.7-0.5-0.2-0.1-0.3-0.3l-0.3-0.2q-0.3-0.3-0.6-0.6-0.3-0.3-0.6-0.6l-0.3-0.3q-0.1-0.1-0.3-0.3-0.2-0.3-0.5-0.6-0.2-0.4-0.4-0.7l-0.2-0.3q-0.2-0.2-0.3-0.4-0.1-0.3-0.3-0.7-0.2-0.3-0.4-0.7l-0.2-0.4q0-0.2-0.1-0.3-0.1-0.4-0.3-0.8-0.1-0.4-0.2-0.8l-0.1-0.3q0-0.2-0.1-0.4-0.1-0.4-0.1-0.8-0.1-0.4-0.2-0.7v-0.4q0-0.2 0-0.4-0.1-0.4-0.1-0.8 0-0.4 0-0.7 0-0.4 0-0.8 0-0.4 0.1-0.8 0-0.3 0-0.7l0.1-0.4v-0.2-0.1q0.1-0.4 0.2-0.8c0.7-3.9 2.5-7.4 5.2-10q1.9-1.9 4.1-3.4 0.5-0.3 1.1-0.7 0.5-0.3 1.1-0.6c0.7-0.4 1.4-0.8 2.2-1.1q2.3-1 4.6-1.6 0.5-0.1 1.1-0.2 0.6-0.2 1.1-0.2 0.6-0.1 1.2-0.2 0.5-0.1 1.1-0.1 0.5-0.1 1.1-0.1 0.3 0 0.5 0 0.3 0 0.6 0 0.5 0 1 0h0.3 0.3q0.2 0 0.5 0 0.2 0 0.5 0.1h0.3 0.2q0.5 0.1 1 0.1 0.5 0.1 1 0.2 0.5 0 1 0.1c2.5 0.5 4.9 1.3 6.9 2.2 2 0.8 3.8 1.8 5.3 2.8 3.1 2 5.2 3.9 6.6 5.2 0.7 0.6 1.2 1.2 1.5 1.5q0.5 0.6 0.5 0.6 0 0-0.5-0.6c-0.4-0.3-0.9-0.8-1.6-1.4-1.4-1.3-3.6-3.1-6.6-5-1.6-0.9-3.4-1.8-5.4-2.7-2-0.8-4.3-1.4-6.8-1.9q-0.5 0-1-0.1-0.5-0.1-1-0.1-0.4-0.1-0.9-0.1h-0.3-0.2q-0.3 0-0.6-0.1-0.2 0-0.5 0h-0.2-0.3q-0.5 0-1 0-0.3 0-0.5 0.1-0.3 0-0.6 0-0.5 0-1 0.1-0.6 0.1-1.1 0.1-0.5 0.1-1.1 0.2-0.5 0.1-1.1 0.3-0.5 0.1-1.1 0.2-2.2 0.6-4.3 1.6c-2.9 1.4-5.7 3.3-8.1 5.8-0.3 0.3-0.6 0.6-0.8 0.9q-0.2 0.3-0.4 0.5-0.2 0.3-0.4 0.5l-0.2 0.3q-0.1 0.1-0.2 0.3-0.1 0.3-0.3 0.5-0.2 0.3-0.3 0.6-0.2 0.3-0.3 0.6c-0.2 0.4-0.4 0.8-0.6 1.2q-0.1 0.3-0.2 0.6-0.1 0.4-0.2 0.7l-0.2 0.3v0.3q-0.1 0.3-0.2 0.7-0.1 0.3-0.2 0.6-0.1 0.4-0.1 0.7-0.1 0.3-0.1 0.7v0.2l-0.1 0.1v0.4q0 0.3-0.1 0.7 0 0.3 0 0.6 0 0.4 0 0.7 0 0.4 0 0.7 0.1 0.4 0.1 0.7 0 0.2 0 0.4l0.1 0.3q0 0.4 0.1 0.7 0.1 0.4 0.2 0.7 0 0.2 0 0.3l0.1 0.4q0.1 0.3 0.2 0.7 0.2 0.3 0.3 0.6 0.1 0.2 0.1 0.3l0.2 0.4q0.1 0.3 0.3 0.6 0.2 0.3 0.4 0.6 0 0.2 0.1 0.3l0.2 0.3q0.2 0.3 0.5 0.6 0.2 0.3 0.4 0.6 0.1 0.1 0.2 0.2l0.3 0.3q0.3 0.2 0.5 0.5 0.3 0.2 0.6 0.5l0.2 0.2q0.2 0.1 0.3 0.2 0.3 0.3 0.6 0.5 0.1 0 0.2 0.1l0.1 0.1 0.3 0.2q0.4 0.2 0.7 0.3 0.3 0.2 0.6 0.4 0.4 0.2 0.7 0.3 0.4 0.1 0.7 0.3 0.2 0.1 0.4 0.1l0.3 0.2c0.5 0.1 1 0.3 1.5 0.4 0.5 0.1 1 0.3 1.5 0.4q0.4 0 0.8 0.1 0.2 0 0.4 0.1h0.3q0.4 0.1 0.8 0.1h0.2 0.2l0.4 0.1q0.4 0 0.8 0 0.4 0 0.8 0c2.1 0.1 4.2-0.2 6.4-0.6q3.2-0.6 6.4-1.8 3.2-1.1 6.3-2.5c4.2-2 8.3-4.2 12.4-6.7q3.1-1.8 6.3-3.7 1.5-0.9 3.1-1.8 1.6-1 3.2-1.9c4.3-2.5 8.4-5.1 12.6-7.5 4.2-2.4 8.5-4.6 13.1-6q3.5-1 7-1.4 3.5-0.4 7-0.1c2.3 0.3 4.5 0.8 6.7 1.5 2.1 0.8 4.2 1.7 6 2.9q1.5 0.9 2.7 2 1.3 1.1 2.3 2.4 1.1 1.3 1.9 2.7 0.7 1.5 1.2 3 0.4 1.6 0.6 3.1 0 0.4 0 0.8 0 0.2 0 0.4v0.4q0 0.4 0 0.8 0 0.4 0 0.8c-0.2 2-0.8 4-1.7 5.8-0.8 1.8-2 3.4-3.3 4.7q-1.1 1.1-2.2 1.9-1.1 0.8-2.3 1.5-2.4 1.3-4.9 2.2-2.4 0.8-4.9 1.2-2.4 0.4-4.7 0.6-0.6 0-1.2 0-0.6 0-1.1 0.1-0.6 0-1.2 0-0.5-0.1-1.1-0.1-2.2-0.1-4.2-0.4-2.1-0.3-4-0.8-1.9-0.5-3.6-1.1-1.7-0.7-3.2-1.3c-2-0.9-3.8-1.9-5.3-2.8-3.2-1.9-5.5-3.5-7-4.7q-1.1-0.8-1.7-1.3-0.6-0.4-0.6-0.4z"/>
				</g>
				<g id="&lt;Group&gt;">
					<path id="&lt;Path&gt;" class="s1" d="m273.5 14.3q0 0-0.6 0.1-0.2 0-0.6 0.1-0.4 0-0.9 0.1c-1.4 0.3-3.3 0.8-5.6 1.6-2.2 0.9-4.8 2.1-7.6 3.7-2.8 1.6-5.8 3.5-9 5.4q-2.4 1.5-4.7 2.8-1.2 0.7-2.3 1.3-1.1 0.6-2.2 1.2c-2.8 1.5-5.4 3-7.6 4.1q-0.4 0.2-0.8 0.4-0.4 0.2-0.7 0.4-0.8 0.4-1.5 0.7-1.3 0.6-2.3 1c-1.3 0.5-2 0.8-2 0.8 0 0 0.7-0.4 1.9-1.1q0.9-0.6 2.1-1.3 0.6-0.4 1.3-0.9 0.3-0.2 0.7-0.5 0.4-0.2 0.7-0.5 1.6-1 3.3-2.2 0.9-0.7 1.9-1.3 1-0.6 2-1.3 1.1-0.7 2.2-1.3 1-0.7 2.2-1.3 2.2-1.4 4.6-2.9c3.2-2 6.3-3.8 9.3-5.2 2.9-1.4 5.8-2.5 8.2-3.1 2.4-0.5 4.4-0.8 5.8-0.8q0.5 0 0.9 0 0.4 0 0.7 0 0.6 0 0.6 0z"/>
				</g>
				<g id="&lt;Group&gt;">
					<path id="&lt;Path&gt;" class="s2" d="m267.8 6.4q0 0-0.5 0.1-0.3 0-0.7 0.1-0.4 0-0.9 0.1c-1.3 0.3-3.2 0.8-5.5 1.6-2.3 0.9-4.9 2.1-7.7 3.7-2.8 1.5-5.8 3.4-9 5.4q-2.3 1.5-4.7 2.8-1.1 0.7-2.3 1.3-1.1 0.6-2.2 1.1c-2.8 1.6-5.3 3.1-7.5 4.2q-0.4 0.2-0.8 0.4-0.4 0.2-0.8 0.4-0.7 0.4-1.4 0.7-1.4 0.6-2.3 1c-1.3 0.5-2 0.8-2 0.8 0 0 0.6-0.4 1.8-1.1q0.9-0.6 2.1-1.3 0.7-0.5 1.3-0.9 0.4-0.2 0.8-0.5 0.3-0.2 0.7-0.5 1.5-1 3.3-2.3 0.9-0.6 1.9-1.2 0.9-0.7 2-1.3 1-0.7 2.1-1.3 1.1-0.7 2.2-1.4 2.3-1.4 4.7-2.8c3.1-2 6.3-3.8 9.2-5.2 3-1.5 5.8-2.5 8.3-3.1 2.4-0.6 4.4-0.8 5.8-0.8q0.5 0 0.9-0.1 0.4 0 0.7 0.1 0.5 0 0.5 0z"/>
				</g>
			</g>
			<g id="&lt;Group&gt;">
				<g id="&lt;Group&gt;">
					<g id="&lt;Group&gt;">
						<path id="&lt;Compound Path&gt;" fill-rule="evenodd" class="s3" d="m470.9 24.2c18-14.4 20.6-0.1 20.6-0.1-3.7 14.6-20.6 0.1-20.6 0.1zm15.8-0.7c-0.4 0-0.7 0.3-0.7 0.7 0 0.3 0.3 0.6 0.7 0.6 0.4 0 0.7-0.3 0.7-0.6 0-0.4-0.3-0.7-0.7-0.7zm-1.9 0.7c-8.3-4.3-9.4 0-9.4 0 1.7 4.4 9.4 0 9.4 0z"/>
					</g>
					<path id="&lt;Path&gt;" class="s4" d="m469.6 26.1c-1.1 0-1.9-0.8-1.9-1.9 0-1 0.8-1.9 1.9-1.9 1 0 1.9 0.9 1.9 1.9 0 1.1-0.9 1.9-1.9 1.9z"/>
					<path id="&lt;Path&gt;" class="s5" d="m455 26.2c-1 0-1.9-0.9-1.9-1.9 0-1 0.9-1.9 1.9-1.9 1.1 0 1.9 0.8 1.9 1.9 0 1-0.8 1.9-1.9 1.9z"/>
					<path id="&lt;Path&gt;" class="s6" d="m462.3 29.3c0 0 6.5-5 6.4-5.1 0.1 0-6.5-5-6.5-5-0.7 1.7-6.4 5.1-6.4 5.1-0.1 0 5.7 3.3 6.5 5z"/>
					<g id="&lt;Group&gt;">
						<path id="&lt;Compound Path&gt;" fill-rule="evenodd" class="s7" d="m279.9 24.2c0 0 1.7-9.4 13.4 0 0 0-11 9.5-13.4 0zm2.7 0c0 0.3 0.2 0.5 0.4 0.5 0.3 0 0.5-0.2 0.5-0.5 0-0.2-0.2-0.4-0.4-0.4-0.3 0-0.5 0.2-0.5 0.4zm7.8 0c0 0-0.7-2.8-6.1 0 0 0 5 2.9 6.1 0z"/>
					</g>
					<path id="&lt;Path&gt;" class="s8" d="m294.2 25.5c0.7 0 1.2-0.6 1.2-1.2 0-0.7-0.5-1.3-1.2-1.3-0.7 0-1.2 0.6-1.2 1.2 0 0.7 0.5 1.3 1.2 1.3z"/>
				</g>
				<path id="&lt;Path&gt;" class="s9" d="m455 25h-159.6v-1.4h159.6z"/>
			</g>
			<g id="&lt;Group&gt;">
				<path id="&lt;Compound Path&gt;" fill-rule="evenodd" class="s10" d="m0.2 24.1c0 0 2.6-14.3 20.6 0.1 0 0-17 14.5-20.6-0.1zm4.1 0.1c0 0.3 0.3 0.6 0.7 0.6 0.4 0 0.7-0.3 0.7-0.6 0-0.4-0.3-0.7-0.7-0.7-0.4 0-0.7 0.3-0.7 0.7zm12 0c0 0-1.1-4.3-9.4 0 0 0 7.7 4.4 9.4 0z"/>
			</g>
			<path id="&lt;Path&gt;" class="s11" d="m22.1 26.1c1.1 0 1.9-0.8 1.9-1.9 0-1-0.8-1.9-1.9-1.9-1 0-1.9 0.9-1.9 1.9 0 1.1 0.9 1.9 1.9 1.9z"/>
			<path id="&lt;Path&gt;" class="s12" d="m36.7 26.2c1 0 1.9-0.9 1.9-1.9 0-1-0.9-1.9-1.9-1.9-1.1 0-1.9 0.8-1.9 1.9 0 1 0.8 1.9 1.9 1.9z"/>
			<path id="&lt;Path&gt;" class="s13" d="m29.4 29.3c0 0-6.5-5-6.4-5.1-0.1 0 6.4-5 6.4-5 0.8 1.7 6.5 5.1 6.5 5.1 0.1 0-5.7 3.3-6.5 5z"/>
			<g id="&lt;Group&gt;">
				<path id="&lt;Compound Path&gt;" fill-rule="evenodd" class="s14" d="m198.4 24.2c11.7-9.4 13.4 0 13.4 0-2.4 9.5-13.4 0-13.4 0zm10.2-0.4c-0.2 0-0.4 0.2-0.4 0.4 0 0.3 0.2 0.5 0.4 0.5 0.3 0 0.5-0.2 0.5-0.5 0-0.2-0.2-0.4-0.5-0.4zm-1.2 0.4c-5.4-2.8-6.1 0-6.1 0 1.1 2.9 6.1 0 6.1 0z"/>
			</g>
			<path id="&lt;Path&gt;" class="s15" d="m197.5 25.5c-0.7 0-1.2-0.6-1.2-1.2 0-0.7 0.5-1.3 1.2-1.3 0.7 0 1.2 0.6 1.2 1.2 0 0.7-0.5 1.3-1.2 1.3z"/>
			<path id="&lt;Path&gt;" class="s16" d="m36.7 25h159.6v-1.4h-159.6z"/>
		</g>
	</g>
</svg>