<svg version="1.2" xmlns="http://www.w3.org/2000/svg" viewBox="0 0 212 11" width="212" height="11">
	<title>SL_111019_24950_13-ai</title>

	<defs>
		<linearGradient id="MyGradient">
			<stop offset="0%" stop-color="#e6be8a" ></stop>
			<stop offset="50%" stop-color="#faefb8" ></stop>
			<stop offset="100%" stop-color="#dba257" ></stop>
		</linearGradient>
	</defs>

	<style>
		path{fill:url('#MyGradient')}
	</style>
	<g id="_Artboards_">
	</g>
	<g id="Layer 1">
		<g id="&lt;Group&gt;">
			<g id="&lt;Group&gt;">
				<g id="&lt;Group&gt;">
					<path id="&lt;Path&gt;" class="s0" d="m1.6 5.1l73.1-0.9c0.7-0.1 1.2 0.5 1.2 1.1 0 0.7-0.5 1.2-1.1 1.2q-0.1 0-0.1 0l-73.1-0.9c-0.1 0-0.2-0.1-0.2-0.3 0-0.1 0.1-0.2 0.2-0.2z"/>
					<g id="&lt;Group&gt;">
						<path id="&lt;Path&gt;" class="s0" d="m96.6 5.3c0 1.7-1.3 3-2.9 3-1.7 0-3-1.3-3-3 0-1.6 1.3-2.9 3-2.9 1.6 0 2.9 1.3 2.9 2.9z"/>
						<path id="&lt;Path&gt;" class="s0" d="m85.5 5.3c0 1-0.8 1.8-1.7 1.8-1 0-1.8-0.8-1.8-1.8 0-0.9 0.8-1.7 1.8-1.7 0.9 0 1.7 0.8 1.7 1.7z"/>
						<path id="&lt;Path&gt;" class="s0" d="m110.7 5.3c0 3-2.4 5.4-5.3 5.4-3 0-5.4-2.4-5.4-5.4 0-2.9 2.4-5.3 5.4-5.3 2.9 0 5.3 2.4 5.3 5.3z"/>
					</g>
					<path id="&lt;Path&gt;" class="s0" d="m209.2 5.6l-73.2 0.9c-0.6 0-1.2-0.5-1.2-1.1 0-0.7 0.5-1.2 1.2-1.2q0 0 0 0l73.2 0.9c0.1 0 0.2 0.1 0.2 0.2 0 0.2-0.1 0.3-0.2 0.3z"/>
					<g id="&lt;Group&gt;">
						<path id="&lt;Path&gt;" class="s0" d="m114.1 5.3c0-1.6 1.3-2.9 3-2.9 1.6 0 2.9 1.3 2.9 2.9 0 1.7-1.3 3-2.9 3-1.7 0-3-1.3-3-3z"/>
						<path id="&lt;Path&gt;" class="s0" d="m125.2 5.3c0-0.9 0.8-1.7 1.8-1.7 1 0 1.8 0.8 1.8 1.7 0 1-0.8 1.8-1.8 1.8-1 0-1.8-0.8-1.8-1.8z"/>
						<path id="&lt;Path&gt;" class="s0" d="m0.1 5.3c0-0.9 0.8-1.7 1.8-1.7 1 0 1.8 0.8 1.8 1.7 0 1-0.8 1.8-1.8 1.8-1 0-1.8-0.8-1.8-1.8z"/>
						<path id="&lt;Path&gt;" class="s0" d="m207.5 5.3c0-0.9 0.8-1.7 1.8-1.7 1 0 1.8 0.8 1.8 1.7 0 1-0.8 1.8-1.8 1.8-1 0-1.8-0.8-1.8-1.8z"/>
					</g>
				</g>
			</g>
		</g>
	</g>
</svg>